StartChar: custom_3_9_0_0_0
Encoding: 31668 31668 11700
Width: 70
Flags: H
LayerCount: 2
Fore
SplineSet
31 43 m 1
 29 43 l 1
 29 41 l 1
 31 41 l 1
 31 43 l 1
31 39 m 1
 29 39 l 1
 29 37 l 1
 31 37 l 1
 31 39 l 1
36 37 m 1
 34 37 l 1
 34 35 l 1
 36 35 l 1
 36 37 l 1
41 43 m 1
 39 43 l 1
 39 41 l 1
 41 41 l 1
 41 43 l 1
44 43 m 1
 42 43 l 1
 42 41 l 1
 43 41 l 1
 43 42 l 1
 44 42 l 1
 44 43 l 1
31 35 m 1
 29 35 l 1
 29 33 l 1
 31 33 l 1
 31 35 l 1
36 33 m 1
 34 33 l 1
 34 31 l 1
 36 31 l 1
 36 33 l 1
31 31 m 1
 29 31 l 1
 29 29 l 1
 31 29 l 1
 31 31 l 1
41 35 m 1
 39 35 l 1
 39 33 l 1
 41 33 l 1
 41 35 l 1
43 35 m 1
 42 35 l 1
 42 33 l 1
 44 33 l 1
 44 34 l 1
 43 34 l 1
 43 35 l 1
31 27 m 1
 29 27 l 1
 29 25 l 1
 31 25 l 1
 31 27 l 1
41 27 m 1
 39 27 l 1
 39 25 l 1
 41 25 l 1
 41 27 l 1
44 27 m 1
 42 27 l 1
 42 25 l 1
 43 25 l 1
 43 26 l 1
 44 26 l 1
 44 27 l 1
45 42 m 1
 44 42 l 1
 44 41 l 1
 46 41 l 1
 46 43 l 1
 45 43 l 1
 45 42 l 1
49 43 m 1
 47 43 l 1
 47 41 l 1
 49 41 l 1
 49 43 l 1
49 39 m 1
 47 39 l 1
 47 37 l 1
 49 37 l 1
 49 39 l 1
55 43 m 1
 53 43 l 1
 53 41 l 1
 55 41 l 1
 55 43 l 1
58 43 m 1
 56 43 l 1
 56 41 l 1
 57 41 l 1
 57 42 l 1
 58 42 l 1
 58 43 l 1
59 42 m 1
 58 42 l 1
 58 41 l 1
 60 41 l 1
 60 43 l 1
 59 43 l 1
 59 42 l 1
55 39 m 1
 53 39 l 1
 53 37 l 1
 55 37 l 1
 55 39 l 1
63 43 m 1
 61 43 l 1
 61 41 l 1
 63 41 l 1
 63 43 l 1
63 39 m 1
 61 39 l 1
 61 37 l 1
 63 37 l 1
 63 39 l 1
46 35 m 1
 44 35 l 1
 44 34 l 1
 45 34 l 1
 45 33 l 1
 46 33 l 1
 46 35 l 1
49 35 m 1
 47 35 l 1
 47 33 l 1
 49 33 l 1
 49 35 l 1
49 31 m 1
 47 31 l 1
 47 29 l 1
 49 29 l 1
 49 31 l 1
55 35 m 1
 53 35 l 1
 53 33 l 1
 55 33 l 1
 55 35 l 1
57 35 m 1
 56 35 l 1
 56 33 l 1
 58 33 l 1
 58 34 l 1
 57 34 l 1
 57 35 l 1
60 35 m 1
 58 35 l 1
 58 34 l 1
 59 34 l 1
 59 33 l 1
 60 33 l 1
 60 35 l 1
45 26 m 1
 44 26 l 1
 44 25 l 1
 46 25 l 1
 46 27 l 1
 45 27 l 1
 45 26 l 1
49 27 m 1
 47 27 l 1
 47 25 l 1
 49 25 l 1
 49 27 l 1
55 27 m 1
 53 27 l 1
 53 25 l 1
 55 25 l 1
 55 27 l 1
58 27 m 1
 56 27 l 1
 56 25 l 1
 57 25 l 1
 57 26 l 1
 58 26 l 1
 58 27 l 1
59 26 m 1
 58 26 l 1
 58 25 l 1
 60 25 l 1
 60 27 l 1
 59 27 l 1
 59 26 l 1
63 35 m 1
 61 35 l 1
 61 33 l 1
 63 33 l 1
 63 35 l 1
63 31 m 1
 61 31 l 1
 61 29 l 1
 63 29 l 1
 63 31 l 1
63 27 m 1
 61 27 l 1
 61 25 l 1
 63 25 l 1
 63 27 l 1
EndSplineSet
EndChar

StartChar: custom_3_9_0_0_1
Encoding: 31669 31669 11701
Width: 70
Flags: H
LayerCount: 2
Fore
SplineSet
31 43 m 1
 29 43 l 1
 29 41 l 1
 31 41 l 1
 31 43 l 1
31 39 m 1
 29 39 l 1
 29 37 l 1
 31 37 l 1
 31 39 l 1
36 37 m 1
 34 37 l 1
 34 35 l 1
 36 35 l 1
 36 37 l 1
41 43 m 1
 39 43 l 1
 39 41 l 1
 41 41 l 1
 41 43 l 1
44 43 m 1
 42 43 l 1
 42 41 l 1
 43 41 l 1
 43 42 l 1
 44 42 l 1
 44 43 l 1
31 35 m 1
 29 35 l 1
 29 33 l 1
 31 33 l 1
 31 35 l 1
36 33 m 1
 34 33 l 1
 34 31 l 1
 36 31 l 1
 36 33 l 1
31 31 m 1
 29 31 l 1
 29 29 l 1
 31 29 l 1
 31 31 l 1
41 35 m 1
 39 35 l 1
 39 33 l 1
 41 33 l 1
 41 35 l 1
43 35 m 1
 42 35 l 1
 42 33 l 1
 44 33 l 1
 44 34 l 1
 43 34 l 1
 43 35 l 1
31 27 m 1
 29 27 l 1
 29 25 l 1
 31 25 l 1
 31 27 l 1
41 27 m 1
 39 27 l 1
 39 25 l 1
 41 25 l 1
 41 27 l 1
44 27 m 1
 42 27 l 1
 42 25 l 1
 43 25 l 1
 43 26 l 1
 44 26 l 1
 44 27 l 1
45 42 m 1
 44 42 l 1
 44 41 l 1
 46 41 l 1
 46 43 l 1
 45 43 l 1
 45 42 l 1
49 43 m 1
 47 43 l 1
 47 41 l 1
 49 41 l 1
 49 43 l 1
49 39 m 1
 47 39 l 1
 47 37 l 1
 49 37 l 1
 49 39 l 1
55 43 m 1
 53 43 l 1
 53 41 l 1
 55 41 l 1
 55 43 l 1
58 43 m 1
 56 43 l 1
 56 41 l 1
 57 41 l 1
 57 42 l 1
 58 42 l 1
 58 43 l 1
59 42 m 1
 58 42 l 1
 58 41 l 1
 60 41 l 1
 60 43 l 1
 59 43 l 1
 59 42 l 1
55 39 m 1
 53 39 l 1
 53 37 l 1
 55 37 l 1
 55 39 l 1
63 43 m 1
 61 43 l 1
 61 41 l 1
 63 41 l 1
 63 43 l 1
63 39 m 1
 61 39 l 1
 61 37 l 1
 63 37 l 1
 63 39 l 1
46 35 m 1
 44 35 l 1
 44 34 l 1
 45 34 l 1
 45 33 l 1
 46 33 l 1
 46 35 l 1
49 35 m 1
 47 35 l 1
 47 33 l 1
 49 33 l 1
 49 35 l 1
49 31 m 1
 47 31 l 1
 47 29 l 1
 49 29 l 1
 49 31 l 1
55 35 m 1
 53 35 l 1
 53 33 l 1
 55 33 l 1
 55 35 l 1
57 35 m 1
 56 35 l 1
 56 33 l 1
 58 33 l 1
 58 34 l 1
 57 34 l 1
 57 35 l 1
60 35 m 1
 58 35 l 1
 58 34 l 1
 59 34 l 1
 59 33 l 1
 60 33 l 1
 60 35 l 1
45 26 m 1
 44 26 l 1
 44 25 l 1
 46 25 l 1
 46 27 l 1
 45 27 l 1
 45 26 l 1
49 27 m 1
 47 27 l 1
 47 25 l 1
 49 25 l 1
 49 27 l 1
55 27 m 1
 53 27 l 1
 53 25 l 1
 55 25 l 1
 55 27 l 1
58 27 m 1
 56 27 l 1
 56 25 l 1
 57 25 l 1
 57 26 l 1
 58 26 l 1
 58 27 l 1
59 26 m 1
 58 26 l 1
 58 25 l 1
 60 25 l 1
 60 27 l 1
 59 27 l 1
 59 26 l 1
63 35 m 1
 61 35 l 1
 61 33 l 1
 63 33 l 1
 63 35 l 1
63 31 m 1
 61 31 l 1
 61 29 l 1
 63 29 l 1
 63 31 l 1
63 27 m 1
 61 27 l 1
 61 25 l 1
 63 25 l 1
 63 27 l 1
EndSplineSet
EndChar

StartChar: custom_3_9_0_0_2
Encoding: 31670 31670 11702
Width: 70
Flags: H
LayerCount: 2
Fore
SplineSet
31 43 m 1
 29 43 l 1
 29 41 l 1
 31 41 l 1
 31 43 l 1
31 39 m 1
 29 39 l 1
 29 37 l 1
 31 37 l 1
 31 39 l 1
36 37 m 1
 34 37 l 1
 34 35 l 1
 36 35 l 1
 36 37 l 1
41 43 m 1
 39 43 l 1
 39 41 l 1
 41 41 l 1
 41 43 l 1
44 43 m 1
 42 43 l 1
 42 41 l 1
 43 41 l 1
 43 42 l 1
 44 42 l 1
 44 43 l 1
31 35 m 1
 29 35 l 1
 29 33 l 1
 31 33 l 1
 31 35 l 1
36 33 m 1
 34 33 l 1
 34 31 l 1
 36 31 l 1
 36 33 l 1
31 31 m 1
 29 31 l 1
 29 29 l 1
 31 29 l 1
 31 31 l 1
41 35 m 1
 39 35 l 1
 39 33 l 1
 41 33 l 1
 41 35 l 1
43 35 m 1
 42 35 l 1
 42 33 l 1
 44 33 l 1
 44 34 l 1
 43 34 l 1
 43 35 l 1
31 27 m 1
 29 27 l 1
 29 25 l 1
 31 25 l 1
 31 27 l 1
41 27 m 1
 39 27 l 1
 39 25 l 1
 41 25 l 1
 41 27 l 1
44 27 m 1
 42 27 l 1
 42 25 l 1
 43 25 l 1
 43 26 l 1
 44 26 l 1
 44 27 l 1
45 42 m 1
 44 42 l 1
 44 41 l 1
 46 41 l 1
 46 43 l 1
 45 43 l 1
 45 42 l 1
49 43 m 1
 47 43 l 1
 47 41 l 1
 49 41 l 1
 49 43 l 1
49 39 m 1
 47 39 l 1
 47 37 l 1
 49 37 l 1
 49 39 l 1
55 43 m 1
 53 43 l 1
 53 41 l 1
 55 41 l 1
 55 43 l 1
58 43 m 1
 56 43 l 1
 56 41 l 1
 57 41 l 1
 57 42 l 1
 58 42 l 1
 58 43 l 1
59 42 m 1
 58 42 l 1
 58 41 l 1
 60 41 l 1
 60 43 l 1
 59 43 l 1
 59 42 l 1
55 39 m 1
 53 39 l 1
 53 37 l 1
 55 37 l 1
 55 39 l 1
63 43 m 1
 61 43 l 1
 61 41 l 1
 63 41 l 1
 63 43 l 1
63 39 m 1
 61 39 l 1
 61 37 l 1
 63 37 l 1
 63 39 l 1
46 35 m 1
 44 35 l 1
 44 34 l 1
 45 34 l 1
 45 33 l 1
 46 33 l 1
 46 35 l 1
49 35 m 1
 47 35 l 1
 47 33 l 1
 49 33 l 1
 49 35 l 1
49 31 m 1
 47 31 l 1
 47 29 l 1
 49 29 l 1
 49 31 l 1
55 35 m 1
 53 35 l 1
 53 33 l 1
 55 33 l 1
 55 35 l 1
57 35 m 1
 56 35 l 1
 56 33 l 1
 58 33 l 1
 58 34 l 1
 57 34 l 1
 57 35 l 1
60 35 m 1
 58 35 l 1
 58 34 l 1
 59 34 l 1
 59 33 l 1
 60 33 l 1
 60 35 l 1
45 26 m 1
 44 26 l 1
 44 25 l 1
 46 25 l 1
 46 27 l 1
 45 27 l 1
 45 26 l 1
49 27 m 1
 47 27 l 1
 47 25 l 1
 49 25 l 1
 49 27 l 1
55 27 m 1
 53 27 l 1
 53 25 l 1
 55 25 l 1
 55 27 l 1
58 27 m 1
 56 27 l 1
 56 25 l 1
 57 25 l 1
 57 26 l 1
 58 26 l 1
 58 27 l 1
59 26 m 1
 58 26 l 1
 58 25 l 1
 60 25 l 1
 60 27 l 1
 59 27 l 1
 59 26 l 1
63 35 m 1
 61 35 l 1
 61 33 l 1
 63 33 l 1
 63 35 l 1
63 31 m 1
 61 31 l 1
 61 29 l 1
 63 29 l 1
 63 31 l 1
63 27 m 1
 61 27 l 1
 61 25 l 1
 63 25 l 1
 63 27 l 1
EndSplineSet
EndChar

StartChar: custom_3_9_0_0_3
Encoding: 31671 31671 11703
Width: 70
Flags: H
LayerCount: 2
Fore
SplineSet
31 43 m 1
 29 43 l 1
 29 41 l 1
 31 41 l 1
 31 43 l 1
31 39 m 1
 29 39 l 1
 29 37 l 1
 31 37 l 1
 31 39 l 1
36 37 m 1
 34 37 l 1
 34 35 l 1
 36 35 l 1
 36 37 l 1
41 43 m 1
 39 43 l 1
 39 41 l 1
 41 41 l 1
 41 43 l 1
44 43 m 1
 42 43 l 1
 42 41 l 1
 43 41 l 1
 43 42 l 1
 44 42 l 1
 44 43 l 1
31 35 m 1
 29 35 l 1
 29 33 l 1
 31 33 l 1
 31 35 l 1
36 33 m 1
 34 33 l 1
 34 31 l 1
 36 31 l 1
 36 33 l 1
31 31 m 1
 29 31 l 1
 29 29 l 1
 31 29 l 1
 31 31 l 1
41 35 m 1
 39 35 l 1
 39 33 l 1
 41 33 l 1
 41 35 l 1
43 35 m 1
 42 35 l 1
 42 33 l 1
 44 33 l 1
 44 34 l 1
 43 34 l 1
 43 35 l 1
31 27 m 1
 29 27 l 1
 29 25 l 1
 31 25 l 1
 31 27 l 1
41 27 m 1
 39 27 l 1
 39 25 l 1
 41 25 l 1
 41 27 l 1
44 27 m 1
 42 27 l 1
 42 25 l 1
 43 25 l 1
 43 26 l 1
 44 26 l 1
 44 27 l 1
45 42 m 1
 44 42 l 1
 44 41 l 1
 46 41 l 1
 46 43 l 1
 45 43 l 1
 45 42 l 1
49 43 m 1
 47 43 l 1
 47 41 l 1
 49 41 l 1
 49 43 l 1
49 39 m 1
 47 39 l 1
 47 37 l 1
 49 37 l 1
 49 39 l 1
55 43 m 1
 53 43 l 1
 53 41 l 1
 55 41 l 1
 55 43 l 1
58 43 m 1
 56 43 l 1
 56 41 l 1
 57 41 l 1
 57 42 l 1
 58 42 l 1
 58 43 l 1
59 42 m 1
 58 42 l 1
 58 41 l 1
 60 41 l 1
 60 43 l 1
 59 43 l 1
 59 42 l 1
55 39 m 1
 53 39 l 1
 53 37 l 1
 55 37 l 1
 55 39 l 1
63 43 m 1
 61 43 l 1
 61 41 l 1
 63 41 l 1
 63 43 l 1
63 39 m 1
 61 39 l 1
 61 37 l 1
 63 37 l 1
 63 39 l 1
46 35 m 1
 44 35 l 1
 44 34 l 1
 45 34 l 1
 45 33 l 1
 46 33 l 1
 46 35 l 1
49 35 m 1
 47 35 l 1
 47 33 l 1
 49 33 l 1
 49 35 l 1
49 31 m 1
 47 31 l 1
 47 29 l 1
 49 29 l 1
 49 31 l 1
55 35 m 1
 53 35 l 1
 53 33 l 1
 55 33 l 1
 55 35 l 1
57 35 m 1
 56 35 l 1
 56 33 l 1
 58 33 l 1
 58 34 l 1
 57 34 l 1
 57 35 l 1
60 35 m 1
 58 35 l 1
 58 34 l 1
 59 34 l 1
 59 33 l 1
 60 33 l 1
 60 35 l 1
45 26 m 1
 44 26 l 1
 44 25 l 1
 46 25 l 1
 46 27 l 1
 45 27 l 1
 45 26 l 1
49 27 m 1
 47 27 l 1
 47 25 l 1
 49 25 l 1
 49 27 l 1
55 27 m 1
 53 27 l 1
 53 25 l 1
 55 25 l 1
 55 27 l 1
58 27 m 1
 56 27 l 1
 56 25 l 1
 57 25 l 1
 57 26 l 1
 58 26 l 1
 58 27 l 1
59 26 m 1
 58 26 l 1
 58 25 l 1
 60 25 l 1
 60 27 l 1
 59 27 l 1
 59 26 l 1
63 35 m 1
 61 35 l 1
 61 33 l 1
 63 33 l 1
 63 35 l 1
63 31 m 1
 61 31 l 1
 61 29 l 1
 63 29 l 1
 63 31 l 1
63 27 m 1
 61 27 l 1
 61 25 l 1
 63 25 l 1
 63 27 l 1
EndSplineSet
EndChar

StartChar: custom_3_9_0_0_4
Encoding: 31672 31672 11704
Width: 70
Flags: H
LayerCount: 2
Fore
SplineSet
31 43 m 1
 29 43 l 1
 29 41 l 1
 31 41 l 1
 31 43 l 1
31 39 m 1
 29 39 l 1
 29 37 l 1
 31 37 l 1
 31 39 l 1
36 37 m 1
 34 37 l 1
 34 35 l 1
 36 35 l 1
 36 37 l 1
41 43 m 1
 39 43 l 1
 39 41 l 1
 41 41 l 1
 41 43 l 1
44 43 m 1
 42 43 l 1
 42 41 l 1
 43 41 l 1
 43 42 l 1
 44 42 l 1
 44 43 l 1
31 35 m 1
 29 35 l 1
 29 33 l 1
 31 33 l 1
 31 35 l 1
36 33 m 1
 34 33 l 1
 34 31 l 1
 36 31 l 1
 36 33 l 1
31 31 m 1
 29 31 l 1
 29 29 l 1
 31 29 l 1
 31 31 l 1
41 35 m 1
 39 35 l 1
 39 33 l 1
 41 33 l 1
 41 35 l 1
43 35 m 1
 42 35 l 1
 42 33 l 1
 44 33 l 1
 44 34 l 1
 43 34 l 1
 43 35 l 1
31 27 m 1
 29 27 l 1
 29 25 l 1
 31 25 l 1
 31 27 l 1
41 27 m 1
 39 27 l 1
 39 25 l 1
 41 25 l 1
 41 27 l 1
44 27 m 1
 42 27 l 1
 42 25 l 1
 43 25 l 1
 43 26 l 1
 44 26 l 1
 44 27 l 1
45 42 m 1
 44 42 l 1
 44 41 l 1
 46 41 l 1
 46 43 l 1
 45 43 l 1
 45 42 l 1
49 43 m 1
 47 43 l 1
 47 41 l 1
 49 41 l 1
 49 43 l 1
49 39 m 1
 47 39 l 1
 47 37 l 1
 49 37 l 1
 49 39 l 1
55 43 m 1
 53 43 l 1
 53 41 l 1
 55 41 l 1
 55 43 l 1
58 43 m 1
 56 43 l 1
 56 41 l 1
 57 41 l 1
 57 42 l 1
 58 42 l 1
 58 43 l 1
59 42 m 1
 58 42 l 1
 58 41 l 1
 60 41 l 1
 60 43 l 1
 59 43 l 1
 59 42 l 1
55 39 m 1
 53 39 l 1
 53 37 l 1
 55 37 l 1
 55 39 l 1
63 43 m 1
 61 43 l 1
 61 41 l 1
 63 41 l 1
 63 43 l 1
63 39 m 1
 61 39 l 1
 61 37 l 1
 63 37 l 1
 63 39 l 1
46 35 m 1
 44 35 l 1
 44 34 l 1
 45 34 l 1
 45 33 l 1
 46 33 l 1
 46 35 l 1
49 35 m 1
 47 35 l 1
 47 33 l 1
 49 33 l 1
 49 35 l 1
49 31 m 1
 47 31 l 1
 47 29 l 1
 49 29 l 1
 49 31 l 1
55 35 m 1
 53 35 l 1
 53 33 l 1
 55 33 l 1
 55 35 l 1
57 35 m 1
 56 35 l 1
 56 33 l 1
 58 33 l 1
 58 34 l 1
 57 34 l 1
 57 35 l 1
60 35 m 1
 58 35 l 1
 58 34 l 1
 59 34 l 1
 59 33 l 1
 60 33 l 1
 60 35 l 1
45 26 m 1
 44 26 l 1
 44 25 l 1
 46 25 l 1
 46 27 l 1
 45 27 l 1
 45 26 l 1
49 27 m 1
 47 27 l 1
 47 25 l 1
 49 25 l 1
 49 27 l 1
55 27 m 1
 53 27 l 1
 53 25 l 1
 55 25 l 1
 55 27 l 1
58 27 m 1
 56 27 l 1
 56 25 l 1
 57 25 l 1
 57 26 l 1
 58 26 l 1
 58 27 l 1
59 26 m 1
 58 26 l 1
 58 25 l 1
 60 25 l 1
 60 27 l 1
 59 27 l 1
 59 26 l 1
63 35 m 1
 61 35 l 1
 61 33 l 1
 63 33 l 1
 63 35 l 1
63 31 m 1
 61 31 l 1
 61 29 l 1
 63 29 l 1
 63 31 l 1
63 27 m 1
 61 27 l 1
 61 25 l 1
 63 25 l 1
 63 27 l 1
EndSplineSet
EndChar

StartChar: custom_3_9_0_0_5
Encoding: 31673 31673 11705
Width: 70
Flags: H
LayerCount: 2
Fore
SplineSet
31 43 m 1
 29 43 l 1
 29 41 l 1
 31 41 l 1
 31 43 l 1
31 39 m 1
 29 39 l 1
 29 37 l 1
 31 37 l 1
 31 39 l 1
36 37 m 1
 34 37 l 1
 34 35 l 1
 36 35 l 1
 36 37 l 1
41 43 m 1
 39 43 l 1
 39 41 l 1
 41 41 l 1
 41 43 l 1
44 43 m 1
 42 43 l 1
 42 41 l 1
 43 41 l 1
 43 42 l 1
 44 42 l 1
 44 43 l 1
31 35 m 1
 29 35 l 1
 29 33 l 1
 31 33 l 1
 31 35 l 1
36 33 m 1
 34 33 l 1
 34 31 l 1
 36 31 l 1
 36 33 l 1
31 31 m 1
 29 31 l 1
 29 29 l 1
 31 29 l 1
 31 31 l 1
41 35 m 1
 39 35 l 1
 39 33 l 1
 41 33 l 1
 41 35 l 1
43 35 m 1
 42 35 l 1
 42 33 l 1
 44 33 l 1
 44 34 l 1
 43 34 l 1
 43 35 l 1
31 27 m 1
 29 27 l 1
 29 25 l 1
 31 25 l 1
 31 27 l 1
41 27 m 1
 39 27 l 1
 39 25 l 1
 41 25 l 1
 41 27 l 1
44 27 m 1
 42 27 l 1
 42 25 l 1
 43 25 l 1
 43 26 l 1
 44 26 l 1
 44 27 l 1
45 42 m 1
 44 42 l 1
 44 41 l 1
 46 41 l 1
 46 43 l 1
 45 43 l 1
 45 42 l 1
49 43 m 1
 47 43 l 1
 47 41 l 1
 49 41 l 1
 49 43 l 1
49 39 m 1
 47 39 l 1
 47 37 l 1
 49 37 l 1
 49 39 l 1
55 43 m 1
 53 43 l 1
 53 41 l 1
 55 41 l 1
 55 43 l 1
58 43 m 1
 56 43 l 1
 56 41 l 1
 57 41 l 1
 57 42 l 1
 58 42 l 1
 58 43 l 1
59 42 m 1
 58 42 l 1
 58 41 l 1
 60 41 l 1
 60 43 l 1
 59 43 l 1
 59 42 l 1
55 39 m 1
 53 39 l 1
 53 37 l 1
 55 37 l 1
 55 39 l 1
63 43 m 1
 61 43 l 1
 61 41 l 1
 63 41 l 1
 63 43 l 1
63 39 m 1
 61 39 l 1
 61 37 l 1
 63 37 l 1
 63 39 l 1
46 35 m 1
 44 35 l 1
 44 34 l 1
 45 34 l 1
 45 33 l 1
 46 33 l 1
 46 35 l 1
49 35 m 1
 47 35 l 1
 47 33 l 1
 49 33 l 1
 49 35 l 1
49 31 m 1
 47 31 l 1
 47 29 l 1
 49 29 l 1
 49 31 l 1
55 35 m 1
 53 35 l 1
 53 33 l 1
 55 33 l 1
 55 35 l 1
57 35 m 1
 56 35 l 1
 56 33 l 1
 58 33 l 1
 58 34 l 1
 57 34 l 1
 57 35 l 1
60 35 m 1
 58 35 l 1
 58 34 l 1
 59 34 l 1
 59 33 l 1
 60 33 l 1
 60 35 l 1
45 26 m 1
 44 26 l 1
 44 25 l 1
 46 25 l 1
 46 27 l 1
 45 27 l 1
 45 26 l 1
49 27 m 1
 47 27 l 1
 47 25 l 1
 49 25 l 1
 49 27 l 1
55 27 m 1
 53 27 l 1
 53 25 l 1
 55 25 l 1
 55 27 l 1
58 27 m 1
 56 27 l 1
 56 25 l 1
 57 25 l 1
 57 26 l 1
 58 26 l 1
 58 27 l 1
59 26 m 1
 58 26 l 1
 58 25 l 1
 60 25 l 1
 60 27 l 1
 59 27 l 1
 59 26 l 1
63 35 m 1
 61 35 l 1
 61 33 l 1
 63 33 l 1
 63 35 l 1
63 31 m 1
 61 31 l 1
 61 29 l 1
 63 29 l 1
 63 31 l 1
63 27 m 1
 61 27 l 1
 61 25 l 1
 63 25 l 1
 63 27 l 1
EndSplineSet
EndChar

StartChar: custom_3_9_0_0_6
Encoding: 31674 31674 11706
Width: 70
Flags: H
LayerCount: 2
Fore
SplineSet
31 43 m 1
 29 43 l 1
 29 41 l 1
 31 41 l 1
 31 43 l 1
31 39 m 1
 29 39 l 1
 29 37 l 1
 31 37 l 1
 31 39 l 1
36 37 m 1
 34 37 l 1
 34 35 l 1
 36 35 l 1
 36 37 l 1
41 43 m 1
 39 43 l 1
 39 41 l 1
 41 41 l 1
 41 43 l 1
44 43 m 1
 42 43 l 1
 42 41 l 1
 43 41 l 1
 43 42 l 1
 44 42 l 1
 44 43 l 1
31 35 m 1
 29 35 l 1
 29 33 l 1
 31 33 l 1
 31 35 l 1
36 33 m 1
 34 33 l 1
 34 31 l 1
 36 31 l 1
 36 33 l 1
31 31 m 1
 29 31 l 1
 29 29 l 1
 31 29 l 1
 31 31 l 1
41 35 m 1
 39 35 l 1
 39 33 l 1
 41 33 l 1
 41 35 l 1
43 35 m 1
 42 35 l 1
 42 33 l 1
 44 33 l 1
 44 34 l 1
 43 34 l 1
 43 35 l 1
31 27 m 1
 29 27 l 1
 29 25 l 1
 31 25 l 1
 31 27 l 1
41 27 m 1
 39 27 l 1
 39 25 l 1
 41 25 l 1
 41 27 l 1
44 27 m 1
 42 27 l 1
 42 25 l 1
 43 25 l 1
 43 26 l 1
 44 26 l 1
 44 27 l 1
45 42 m 1
 44 42 l 1
 44 41 l 1
 46 41 l 1
 46 43 l 1
 45 43 l 1
 45 42 l 1
49 43 m 1
 47 43 l 1
 47 41 l 1
 49 41 l 1
 49 43 l 1
49 39 m 1
 47 39 l 1
 47 37 l 1
 49 37 l 1
 49 39 l 1
55 43 m 1
 53 43 l 1
 53 41 l 1
 55 41 l 1
 55 43 l 1
58 43 m 1
 56 43 l 1
 56 41 l 1
 57 41 l 1
 57 42 l 1
 58 42 l 1
 58 43 l 1
59 42 m 1
 58 42 l 1
 58 41 l 1
 60 41 l 1
 60 43 l 1
 59 43 l 1
 59 42 l 1
55 39 m 1
 53 39 l 1
 53 37 l 1
 55 37 l 1
 55 39 l 1
63 43 m 1
 61 43 l 1
 61 41 l 1
 63 41 l 1
 63 43 l 1
63 39 m 1
 61 39 l 1
 61 37 l 1
 63 37 l 1
 63 39 l 1
46 35 m 1
 44 35 l 1
 44 34 l 1
 45 34 l 1
 45 33 l 1
 46 33 l 1
 46 35 l 1
49 35 m 1
 47 35 l 1
 47 33 l 1
 49 33 l 1
 49 35 l 1
49 31 m 1
 47 31 l 1
 47 29 l 1
 49 29 l 1
 49 31 l 1
55 35 m 1
 53 35 l 1
 53 33 l 1
 55 33 l 1
 55 35 l 1
57 35 m 1
 56 35 l 1
 56 33 l 1
 58 33 l 1
 58 34 l 1
 57 34 l 1
 57 35 l 1
60 35 m 1
 58 35 l 1
 58 34 l 1
 59 34 l 1
 59 33 l 1
 60 33 l 1
 60 35 l 1
45 26 m 1
 44 26 l 1
 44 25 l 1
 46 25 l 1
 46 27 l 1
 45 27 l 1
 45 26 l 1
49 27 m 1
 47 27 l 1
 47 25 l 1
 49 25 l 1
 49 27 l 1
55 27 m 1
 53 27 l 1
 53 25 l 1
 55 25 l 1
 55 27 l 1
58 27 m 1
 56 27 l 1
 56 25 l 1
 57 25 l 1
 57 26 l 1
 58 26 l 1
 58 27 l 1
59 26 m 1
 58 26 l 1
 58 25 l 1
 60 25 l 1
 60 27 l 1
 59 27 l 1
 59 26 l 1
63 35 m 1
 61 35 l 1
 61 33 l 1
 63 33 l 1
 63 35 l 1
63 31 m 1
 61 31 l 1
 61 29 l 1
 63 29 l 1
 63 31 l 1
63 27 m 1
 61 27 l 1
 61 25 l 1
 63 25 l 1
 63 27 l 1
EndSplineSet
EndChar

StartChar: custom_3_9_0_0_7
Encoding: 31675 31675 11707
Width: 70
Flags: H
LayerCount: 2
Fore
SplineSet
31 43 m 1
 29 43 l 1
 29 41 l 1
 31 41 l 1
 31 43 l 1
31 39 m 1
 29 39 l 1
 29 37 l 1
 31 37 l 1
 31 39 l 1
36 37 m 1
 34 37 l 1
 34 35 l 1
 36 35 l 1
 36 37 l 1
41 43 m 1
 39 43 l 1
 39 41 l 1
 41 41 l 1
 41 43 l 1
44 43 m 1
 42 43 l 1
 42 41 l 1
 43 41 l 1
 43 42 l 1
 44 42 l 1
 44 43 l 1
31 35 m 1
 29 35 l 1
 29 33 l 1
 31 33 l 1
 31 35 l 1
36 33 m 1
 34 33 l 1
 34 31 l 1
 36 31 l 1
 36 33 l 1
31 31 m 1
 29 31 l 1
 29 29 l 1
 31 29 l 1
 31 31 l 1
41 35 m 1
 39 35 l 1
 39 33 l 1
 41 33 l 1
 41 35 l 1
43 35 m 1
 42 35 l 1
 42 33 l 1
 44 33 l 1
 44 34 l 1
 43 34 l 1
 43 35 l 1
31 27 m 1
 29 27 l 1
 29 25 l 1
 31 25 l 1
 31 27 l 1
41 27 m 1
 39 27 l 1
 39 25 l 1
 41 25 l 1
 41 27 l 1
44 27 m 1
 42 27 l 1
 42 25 l 1
 43 25 l 1
 43 26 l 1
 44 26 l 1
 44 27 l 1
45 42 m 1
 44 42 l 1
 44 41 l 1
 46 41 l 1
 46 43 l 1
 45 43 l 1
 45 42 l 1
49 43 m 1
 47 43 l 1
 47 41 l 1
 49 41 l 1
 49 43 l 1
49 39 m 1
 47 39 l 1
 47 37 l 1
 49 37 l 1
 49 39 l 1
55 43 m 1
 53 43 l 1
 53 41 l 1
 55 41 l 1
 55 43 l 1
58 43 m 1
 56 43 l 1
 56 41 l 1
 57 41 l 1
 57 42 l 1
 58 42 l 1
 58 43 l 1
59 42 m 1
 58 42 l 1
 58 41 l 1
 60 41 l 1
 60 43 l 1
 59 43 l 1
 59 42 l 1
55 39 m 1
 53 39 l 1
 53 37 l 1
 55 37 l 1
 55 39 l 1
63 43 m 1
 61 43 l 1
 61 41 l 1
 63 41 l 1
 63 43 l 1
63 39 m 1
 61 39 l 1
 61 37 l 1
 63 37 l 1
 63 39 l 1
46 35 m 1
 44 35 l 1
 44 34 l 1
 45 34 l 1
 45 33 l 1
 46 33 l 1
 46 35 l 1
49 35 m 1
 47 35 l 1
 47 33 l 1
 49 33 l 1
 49 35 l 1
49 31 m 1
 47 31 l 1
 47 29 l 1
 49 29 l 1
 49 31 l 1
55 35 m 1
 53 35 l 1
 53 33 l 1
 55 33 l 1
 55 35 l 1
57 35 m 1
 56 35 l 1
 56 33 l 1
 58 33 l 1
 58 34 l 1
 57 34 l 1
 57 35 l 1
60 35 m 1
 58 35 l 1
 58 34 l 1
 59 34 l 1
 59 33 l 1
 60 33 l 1
 60 35 l 1
45 26 m 1
 44 26 l 1
 44 25 l 1
 46 25 l 1
 46 27 l 1
 45 27 l 1
 45 26 l 1
49 27 m 1
 47 27 l 1
 47 25 l 1
 49 25 l 1
 49 27 l 1
55 27 m 1
 53 27 l 1
 53 25 l 1
 55 25 l 1
 55 27 l 1
58 27 m 1
 56 27 l 1
 56 25 l 1
 57 25 l 1
 57 26 l 1
 58 26 l 1
 58 27 l 1
59 26 m 1
 58 26 l 1
 58 25 l 1
 60 25 l 1
 60 27 l 1
 59 27 l 1
 59 26 l 1
63 35 m 1
 61 35 l 1
 61 33 l 1
 63 33 l 1
 63 35 l 1
63 31 m 1
 61 31 l 1
 61 29 l 1
 63 29 l 1
 63 31 l 1
63 27 m 1
 61 27 l 1
 61 25 l 1
 63 25 l 1
 63 27 l 1
EndSplineSet
EndChar

StartChar: custom_3_9_0_0_8
Encoding: 31676 31676 11708
Width: 70
Flags: H
LayerCount: 2
Fore
SplineSet
31 43 m 1
 29 43 l 1
 29 41 l 1
 31 41 l 1
 31 43 l 1
31 39 m 1
 29 39 l 1
 29 37 l 1
 31 37 l 1
 31 39 l 1
36 37 m 1
 34 37 l 1
 34 35 l 1
 36 35 l 1
 36 37 l 1
41 43 m 1
 39 43 l 1
 39 41 l 1
 41 41 l 1
 41 43 l 1
44 43 m 1
 42 43 l 1
 42 41 l 1
 43 41 l 1
 43 42 l 1
 44 42 l 1
 44 43 l 1
31 35 m 1
 29 35 l 1
 29 33 l 1
 31 33 l 1
 31 35 l 1
36 33 m 1
 34 33 l 1
 34 31 l 1
 36 31 l 1
 36 33 l 1
31 31 m 1
 29 31 l 1
 29 29 l 1
 31 29 l 1
 31 31 l 1
41 35 m 1
 39 35 l 1
 39 33 l 1
 41 33 l 1
 41 35 l 1
43 35 m 1
 42 35 l 1
 42 33 l 1
 44 33 l 1
 44 34 l 1
 43 34 l 1
 43 35 l 1
31 27 m 1
 29 27 l 1
 29 25 l 1
 31 25 l 1
 31 27 l 1
41 27 m 1
 39 27 l 1
 39 25 l 1
 41 25 l 1
 41 27 l 1
44 27 m 1
 42 27 l 1
 42 25 l 1
 43 25 l 1
 43 26 l 1
 44 26 l 1
 44 27 l 1
45 42 m 1
 44 42 l 1
 44 41 l 1
 46 41 l 1
 46 43 l 1
 45 43 l 1
 45 42 l 1
49 43 m 1
 47 43 l 1
 47 41 l 1
 49 41 l 1
 49 43 l 1
49 39 m 1
 47 39 l 1
 47 37 l 1
 49 37 l 1
 49 39 l 1
55 43 m 1
 53 43 l 1
 53 41 l 1
 55 41 l 1
 55 43 l 1
58 43 m 1
 56 43 l 1
 56 41 l 1
 57 41 l 1
 57 42 l 1
 58 42 l 1
 58 43 l 1
59 42 m 1
 58 42 l 1
 58 41 l 1
 60 41 l 1
 60 43 l 1
 59 43 l 1
 59 42 l 1
55 39 m 1
 53 39 l 1
 53 37 l 1
 55 37 l 1
 55 39 l 1
63 43 m 1
 61 43 l 1
 61 41 l 1
 63 41 l 1
 63 43 l 1
63 39 m 1
 61 39 l 1
 61 37 l 1
 63 37 l 1
 63 39 l 1
46 35 m 1
 44 35 l 1
 44 34 l 1
 45 34 l 1
 45 33 l 1
 46 33 l 1
 46 35 l 1
49 35 m 1
 47 35 l 1
 47 33 l 1
 49 33 l 1
 49 35 l 1
49 31 m 1
 47 31 l 1
 47 29 l 1
 49 29 l 1
 49 31 l 1
55 35 m 1
 53 35 l 1
 53 33 l 1
 55 33 l 1
 55 35 l 1
57 35 m 1
 56 35 l 1
 56 33 l 1
 58 33 l 1
 58 34 l 1
 57 34 l 1
 57 35 l 1
60 35 m 1
 58 35 l 1
 58 34 l 1
 59 34 l 1
 59 33 l 1
 60 33 l 1
 60 35 l 1
45 26 m 1
 44 26 l 1
 44 25 l 1
 46 25 l 1
 46 27 l 1
 45 27 l 1
 45 26 l 1
49 27 m 1
 47 27 l 1
 47 25 l 1
 49 25 l 1
 49 27 l 1
55 27 m 1
 53 27 l 1
 53 25 l 1
 55 25 l 1
 55 27 l 1
58 27 m 1
 56 27 l 1
 56 25 l 1
 57 25 l 1
 57 26 l 1
 58 26 l 1
 58 27 l 1
59 26 m 1
 58 26 l 1
 58 25 l 1
 60 25 l 1
 60 27 l 1
 59 27 l 1
 59 26 l 1
63 35 m 1
 61 35 l 1
 61 33 l 1
 63 33 l 1
 63 35 l 1
63 31 m 1
 61 31 l 1
 61 29 l 1
 63 29 l 1
 63 31 l 1
63 27 m 1
 61 27 l 1
 61 25 l 1
 63 25 l 1
 63 27 l 1
EndSplineSet
EndChar

StartChar: custom_3_9_0_0_9
Encoding: 31677 31677 11709
Width: 70
Flags: H
LayerCount: 2
Fore
SplineSet
31 43 m 1
 29 43 l 1
 29 41 l 1
 31 41 l 1
 31 43 l 1
31 39 m 1
 29 39 l 1
 29 37 l 1
 31 37 l 1
 31 39 l 1
36 37 m 1
 34 37 l 1
 34 35 l 1
 36 35 l 1
 36 37 l 1
41 43 m 1
 39 43 l 1
 39 41 l 1
 41 41 l 1
 41 43 l 1
44 43 m 1
 42 43 l 1
 42 41 l 1
 43 41 l 1
 43 42 l 1
 44 42 l 1
 44 43 l 1
31 35 m 1
 29 35 l 1
 29 33 l 1
 31 33 l 1
 31 35 l 1
36 33 m 1
 34 33 l 1
 34 31 l 1
 36 31 l 1
 36 33 l 1
31 31 m 1
 29 31 l 1
 29 29 l 1
 31 29 l 1
 31 31 l 1
41 35 m 1
 39 35 l 1
 39 33 l 1
 41 33 l 1
 41 35 l 1
43 35 m 1
 42 35 l 1
 42 33 l 1
 44 33 l 1
 44 34 l 1
 43 34 l 1
 43 35 l 1
31 27 m 1
 29 27 l 1
 29 25 l 1
 31 25 l 1
 31 27 l 1
41 27 m 1
 39 27 l 1
 39 25 l 1
 41 25 l 1
 41 27 l 1
44 27 m 1
 42 27 l 1
 42 25 l 1
 43 25 l 1
 43 26 l 1
 44 26 l 1
 44 27 l 1
45 42 m 1
 44 42 l 1
 44 41 l 1
 46 41 l 1
 46 43 l 1
 45 43 l 1
 45 42 l 1
49 43 m 1
 47 43 l 1
 47 41 l 1
 49 41 l 1
 49 43 l 1
49 39 m 1
 47 39 l 1
 47 37 l 1
 49 37 l 1
 49 39 l 1
55 43 m 1
 53 43 l 1
 53 41 l 1
 55 41 l 1
 55 43 l 1
58 43 m 1
 56 43 l 1
 56 41 l 1
 57 41 l 1
 57 42 l 1
 58 42 l 1
 58 43 l 1
59 42 m 1
 58 42 l 1
 58 41 l 1
 60 41 l 1
 60 43 l 1
 59 43 l 1
 59 42 l 1
55 39 m 1
 53 39 l 1
 53 37 l 1
 55 37 l 1
 55 39 l 1
63 43 m 1
 61 43 l 1
 61 41 l 1
 63 41 l 1
 63 43 l 1
63 39 m 1
 61 39 l 1
 61 37 l 1
 63 37 l 1
 63 39 l 1
46 35 m 1
 44 35 l 1
 44 34 l 1
 45 34 l 1
 45 33 l 1
 46 33 l 1
 46 35 l 1
49 35 m 1
 47 35 l 1
 47 33 l 1
 49 33 l 1
 49 35 l 1
49 31 m 1
 47 31 l 1
 47 29 l 1
 49 29 l 1
 49 31 l 1
55 35 m 1
 53 35 l 1
 53 33 l 1
 55 33 l 1
 55 35 l 1
57 35 m 1
 56 35 l 1
 56 33 l 1
 58 33 l 1
 58 34 l 1
 57 34 l 1
 57 35 l 1
60 35 m 1
 58 35 l 1
 58 34 l 1
 59 34 l 1
 59 33 l 1
 60 33 l 1
 60 35 l 1
45 26 m 1
 44 26 l 1
 44 25 l 1
 46 25 l 1
 46 27 l 1
 45 27 l 1
 45 26 l 1
49 27 m 1
 47 27 l 1
 47 25 l 1
 49 25 l 1
 49 27 l 1
55 27 m 1
 53 27 l 1
 53 25 l 1
 55 25 l 1
 55 27 l 1
58 27 m 1
 56 27 l 1
 56 25 l 1
 57 25 l 1
 57 26 l 1
 58 26 l 1
 58 27 l 1
59 26 m 1
 58 26 l 1
 58 25 l 1
 60 25 l 1
 60 27 l 1
 59 27 l 1
 59 26 l 1
63 35 m 1
 61 35 l 1
 61 33 l 1
 63 33 l 1
 63 35 l 1
63 31 m 1
 61 31 l 1
 61 29 l 1
 63 29 l 1
 63 31 l 1
63 27 m 1
 61 27 l 1
 61 25 l 1
 63 25 l 1
 63 27 l 1
EndSplineSet
EndChar

StartChar: custom_3_9_0_1_0
Encoding: 31678 31678 11710
Width: 70
Flags: H
LayerCount: 2
Fore
SplineSet
31 43 m 1
 29 43 l 1
 29 41 l 1
 31 41 l 1
 31 43 l 1
31 39 m 1
 29 39 l 1
 29 37 l 1
 31 37 l 1
 31 39 l 1
36 37 m 1
 34 37 l 1
 34 35 l 1
 36 35 l 1
 36 37 l 1
41 43 m 1
 39 43 l 1
 39 41 l 1
 41 41 l 1
 41 43 l 1
44 43 m 1
 42 43 l 1
 42 41 l 1
 43 41 l 1
 43 42 l 1
 44 42 l 1
 44 43 l 1
31 35 m 1
 29 35 l 1
 29 33 l 1
 31 33 l 1
 31 35 l 1
36 33 m 1
 34 33 l 1
 34 31 l 1
 36 31 l 1
 36 33 l 1
31 31 m 1
 29 31 l 1
 29 29 l 1
 31 29 l 1
 31 31 l 1
41 35 m 1
 39 35 l 1
 39 33 l 1
 41 33 l 1
 41 35 l 1
43 35 m 1
 42 35 l 1
 42 33 l 1
 44 33 l 1
 44 34 l 1
 43 34 l 1
 43 35 l 1
31 27 m 1
 29 27 l 1
 29 25 l 1
 31 25 l 1
 31 27 l 1
41 27 m 1
 39 27 l 1
 39 25 l 1
 41 25 l 1
 41 27 l 1
44 27 m 1
 42 27 l 1
 42 25 l 1
 43 25 l 1
 43 26 l 1
 44 26 l 1
 44 27 l 1
45 42 m 1
 44 42 l 1
 44 41 l 1
 46 41 l 1
 46 43 l 1
 45 43 l 1
 45 42 l 1
49 43 m 1
 47 43 l 1
 47 41 l 1
 49 41 l 1
 49 43 l 1
49 39 m 1
 47 39 l 1
 47 37 l 1
 49 37 l 1
 49 39 l 1
55 43 m 1
 53 43 l 1
 53 41 l 1
 55 41 l 1
 55 43 l 1
58 43 m 1
 56 43 l 1
 56 41 l 1
 57 41 l 1
 57 42 l 1
 58 42 l 1
 58 43 l 1
59 42 m 1
 58 42 l 1
 58 41 l 1
 60 41 l 1
 60 43 l 1
 59 43 l 1
 59 42 l 1
55 39 m 1
 53 39 l 1
 53 37 l 1
 55 37 l 1
 55 39 l 1
63 43 m 1
 61 43 l 1
 61 41 l 1
 63 41 l 1
 63 43 l 1
63 39 m 1
 61 39 l 1
 61 37 l 1
 63 37 l 1
 63 39 l 1
46 35 m 1
 44 35 l 1
 44 34 l 1
 45 34 l 1
 45 33 l 1
 46 33 l 1
 46 35 l 1
49 35 m 1
 47 35 l 1
 47 33 l 1
 49 33 l 1
 49 35 l 1
49 31 m 1
 47 31 l 1
 47 29 l 1
 49 29 l 1
 49 31 l 1
55 35 m 1
 53 35 l 1
 53 33 l 1
 55 33 l 1
 55 35 l 1
57 35 m 1
 56 35 l 1
 56 33 l 1
 58 33 l 1
 58 34 l 1
 57 34 l 1
 57 35 l 1
60 35 m 1
 58 35 l 1
 58 34 l 1
 59 34 l 1
 59 33 l 1
 60 33 l 1
 60 35 l 1
45 26 m 1
 44 26 l 1
 44 25 l 1
 46 25 l 1
 46 27 l 1
 45 27 l 1
 45 26 l 1
49 27 m 1
 47 27 l 1
 47 25 l 1
 49 25 l 1
 49 27 l 1
55 27 m 1
 53 27 l 1
 53 25 l 1
 55 25 l 1
 55 27 l 1
58 27 m 1
 56 27 l 1
 56 25 l 1
 57 25 l 1
 57 26 l 1
 58 26 l 1
 58 27 l 1
59 26 m 1
 58 26 l 1
 58 25 l 1
 60 25 l 1
 60 27 l 1
 59 27 l 1
 59 26 l 1
63 35 m 1
 61 35 l 1
 61 33 l 1
 63 33 l 1
 63 35 l 1
63 31 m 1
 61 31 l 1
 61 29 l 1
 63 29 l 1
 63 31 l 1
63 27 m 1
 61 27 l 1
 61 25 l 1
 63 25 l 1
 63 27 l 1
EndSplineSet
EndChar

StartChar: custom_3_9_0_1_1
Encoding: 31679 31679 11711
Width: 70
Flags: H
LayerCount: 2
Fore
SplineSet
31 43 m 1
 29 43 l 1
 29 41 l 1
 31 41 l 1
 31 43 l 1
31 39 m 1
 29 39 l 1
 29 37 l 1
 31 37 l 1
 31 39 l 1
36 37 m 1
 34 37 l 1
 34 35 l 1
 36 35 l 1
 36 37 l 1
41 43 m 1
 39 43 l 1
 39 41 l 1
 41 41 l 1
 41 43 l 1
44 43 m 1
 42 43 l 1
 42 41 l 1
 43 41 l 1
 43 42 l 1
 44 42 l 1
 44 43 l 1
31 35 m 1
 29 35 l 1
 29 33 l 1
 31 33 l 1
 31 35 l 1
36 33 m 1
 34 33 l 1
 34 31 l 1
 36 31 l 1
 36 33 l 1
31 31 m 1
 29 31 l 1
 29 29 l 1
 31 29 l 1
 31 31 l 1
41 35 m 1
 39 35 l 1
 39 33 l 1
 41 33 l 1
 41 35 l 1
43 35 m 1
 42 35 l 1
 42 33 l 1
 44 33 l 1
 44 34 l 1
 43 34 l 1
 43 35 l 1
31 27 m 1
 29 27 l 1
 29 25 l 1
 31 25 l 1
 31 27 l 1
41 27 m 1
 39 27 l 1
 39 25 l 1
 41 25 l 1
 41 27 l 1
44 27 m 1
 42 27 l 1
 42 25 l 1
 43 25 l 1
 43 26 l 1
 44 26 l 1
 44 27 l 1
45 42 m 1
 44 42 l 1
 44 41 l 1
 46 41 l 1
 46 43 l 1
 45 43 l 1
 45 42 l 1
49 43 m 1
 47 43 l 1
 47 41 l 1
 49 41 l 1
 49 43 l 1
49 39 m 1
 47 39 l 1
 47 37 l 1
 49 37 l 1
 49 39 l 1
55 43 m 1
 53 43 l 1
 53 41 l 1
 55 41 l 1
 55 43 l 1
58 43 m 1
 56 43 l 1
 56 41 l 1
 57 41 l 1
 57 42 l 1
 58 42 l 1
 58 43 l 1
59 42 m 1
 58 42 l 1
 58 41 l 1
 60 41 l 1
 60 43 l 1
 59 43 l 1
 59 42 l 1
55 39 m 1
 53 39 l 1
 53 37 l 1
 55 37 l 1
 55 39 l 1
63 43 m 1
 61 43 l 1
 61 41 l 1
 63 41 l 1
 63 43 l 1
63 39 m 1
 61 39 l 1
 61 37 l 1
 63 37 l 1
 63 39 l 1
46 35 m 1
 44 35 l 1
 44 34 l 1
 45 34 l 1
 45 33 l 1
 46 33 l 1
 46 35 l 1
49 35 m 1
 47 35 l 1
 47 33 l 1
 49 33 l 1
 49 35 l 1
49 31 m 1
 47 31 l 1
 47 29 l 1
 49 29 l 1
 49 31 l 1
55 35 m 1
 53 35 l 1
 53 33 l 1
 55 33 l 1
 55 35 l 1
57 35 m 1
 56 35 l 1
 56 33 l 1
 58 33 l 1
 58 34 l 1
 57 34 l 1
 57 35 l 1
60 35 m 1
 58 35 l 1
 58 34 l 1
 59 34 l 1
 59 33 l 1
 60 33 l 1
 60 35 l 1
45 26 m 1
 44 26 l 1
 44 25 l 1
 46 25 l 1
 46 27 l 1
 45 27 l 1
 45 26 l 1
49 27 m 1
 47 27 l 1
 47 25 l 1
 49 25 l 1
 49 27 l 1
55 27 m 1
 53 27 l 1
 53 25 l 1
 55 25 l 1
 55 27 l 1
58 27 m 1
 56 27 l 1
 56 25 l 1
 57 25 l 1
 57 26 l 1
 58 26 l 1
 58 27 l 1
59 26 m 1
 58 26 l 1
 58 25 l 1
 60 25 l 1
 60 27 l 1
 59 27 l 1
 59 26 l 1
63 35 m 1
 61 35 l 1
 61 33 l 1
 63 33 l 1
 63 35 l 1
63 31 m 1
 61 31 l 1
 61 29 l 1
 63 29 l 1
 63 31 l 1
63 27 m 1
 61 27 l 1
 61 25 l 1
 63 25 l 1
 63 27 l 1
EndSplineSet
EndChar

StartChar: custom_3_9_0_1_2
Encoding: 31680 31680 11712
Width: 70
Flags: H
LayerCount: 2
Fore
SplineSet
31 43 m 1
 29 43 l 1
 29 41 l 1
 31 41 l 1
 31 43 l 1
31 39 m 1
 29 39 l 1
 29 37 l 1
 31 37 l 1
 31 39 l 1
36 37 m 1
 34 37 l 1
 34 35 l 1
 36 35 l 1
 36 37 l 1
41 43 m 1
 39 43 l 1
 39 41 l 1
 41 41 l 1
 41 43 l 1
44 43 m 1
 42 43 l 1
 42 41 l 1
 43 41 l 1
 43 42 l 1
 44 42 l 1
 44 43 l 1
31 35 m 1
 29 35 l 1
 29 33 l 1
 31 33 l 1
 31 35 l 1
36 33 m 1
 34 33 l 1
 34 31 l 1
 36 31 l 1
 36 33 l 1
31 31 m 1
 29 31 l 1
 29 29 l 1
 31 29 l 1
 31 31 l 1
41 35 m 1
 39 35 l 1
 39 33 l 1
 41 33 l 1
 41 35 l 1
43 35 m 1
 42 35 l 1
 42 33 l 1
 44 33 l 1
 44 34 l 1
 43 34 l 1
 43 35 l 1
31 27 m 1
 29 27 l 1
 29 25 l 1
 31 25 l 1
 31 27 l 1
41 27 m 1
 39 27 l 1
 39 25 l 1
 41 25 l 1
 41 27 l 1
44 27 m 1
 42 27 l 1
 42 25 l 1
 43 25 l 1
 43 26 l 1
 44 26 l 1
 44 27 l 1
45 42 m 1
 44 42 l 1
 44 41 l 1
 46 41 l 1
 46 43 l 1
 45 43 l 1
 45 42 l 1
49 43 m 1
 47 43 l 1
 47 41 l 1
 49 41 l 1
 49 43 l 1
49 39 m 1
 47 39 l 1
 47 37 l 1
 49 37 l 1
 49 39 l 1
55 43 m 1
 53 43 l 1
 53 41 l 1
 55 41 l 1
 55 43 l 1
58 43 m 1
 56 43 l 1
 56 41 l 1
 57 41 l 1
 57 42 l 1
 58 42 l 1
 58 43 l 1
59 42 m 1
 58 42 l 1
 58 41 l 1
 60 41 l 1
 60 43 l 1
 59 43 l 1
 59 42 l 1
55 39 m 1
 53 39 l 1
 53 37 l 1
 55 37 l 1
 55 39 l 1
63 43 m 1
 61 43 l 1
 61 41 l 1
 63 41 l 1
 63 43 l 1
63 39 m 1
 61 39 l 1
 61 37 l 1
 63 37 l 1
 63 39 l 1
46 35 m 1
 44 35 l 1
 44 34 l 1
 45 34 l 1
 45 33 l 1
 46 33 l 1
 46 35 l 1
49 35 m 1
 47 35 l 1
 47 33 l 1
 49 33 l 1
 49 35 l 1
49 31 m 1
 47 31 l 1
 47 29 l 1
 49 29 l 1
 49 31 l 1
55 35 m 1
 53 35 l 1
 53 33 l 1
 55 33 l 1
 55 35 l 1
57 35 m 1
 56 35 l 1
 56 33 l 1
 58 33 l 1
 58 34 l 1
 57 34 l 1
 57 35 l 1
60 35 m 1
 58 35 l 1
 58 34 l 1
 59 34 l 1
 59 33 l 1
 60 33 l 1
 60 35 l 1
45 26 m 1
 44 26 l 1
 44 25 l 1
 46 25 l 1
 46 27 l 1
 45 27 l 1
 45 26 l 1
49 27 m 1
 47 27 l 1
 47 25 l 1
 49 25 l 1
 49 27 l 1
55 27 m 1
 53 27 l 1
 53 25 l 1
 55 25 l 1
 55 27 l 1
58 27 m 1
 56 27 l 1
 56 25 l 1
 57 25 l 1
 57 26 l 1
 58 26 l 1
 58 27 l 1
59 26 m 1
 58 26 l 1
 58 25 l 1
 60 25 l 1
 60 27 l 1
 59 27 l 1
 59 26 l 1
63 35 m 1
 61 35 l 1
 61 33 l 1
 63 33 l 1
 63 35 l 1
63 31 m 1
 61 31 l 1
 61 29 l 1
 63 29 l 1
 63 31 l 1
63 27 m 1
 61 27 l 1
 61 25 l 1
 63 25 l 1
 63 27 l 1
EndSplineSet
EndChar

StartChar: custom_3_9_0_1_3
Encoding: 31681 31681 11713
Width: 70
Flags: H
LayerCount: 2
Fore
SplineSet
31 43 m 1
 29 43 l 1
 29 41 l 1
 31 41 l 1
 31 43 l 1
31 39 m 1
 29 39 l 1
 29 37 l 1
 31 37 l 1
 31 39 l 1
36 37 m 1
 34 37 l 1
 34 35 l 1
 36 35 l 1
 36 37 l 1
41 43 m 1
 39 43 l 1
 39 41 l 1
 41 41 l 1
 41 43 l 1
44 43 m 1
 42 43 l 1
 42 41 l 1
 43 41 l 1
 43 42 l 1
 44 42 l 1
 44 43 l 1
31 35 m 1
 29 35 l 1
 29 33 l 1
 31 33 l 1
 31 35 l 1
36 33 m 1
 34 33 l 1
 34 31 l 1
 36 31 l 1
 36 33 l 1
31 31 m 1
 29 31 l 1
 29 29 l 1
 31 29 l 1
 31 31 l 1
41 35 m 1
 39 35 l 1
 39 33 l 1
 41 33 l 1
 41 35 l 1
43 35 m 1
 42 35 l 1
 42 33 l 1
 44 33 l 1
 44 34 l 1
 43 34 l 1
 43 35 l 1
31 27 m 1
 29 27 l 1
 29 25 l 1
 31 25 l 1
 31 27 l 1
41 27 m 1
 39 27 l 1
 39 25 l 1
 41 25 l 1
 41 27 l 1
44 27 m 1
 42 27 l 1
 42 25 l 1
 43 25 l 1
 43 26 l 1
 44 26 l 1
 44 27 l 1
45 42 m 1
 44 42 l 1
 44 41 l 1
 46 41 l 1
 46 43 l 1
 45 43 l 1
 45 42 l 1
49 43 m 1
 47 43 l 1
 47 41 l 1
 49 41 l 1
 49 43 l 1
49 39 m 1
 47 39 l 1
 47 37 l 1
 49 37 l 1
 49 39 l 1
55 43 m 1
 53 43 l 1
 53 41 l 1
 55 41 l 1
 55 43 l 1
58 43 m 1
 56 43 l 1
 56 41 l 1
 57 41 l 1
 57 42 l 1
 58 42 l 1
 58 43 l 1
59 42 m 1
 58 42 l 1
 58 41 l 1
 60 41 l 1
 60 43 l 1
 59 43 l 1
 59 42 l 1
55 39 m 1
 53 39 l 1
 53 37 l 1
 55 37 l 1
 55 39 l 1
63 43 m 1
 61 43 l 1
 61 41 l 1
 63 41 l 1
 63 43 l 1
63 39 m 1
 61 39 l 1
 61 37 l 1
 63 37 l 1
 63 39 l 1
46 35 m 1
 44 35 l 1
 44 34 l 1
 45 34 l 1
 45 33 l 1
 46 33 l 1
 46 35 l 1
49 35 m 1
 47 35 l 1
 47 33 l 1
 49 33 l 1
 49 35 l 1
49 31 m 1
 47 31 l 1
 47 29 l 1
 49 29 l 1
 49 31 l 1
55 35 m 1
 53 35 l 1
 53 33 l 1
 55 33 l 1
 55 35 l 1
57 35 m 1
 56 35 l 1
 56 33 l 1
 58 33 l 1
 58 34 l 1
 57 34 l 1
 57 35 l 1
60 35 m 1
 58 35 l 1
 58 34 l 1
 59 34 l 1
 59 33 l 1
 60 33 l 1
 60 35 l 1
45 26 m 1
 44 26 l 1
 44 25 l 1
 46 25 l 1
 46 27 l 1
 45 27 l 1
 45 26 l 1
49 27 m 1
 47 27 l 1
 47 25 l 1
 49 25 l 1
 49 27 l 1
55 27 m 1
 53 27 l 1
 53 25 l 1
 55 25 l 1
 55 27 l 1
58 27 m 1
 56 27 l 1
 56 25 l 1
 57 25 l 1
 57 26 l 1
 58 26 l 1
 58 27 l 1
59 26 m 1
 58 26 l 1
 58 25 l 1
 60 25 l 1
 60 27 l 1
 59 27 l 1
 59 26 l 1
63 35 m 1
 61 35 l 1
 61 33 l 1
 63 33 l 1
 63 35 l 1
63 31 m 1
 61 31 l 1
 61 29 l 1
 63 29 l 1
 63 31 l 1
63 27 m 1
 61 27 l 1
 61 25 l 1
 63 25 l 1
 63 27 l 1
EndSplineSet
EndChar

StartChar: custom_3_9_0_1_4
Encoding: 31682 31682 11714
Width: 70
Flags: H
LayerCount: 2
Fore
SplineSet
31 43 m 1
 29 43 l 1
 29 41 l 1
 31 41 l 1
 31 43 l 1
31 39 m 1
 29 39 l 1
 29 37 l 1
 31 37 l 1
 31 39 l 1
36 37 m 1
 34 37 l 1
 34 35 l 1
 36 35 l 1
 36 37 l 1
41 43 m 1
 39 43 l 1
 39 41 l 1
 41 41 l 1
 41 43 l 1
44 43 m 1
 42 43 l 1
 42 41 l 1
 43 41 l 1
 43 42 l 1
 44 42 l 1
 44 43 l 1
31 35 m 1
 29 35 l 1
 29 33 l 1
 31 33 l 1
 31 35 l 1
36 33 m 1
 34 33 l 1
 34 31 l 1
 36 31 l 1
 36 33 l 1
31 31 m 1
 29 31 l 1
 29 29 l 1
 31 29 l 1
 31 31 l 1
41 35 m 1
 39 35 l 1
 39 33 l 1
 41 33 l 1
 41 35 l 1
43 35 m 1
 42 35 l 1
 42 33 l 1
 44 33 l 1
 44 34 l 1
 43 34 l 1
 43 35 l 1
31 27 m 1
 29 27 l 1
 29 25 l 1
 31 25 l 1
 31 27 l 1
41 27 m 1
 39 27 l 1
 39 25 l 1
 41 25 l 1
 41 27 l 1
44 27 m 1
 42 27 l 1
 42 25 l 1
 43 25 l 1
 43 26 l 1
 44 26 l 1
 44 27 l 1
45 42 m 1
 44 42 l 1
 44 41 l 1
 46 41 l 1
 46 43 l 1
 45 43 l 1
 45 42 l 1
49 43 m 1
 47 43 l 1
 47 41 l 1
 49 41 l 1
 49 43 l 1
49 39 m 1
 47 39 l 1
 47 37 l 1
 49 37 l 1
 49 39 l 1
55 43 m 1
 53 43 l 1
 53 41 l 1
 55 41 l 1
 55 43 l 1
58 43 m 1
 56 43 l 1
 56 41 l 1
 57 41 l 1
 57 42 l 1
 58 42 l 1
 58 43 l 1
59 42 m 1
 58 42 l 1
 58 41 l 1
 60 41 l 1
 60 43 l 1
 59 43 l 1
 59 42 l 1
55 39 m 1
 53 39 l 1
 53 37 l 1
 55 37 l 1
 55 39 l 1
63 43 m 1
 61 43 l 1
 61 41 l 1
 63 41 l 1
 63 43 l 1
63 39 m 1
 61 39 l 1
 61 37 l 1
 63 37 l 1
 63 39 l 1
46 35 m 1
 44 35 l 1
 44 34 l 1
 45 34 l 1
 45 33 l 1
 46 33 l 1
 46 35 l 1
49 35 m 1
 47 35 l 1
 47 33 l 1
 49 33 l 1
 49 35 l 1
49 31 m 1
 47 31 l 1
 47 29 l 1
 49 29 l 1
 49 31 l 1
55 35 m 1
 53 35 l 1
 53 33 l 1
 55 33 l 1
 55 35 l 1
57 35 m 1
 56 35 l 1
 56 33 l 1
 58 33 l 1
 58 34 l 1
 57 34 l 1
 57 35 l 1
60 35 m 1
 58 35 l 1
 58 34 l 1
 59 34 l 1
 59 33 l 1
 60 33 l 1
 60 35 l 1
45 26 m 1
 44 26 l 1
 44 25 l 1
 46 25 l 1
 46 27 l 1
 45 27 l 1
 45 26 l 1
49 27 m 1
 47 27 l 1
 47 25 l 1
 49 25 l 1
 49 27 l 1
55 27 m 1
 53 27 l 1
 53 25 l 1
 55 25 l 1
 55 27 l 1
58 27 m 1
 56 27 l 1
 56 25 l 1
 57 25 l 1
 57 26 l 1
 58 26 l 1
 58 27 l 1
59 26 m 1
 58 26 l 1
 58 25 l 1
 60 25 l 1
 60 27 l 1
 59 27 l 1
 59 26 l 1
63 35 m 1
 61 35 l 1
 61 33 l 1
 63 33 l 1
 63 35 l 1
63 31 m 1
 61 31 l 1
 61 29 l 1
 63 29 l 1
 63 31 l 1
63 27 m 1
 61 27 l 1
 61 25 l 1
 63 25 l 1
 63 27 l 1
EndSplineSet
EndChar

StartChar: custom_3_9_0_1_5
Encoding: 31683 31683 11715
Width: 70
Flags: H
LayerCount: 2
Fore
SplineSet
31 43 m 1
 29 43 l 1
 29 41 l 1
 31 41 l 1
 31 43 l 1
31 39 m 1
 29 39 l 1
 29 37 l 1
 31 37 l 1
 31 39 l 1
36 37 m 1
 34 37 l 1
 34 35 l 1
 36 35 l 1
 36 37 l 1
41 43 m 1
 39 43 l 1
 39 41 l 1
 41 41 l 1
 41 43 l 1
44 43 m 1
 42 43 l 1
 42 41 l 1
 43 41 l 1
 43 42 l 1
 44 42 l 1
 44 43 l 1
31 35 m 1
 29 35 l 1
 29 33 l 1
 31 33 l 1
 31 35 l 1
36 33 m 1
 34 33 l 1
 34 31 l 1
 36 31 l 1
 36 33 l 1
31 31 m 1
 29 31 l 1
 29 29 l 1
 31 29 l 1
 31 31 l 1
41 35 m 1
 39 35 l 1
 39 33 l 1
 41 33 l 1
 41 35 l 1
43 35 m 1
 42 35 l 1
 42 33 l 1
 44 33 l 1
 44 34 l 1
 43 34 l 1
 43 35 l 1
31 27 m 1
 29 27 l 1
 29 25 l 1
 31 25 l 1
 31 27 l 1
41 27 m 1
 39 27 l 1
 39 25 l 1
 41 25 l 1
 41 27 l 1
44 27 m 1
 42 27 l 1
 42 25 l 1
 43 25 l 1
 43 26 l 1
 44 26 l 1
 44 27 l 1
45 42 m 1
 44 42 l 1
 44 41 l 1
 46 41 l 1
 46 43 l 1
 45 43 l 1
 45 42 l 1
49 43 m 1
 47 43 l 1
 47 41 l 1
 49 41 l 1
 49 43 l 1
49 39 m 1
 47 39 l 1
 47 37 l 1
 49 37 l 1
 49 39 l 1
55 43 m 1
 53 43 l 1
 53 41 l 1
 55 41 l 1
 55 43 l 1
58 43 m 1
 56 43 l 1
 56 41 l 1
 57 41 l 1
 57 42 l 1
 58 42 l 1
 58 43 l 1
59 42 m 1
 58 42 l 1
 58 41 l 1
 60 41 l 1
 60 43 l 1
 59 43 l 1
 59 42 l 1
55 39 m 1
 53 39 l 1
 53 37 l 1
 55 37 l 1
 55 39 l 1
63 43 m 1
 61 43 l 1
 61 41 l 1
 63 41 l 1
 63 43 l 1
63 39 m 1
 61 39 l 1
 61 37 l 1
 63 37 l 1
 63 39 l 1
46 35 m 1
 44 35 l 1
 44 34 l 1
 45 34 l 1
 45 33 l 1
 46 33 l 1
 46 35 l 1
49 35 m 1
 47 35 l 1
 47 33 l 1
 49 33 l 1
 49 35 l 1
49 31 m 1
 47 31 l 1
 47 29 l 1
 49 29 l 1
 49 31 l 1
55 35 m 1
 53 35 l 1
 53 33 l 1
 55 33 l 1
 55 35 l 1
57 35 m 1
 56 35 l 1
 56 33 l 1
 58 33 l 1
 58 34 l 1
 57 34 l 1
 57 35 l 1
60 35 m 1
 58 35 l 1
 58 34 l 1
 59 34 l 1
 59 33 l 1
 60 33 l 1
 60 35 l 1
45 26 m 1
 44 26 l 1
 44 25 l 1
 46 25 l 1
 46 27 l 1
 45 27 l 1
 45 26 l 1
49 27 m 1
 47 27 l 1
 47 25 l 1
 49 25 l 1
 49 27 l 1
55 27 m 1
 53 27 l 1
 53 25 l 1
 55 25 l 1
 55 27 l 1
58 27 m 1
 56 27 l 1
 56 25 l 1
 57 25 l 1
 57 26 l 1
 58 26 l 1
 58 27 l 1
59 26 m 1
 58 26 l 1
 58 25 l 1
 60 25 l 1
 60 27 l 1
 59 27 l 1
 59 26 l 1
63 35 m 1
 61 35 l 1
 61 33 l 1
 63 33 l 1
 63 35 l 1
63 31 m 1
 61 31 l 1
 61 29 l 1
 63 29 l 1
 63 31 l 1
63 27 m 1
 61 27 l 1
 61 25 l 1
 63 25 l 1
 63 27 l 1
EndSplineSet
EndChar

StartChar: custom_3_9_0_1_6
Encoding: 31684 31684 11716
Width: 70
Flags: H
LayerCount: 2
Fore
SplineSet
31 43 m 1
 29 43 l 1
 29 41 l 1
 31 41 l 1
 31 43 l 1
31 39 m 1
 29 39 l 1
 29 37 l 1
 31 37 l 1
 31 39 l 1
36 37 m 1
 34 37 l 1
 34 35 l 1
 36 35 l 1
 36 37 l 1
41 43 m 1
 39 43 l 1
 39 41 l 1
 41 41 l 1
 41 43 l 1
44 43 m 1
 42 43 l 1
 42 41 l 1
 43 41 l 1
 43 42 l 1
 44 42 l 1
 44 43 l 1
31 35 m 1
 29 35 l 1
 29 33 l 1
 31 33 l 1
 31 35 l 1
36 33 m 1
 34 33 l 1
 34 31 l 1
 36 31 l 1
 36 33 l 1
31 31 m 1
 29 31 l 1
 29 29 l 1
 31 29 l 1
 31 31 l 1
41 35 m 1
 39 35 l 1
 39 33 l 1
 41 33 l 1
 41 35 l 1
43 35 m 1
 42 35 l 1
 42 33 l 1
 44 33 l 1
 44 34 l 1
 43 34 l 1
 43 35 l 1
31 27 m 1
 29 27 l 1
 29 25 l 1
 31 25 l 1
 31 27 l 1
41 27 m 1
 39 27 l 1
 39 25 l 1
 41 25 l 1
 41 27 l 1
44 27 m 1
 42 27 l 1
 42 25 l 1
 43 25 l 1
 43 26 l 1
 44 26 l 1
 44 27 l 1
45 42 m 1
 44 42 l 1
 44 41 l 1
 46 41 l 1
 46 43 l 1
 45 43 l 1
 45 42 l 1
49 43 m 1
 47 43 l 1
 47 41 l 1
 49 41 l 1
 49 43 l 1
49 39 m 1
 47 39 l 1
 47 37 l 1
 49 37 l 1
 49 39 l 1
55 43 m 1
 53 43 l 1
 53 41 l 1
 55 41 l 1
 55 43 l 1
58 43 m 1
 56 43 l 1
 56 41 l 1
 57 41 l 1
 57 42 l 1
 58 42 l 1
 58 43 l 1
59 42 m 1
 58 42 l 1
 58 41 l 1
 60 41 l 1
 60 43 l 1
 59 43 l 1
 59 42 l 1
55 39 m 1
 53 39 l 1
 53 37 l 1
 55 37 l 1
 55 39 l 1
63 43 m 1
 61 43 l 1
 61 41 l 1
 63 41 l 1
 63 43 l 1
63 39 m 1
 61 39 l 1
 61 37 l 1
 63 37 l 1
 63 39 l 1
46 35 m 1
 44 35 l 1
 44 34 l 1
 45 34 l 1
 45 33 l 1
 46 33 l 1
 46 35 l 1
49 35 m 1
 47 35 l 1
 47 33 l 1
 49 33 l 1
 49 35 l 1
49 31 m 1
 47 31 l 1
 47 29 l 1
 49 29 l 1
 49 31 l 1
55 35 m 1
 53 35 l 1
 53 33 l 1
 55 33 l 1
 55 35 l 1
57 35 m 1
 56 35 l 1
 56 33 l 1
 58 33 l 1
 58 34 l 1
 57 34 l 1
 57 35 l 1
60 35 m 1
 58 35 l 1
 58 34 l 1
 59 34 l 1
 59 33 l 1
 60 33 l 1
 60 35 l 1
45 26 m 1
 44 26 l 1
 44 25 l 1
 46 25 l 1
 46 27 l 1
 45 27 l 1
 45 26 l 1
49 27 m 1
 47 27 l 1
 47 25 l 1
 49 25 l 1
 49 27 l 1
55 27 m 1
 53 27 l 1
 53 25 l 1
 55 25 l 1
 55 27 l 1
58 27 m 1
 56 27 l 1
 56 25 l 1
 57 25 l 1
 57 26 l 1
 58 26 l 1
 58 27 l 1
59 26 m 1
 58 26 l 1
 58 25 l 1
 60 25 l 1
 60 27 l 1
 59 27 l 1
 59 26 l 1
63 35 m 1
 61 35 l 1
 61 33 l 1
 63 33 l 1
 63 35 l 1
63 31 m 1
 61 31 l 1
 61 29 l 1
 63 29 l 1
 63 31 l 1
63 27 m 1
 61 27 l 1
 61 25 l 1
 63 25 l 1
 63 27 l 1
EndSplineSet
EndChar

StartChar: custom_3_9_0_1_7
Encoding: 31685 31685 11717
Width: 70
Flags: H
LayerCount: 2
Fore
SplineSet
31 43 m 1
 29 43 l 1
 29 41 l 1
 31 41 l 1
 31 43 l 1
31 39 m 1
 29 39 l 1
 29 37 l 1
 31 37 l 1
 31 39 l 1
36 37 m 1
 34 37 l 1
 34 35 l 1
 36 35 l 1
 36 37 l 1
41 43 m 1
 39 43 l 1
 39 41 l 1
 41 41 l 1
 41 43 l 1
44 43 m 1
 42 43 l 1
 42 41 l 1
 43 41 l 1
 43 42 l 1
 44 42 l 1
 44 43 l 1
31 35 m 1
 29 35 l 1
 29 33 l 1
 31 33 l 1
 31 35 l 1
36 33 m 1
 34 33 l 1
 34 31 l 1
 36 31 l 1
 36 33 l 1
31 31 m 1
 29 31 l 1
 29 29 l 1
 31 29 l 1
 31 31 l 1
41 35 m 1
 39 35 l 1
 39 33 l 1
 41 33 l 1
 41 35 l 1
43 35 m 1
 42 35 l 1
 42 33 l 1
 44 33 l 1
 44 34 l 1
 43 34 l 1
 43 35 l 1
31 27 m 1
 29 27 l 1
 29 25 l 1
 31 25 l 1
 31 27 l 1
41 27 m 1
 39 27 l 1
 39 25 l 1
 41 25 l 1
 41 27 l 1
44 27 m 1
 42 27 l 1
 42 25 l 1
 43 25 l 1
 43 26 l 1
 44 26 l 1
 44 27 l 1
45 42 m 1
 44 42 l 1
 44 41 l 1
 46 41 l 1
 46 43 l 1
 45 43 l 1
 45 42 l 1
49 43 m 1
 47 43 l 1
 47 41 l 1
 49 41 l 1
 49 43 l 1
49 39 m 1
 47 39 l 1
 47 37 l 1
 49 37 l 1
 49 39 l 1
55 43 m 1
 53 43 l 1
 53 41 l 1
 55 41 l 1
 55 43 l 1
58 43 m 1
 56 43 l 1
 56 41 l 1
 57 41 l 1
 57 42 l 1
 58 42 l 1
 58 43 l 1
59 42 m 1
 58 42 l 1
 58 41 l 1
 60 41 l 1
 60 43 l 1
 59 43 l 1
 59 42 l 1
55 39 m 1
 53 39 l 1
 53 37 l 1
 55 37 l 1
 55 39 l 1
63 43 m 1
 61 43 l 1
 61 41 l 1
 63 41 l 1
 63 43 l 1
63 39 m 1
 61 39 l 1
 61 37 l 1
 63 37 l 1
 63 39 l 1
46 35 m 1
 44 35 l 1
 44 34 l 1
 45 34 l 1
 45 33 l 1
 46 33 l 1
 46 35 l 1
49 35 m 1
 47 35 l 1
 47 33 l 1
 49 33 l 1
 49 35 l 1
49 31 m 1
 47 31 l 1
 47 29 l 1
 49 29 l 1
 49 31 l 1
55 35 m 1
 53 35 l 1
 53 33 l 1
 55 33 l 1
 55 35 l 1
57 35 m 1
 56 35 l 1
 56 33 l 1
 58 33 l 1
 58 34 l 1
 57 34 l 1
 57 35 l 1
60 35 m 1
 58 35 l 1
 58 34 l 1
 59 34 l 1
 59 33 l 1
 60 33 l 1
 60 35 l 1
45 26 m 1
 44 26 l 1
 44 25 l 1
 46 25 l 1
 46 27 l 1
 45 27 l 1
 45 26 l 1
49 27 m 1
 47 27 l 1
 47 25 l 1
 49 25 l 1
 49 27 l 1
55 27 m 1
 53 27 l 1
 53 25 l 1
 55 25 l 1
 55 27 l 1
58 27 m 1
 56 27 l 1
 56 25 l 1
 57 25 l 1
 57 26 l 1
 58 26 l 1
 58 27 l 1
59 26 m 1
 58 26 l 1
 58 25 l 1
 60 25 l 1
 60 27 l 1
 59 27 l 1
 59 26 l 1
63 35 m 1
 61 35 l 1
 61 33 l 1
 63 33 l 1
 63 35 l 1
63 31 m 1
 61 31 l 1
 61 29 l 1
 63 29 l 1
 63 31 l 1
63 27 m 1
 61 27 l 1
 61 25 l 1
 63 25 l 1
 63 27 l 1
EndSplineSet
EndChar

StartChar: custom_3_9_0_1_8
Encoding: 31686 31686 11718
Width: 70
Flags: H
LayerCount: 2
Fore
SplineSet
31 43 m 1
 29 43 l 1
 29 41 l 1
 31 41 l 1
 31 43 l 1
31 39 m 1
 29 39 l 1
 29 37 l 1
 31 37 l 1
 31 39 l 1
36 37 m 1
 34 37 l 1
 34 35 l 1
 36 35 l 1
 36 37 l 1
41 43 m 1
 39 43 l 1
 39 41 l 1
 41 41 l 1
 41 43 l 1
44 43 m 1
 42 43 l 1
 42 41 l 1
 43 41 l 1
 43 42 l 1
 44 42 l 1
 44 43 l 1
31 35 m 1
 29 35 l 1
 29 33 l 1
 31 33 l 1
 31 35 l 1
36 33 m 1
 34 33 l 1
 34 31 l 1
 36 31 l 1
 36 33 l 1
31 31 m 1
 29 31 l 1
 29 29 l 1
 31 29 l 1
 31 31 l 1
41 35 m 1
 39 35 l 1
 39 33 l 1
 41 33 l 1
 41 35 l 1
43 35 m 1
 42 35 l 1
 42 33 l 1
 44 33 l 1
 44 34 l 1
 43 34 l 1
 43 35 l 1
31 27 m 1
 29 27 l 1
 29 25 l 1
 31 25 l 1
 31 27 l 1
41 27 m 1
 39 27 l 1
 39 25 l 1
 41 25 l 1
 41 27 l 1
44 27 m 1
 42 27 l 1
 42 25 l 1
 43 25 l 1
 43 26 l 1
 44 26 l 1
 44 27 l 1
45 42 m 1
 44 42 l 1
 44 41 l 1
 46 41 l 1
 46 43 l 1
 45 43 l 1
 45 42 l 1
49 43 m 1
 47 43 l 1
 47 41 l 1
 49 41 l 1
 49 43 l 1
49 39 m 1
 47 39 l 1
 47 37 l 1
 49 37 l 1
 49 39 l 1
55 43 m 1
 53 43 l 1
 53 41 l 1
 55 41 l 1
 55 43 l 1
58 43 m 1
 56 43 l 1
 56 41 l 1
 57 41 l 1
 57 42 l 1
 58 42 l 1
 58 43 l 1
59 42 m 1
 58 42 l 1
 58 41 l 1
 60 41 l 1
 60 43 l 1
 59 43 l 1
 59 42 l 1
55 39 m 1
 53 39 l 1
 53 37 l 1
 55 37 l 1
 55 39 l 1
63 43 m 1
 61 43 l 1
 61 41 l 1
 63 41 l 1
 63 43 l 1
63 39 m 1
 61 39 l 1
 61 37 l 1
 63 37 l 1
 63 39 l 1
46 35 m 1
 44 35 l 1
 44 34 l 1
 45 34 l 1
 45 33 l 1
 46 33 l 1
 46 35 l 1
49 35 m 1
 47 35 l 1
 47 33 l 1
 49 33 l 1
 49 35 l 1
49 31 m 1
 47 31 l 1
 47 29 l 1
 49 29 l 1
 49 31 l 1
55 35 m 1
 53 35 l 1
 53 33 l 1
 55 33 l 1
 55 35 l 1
57 35 m 1
 56 35 l 1
 56 33 l 1
 58 33 l 1
 58 34 l 1
 57 34 l 1
 57 35 l 1
60 35 m 1
 58 35 l 1
 58 34 l 1
 59 34 l 1
 59 33 l 1
 60 33 l 1
 60 35 l 1
45 26 m 1
 44 26 l 1
 44 25 l 1
 46 25 l 1
 46 27 l 1
 45 27 l 1
 45 26 l 1
49 27 m 1
 47 27 l 1
 47 25 l 1
 49 25 l 1
 49 27 l 1
55 27 m 1
 53 27 l 1
 53 25 l 1
 55 25 l 1
 55 27 l 1
58 27 m 1
 56 27 l 1
 56 25 l 1
 57 25 l 1
 57 26 l 1
 58 26 l 1
 58 27 l 1
59 26 m 1
 58 26 l 1
 58 25 l 1
 60 25 l 1
 60 27 l 1
 59 27 l 1
 59 26 l 1
63 35 m 1
 61 35 l 1
 61 33 l 1
 63 33 l 1
 63 35 l 1
63 31 m 1
 61 31 l 1
 61 29 l 1
 63 29 l 1
 63 31 l 1
63 27 m 1
 61 27 l 1
 61 25 l 1
 63 25 l 1
 63 27 l 1
EndSplineSet
EndChar

StartChar: custom_3_9_0_1_9
Encoding: 31687 31687 11719
Width: 70
Flags: H
LayerCount: 2
Fore
SplineSet
31 43 m 1
 29 43 l 1
 29 41 l 1
 31 41 l 1
 31 43 l 1
31 39 m 1
 29 39 l 1
 29 37 l 1
 31 37 l 1
 31 39 l 1
36 37 m 1
 34 37 l 1
 34 35 l 1
 36 35 l 1
 36 37 l 1
41 43 m 1
 39 43 l 1
 39 41 l 1
 41 41 l 1
 41 43 l 1
44 43 m 1
 42 43 l 1
 42 41 l 1
 43 41 l 1
 43 42 l 1
 44 42 l 1
 44 43 l 1
31 35 m 1
 29 35 l 1
 29 33 l 1
 31 33 l 1
 31 35 l 1
36 33 m 1
 34 33 l 1
 34 31 l 1
 36 31 l 1
 36 33 l 1
31 31 m 1
 29 31 l 1
 29 29 l 1
 31 29 l 1
 31 31 l 1
41 35 m 1
 39 35 l 1
 39 33 l 1
 41 33 l 1
 41 35 l 1
43 35 m 1
 42 35 l 1
 42 33 l 1
 44 33 l 1
 44 34 l 1
 43 34 l 1
 43 35 l 1
31 27 m 1
 29 27 l 1
 29 25 l 1
 31 25 l 1
 31 27 l 1
41 27 m 1
 39 27 l 1
 39 25 l 1
 41 25 l 1
 41 27 l 1
44 27 m 1
 42 27 l 1
 42 25 l 1
 43 25 l 1
 43 26 l 1
 44 26 l 1
 44 27 l 1
45 42 m 1
 44 42 l 1
 44 41 l 1
 46 41 l 1
 46 43 l 1
 45 43 l 1
 45 42 l 1
49 43 m 1
 47 43 l 1
 47 41 l 1
 49 41 l 1
 49 43 l 1
49 39 m 1
 47 39 l 1
 47 37 l 1
 49 37 l 1
 49 39 l 1
55 43 m 1
 53 43 l 1
 53 41 l 1
 55 41 l 1
 55 43 l 1
58 43 m 1
 56 43 l 1
 56 41 l 1
 57 41 l 1
 57 42 l 1
 58 42 l 1
 58 43 l 1
59 42 m 1
 58 42 l 1
 58 41 l 1
 60 41 l 1
 60 43 l 1
 59 43 l 1
 59 42 l 1
55 39 m 1
 53 39 l 1
 53 37 l 1
 55 37 l 1
 55 39 l 1
63 43 m 1
 61 43 l 1
 61 41 l 1
 63 41 l 1
 63 43 l 1
63 39 m 1
 61 39 l 1
 61 37 l 1
 63 37 l 1
 63 39 l 1
46 35 m 1
 44 35 l 1
 44 34 l 1
 45 34 l 1
 45 33 l 1
 46 33 l 1
 46 35 l 1
49 35 m 1
 47 35 l 1
 47 33 l 1
 49 33 l 1
 49 35 l 1
49 31 m 1
 47 31 l 1
 47 29 l 1
 49 29 l 1
 49 31 l 1
55 35 m 1
 53 35 l 1
 53 33 l 1
 55 33 l 1
 55 35 l 1
57 35 m 1
 56 35 l 1
 56 33 l 1
 58 33 l 1
 58 34 l 1
 57 34 l 1
 57 35 l 1
60 35 m 1
 58 35 l 1
 58 34 l 1
 59 34 l 1
 59 33 l 1
 60 33 l 1
 60 35 l 1
45 26 m 1
 44 26 l 1
 44 25 l 1
 46 25 l 1
 46 27 l 1
 45 27 l 1
 45 26 l 1
49 27 m 1
 47 27 l 1
 47 25 l 1
 49 25 l 1
 49 27 l 1
55 27 m 1
 53 27 l 1
 53 25 l 1
 55 25 l 1
 55 27 l 1
58 27 m 1
 56 27 l 1
 56 25 l 1
 57 25 l 1
 57 26 l 1
 58 26 l 1
 58 27 l 1
59 26 m 1
 58 26 l 1
 58 25 l 1
 60 25 l 1
 60 27 l 1
 59 27 l 1
 59 26 l 1
63 35 m 1
 61 35 l 1
 61 33 l 1
 63 33 l 1
 63 35 l 1
63 31 m 1
 61 31 l 1
 61 29 l 1
 63 29 l 1
 63 31 l 1
63 27 m 1
 61 27 l 1
 61 25 l 1
 63 25 l 1
 63 27 l 1
EndSplineSet
EndChar

StartChar: custom_3_9_0_2_0
Encoding: 31688 31688 11720
Width: 70
Flags: H
LayerCount: 2
Fore
SplineSet
31 43 m 1
 29 43 l 1
 29 41 l 1
 31 41 l 1
 31 43 l 1
31 39 m 1
 29 39 l 1
 29 37 l 1
 31 37 l 1
 31 39 l 1
36 37 m 1
 34 37 l 1
 34 35 l 1
 36 35 l 1
 36 37 l 1
41 43 m 1
 39 43 l 1
 39 41 l 1
 41 41 l 1
 41 43 l 1
44 43 m 1
 42 43 l 1
 42 41 l 1
 43 41 l 1
 43 42 l 1
 44 42 l 1
 44 43 l 1
31 35 m 1
 29 35 l 1
 29 33 l 1
 31 33 l 1
 31 35 l 1
36 33 m 1
 34 33 l 1
 34 31 l 1
 36 31 l 1
 36 33 l 1
31 31 m 1
 29 31 l 1
 29 29 l 1
 31 29 l 1
 31 31 l 1
41 35 m 1
 39 35 l 1
 39 33 l 1
 41 33 l 1
 41 35 l 1
43 35 m 1
 42 35 l 1
 42 33 l 1
 44 33 l 1
 44 34 l 1
 43 34 l 1
 43 35 l 1
31 27 m 1
 29 27 l 1
 29 25 l 1
 31 25 l 1
 31 27 l 1
41 27 m 1
 39 27 l 1
 39 25 l 1
 41 25 l 1
 41 27 l 1
44 27 m 1
 42 27 l 1
 42 25 l 1
 43 25 l 1
 43 26 l 1
 44 26 l 1
 44 27 l 1
45 42 m 1
 44 42 l 1
 44 41 l 1
 46 41 l 1
 46 43 l 1
 45 43 l 1
 45 42 l 1
49 43 m 1
 47 43 l 1
 47 41 l 1
 49 41 l 1
 49 43 l 1
49 39 m 1
 47 39 l 1
 47 37 l 1
 49 37 l 1
 49 39 l 1
55 43 m 1
 53 43 l 1
 53 41 l 1
 55 41 l 1
 55 43 l 1
58 43 m 1
 56 43 l 1
 56 41 l 1
 57 41 l 1
 57 42 l 1
 58 42 l 1
 58 43 l 1
59 42 m 1
 58 42 l 1
 58 41 l 1
 60 41 l 1
 60 43 l 1
 59 43 l 1
 59 42 l 1
55 39 m 1
 53 39 l 1
 53 37 l 1
 55 37 l 1
 55 39 l 1
63 43 m 1
 61 43 l 1
 61 41 l 1
 63 41 l 1
 63 43 l 1
63 39 m 1
 61 39 l 1
 61 37 l 1
 63 37 l 1
 63 39 l 1
46 35 m 1
 44 35 l 1
 44 34 l 1
 45 34 l 1
 45 33 l 1
 46 33 l 1
 46 35 l 1
49 35 m 1
 47 35 l 1
 47 33 l 1
 49 33 l 1
 49 35 l 1
49 31 m 1
 47 31 l 1
 47 29 l 1
 49 29 l 1
 49 31 l 1
55 35 m 1
 53 35 l 1
 53 33 l 1
 55 33 l 1
 55 35 l 1
57 35 m 1
 56 35 l 1
 56 33 l 1
 58 33 l 1
 58 34 l 1
 57 34 l 1
 57 35 l 1
60 35 m 1
 58 35 l 1
 58 34 l 1
 59 34 l 1
 59 33 l 1
 60 33 l 1
 60 35 l 1
45 26 m 1
 44 26 l 1
 44 25 l 1
 46 25 l 1
 46 27 l 1
 45 27 l 1
 45 26 l 1
49 27 m 1
 47 27 l 1
 47 25 l 1
 49 25 l 1
 49 27 l 1
55 27 m 1
 53 27 l 1
 53 25 l 1
 55 25 l 1
 55 27 l 1
58 27 m 1
 56 27 l 1
 56 25 l 1
 57 25 l 1
 57 26 l 1
 58 26 l 1
 58 27 l 1
59 26 m 1
 58 26 l 1
 58 25 l 1
 60 25 l 1
 60 27 l 1
 59 27 l 1
 59 26 l 1
63 35 m 1
 61 35 l 1
 61 33 l 1
 63 33 l 1
 63 35 l 1
63 31 m 1
 61 31 l 1
 61 29 l 1
 63 29 l 1
 63 31 l 1
63 27 m 1
 61 27 l 1
 61 25 l 1
 63 25 l 1
 63 27 l 1
EndSplineSet
EndChar

StartChar: custom_3_9_0_2_1
Encoding: 31689 31689 11721
Width: 70
Flags: H
LayerCount: 2
Fore
SplineSet
31 43 m 1
 29 43 l 1
 29 41 l 1
 31 41 l 1
 31 43 l 1
31 39 m 1
 29 39 l 1
 29 37 l 1
 31 37 l 1
 31 39 l 1
36 37 m 1
 34 37 l 1
 34 35 l 1
 36 35 l 1
 36 37 l 1
41 43 m 1
 39 43 l 1
 39 41 l 1
 41 41 l 1
 41 43 l 1
44 43 m 1
 42 43 l 1
 42 41 l 1
 43 41 l 1
 43 42 l 1
 44 42 l 1
 44 43 l 1
31 35 m 1
 29 35 l 1
 29 33 l 1
 31 33 l 1
 31 35 l 1
36 33 m 1
 34 33 l 1
 34 31 l 1
 36 31 l 1
 36 33 l 1
31 31 m 1
 29 31 l 1
 29 29 l 1
 31 29 l 1
 31 31 l 1
41 35 m 1
 39 35 l 1
 39 33 l 1
 41 33 l 1
 41 35 l 1
43 35 m 1
 42 35 l 1
 42 33 l 1
 44 33 l 1
 44 34 l 1
 43 34 l 1
 43 35 l 1
31 27 m 1
 29 27 l 1
 29 25 l 1
 31 25 l 1
 31 27 l 1
41 27 m 1
 39 27 l 1
 39 25 l 1
 41 25 l 1
 41 27 l 1
44 27 m 1
 42 27 l 1
 42 25 l 1
 43 25 l 1
 43 26 l 1
 44 26 l 1
 44 27 l 1
45 42 m 1
 44 42 l 1
 44 41 l 1
 46 41 l 1
 46 43 l 1
 45 43 l 1
 45 42 l 1
49 43 m 1
 47 43 l 1
 47 41 l 1
 49 41 l 1
 49 43 l 1
49 39 m 1
 47 39 l 1
 47 37 l 1
 49 37 l 1
 49 39 l 1
55 43 m 1
 53 43 l 1
 53 41 l 1
 55 41 l 1
 55 43 l 1
58 43 m 1
 56 43 l 1
 56 41 l 1
 57 41 l 1
 57 42 l 1
 58 42 l 1
 58 43 l 1
59 42 m 1
 58 42 l 1
 58 41 l 1
 60 41 l 1
 60 43 l 1
 59 43 l 1
 59 42 l 1
55 39 m 1
 53 39 l 1
 53 37 l 1
 55 37 l 1
 55 39 l 1
63 43 m 1
 61 43 l 1
 61 41 l 1
 63 41 l 1
 63 43 l 1
63 39 m 1
 61 39 l 1
 61 37 l 1
 63 37 l 1
 63 39 l 1
46 35 m 1
 44 35 l 1
 44 34 l 1
 45 34 l 1
 45 33 l 1
 46 33 l 1
 46 35 l 1
49 35 m 1
 47 35 l 1
 47 33 l 1
 49 33 l 1
 49 35 l 1
49 31 m 1
 47 31 l 1
 47 29 l 1
 49 29 l 1
 49 31 l 1
55 35 m 1
 53 35 l 1
 53 33 l 1
 55 33 l 1
 55 35 l 1
57 35 m 1
 56 35 l 1
 56 33 l 1
 58 33 l 1
 58 34 l 1
 57 34 l 1
 57 35 l 1
60 35 m 1
 58 35 l 1
 58 34 l 1
 59 34 l 1
 59 33 l 1
 60 33 l 1
 60 35 l 1
45 26 m 1
 44 26 l 1
 44 25 l 1
 46 25 l 1
 46 27 l 1
 45 27 l 1
 45 26 l 1
49 27 m 1
 47 27 l 1
 47 25 l 1
 49 25 l 1
 49 27 l 1
55 27 m 1
 53 27 l 1
 53 25 l 1
 55 25 l 1
 55 27 l 1
58 27 m 1
 56 27 l 1
 56 25 l 1
 57 25 l 1
 57 26 l 1
 58 26 l 1
 58 27 l 1
59 26 m 1
 58 26 l 1
 58 25 l 1
 60 25 l 1
 60 27 l 1
 59 27 l 1
 59 26 l 1
63 35 m 1
 61 35 l 1
 61 33 l 1
 63 33 l 1
 63 35 l 1
63 31 m 1
 61 31 l 1
 61 29 l 1
 63 29 l 1
 63 31 l 1
63 27 m 1
 61 27 l 1
 61 25 l 1
 63 25 l 1
 63 27 l 1
EndSplineSet
EndChar

StartChar: custom_3_9_0_2_2
Encoding: 31690 31690 11722
Width: 70
Flags: H
LayerCount: 2
Fore
SplineSet
31 43 m 1
 29 43 l 1
 29 41 l 1
 31 41 l 1
 31 43 l 1
31 39 m 1
 29 39 l 1
 29 37 l 1
 31 37 l 1
 31 39 l 1
36 37 m 1
 34 37 l 1
 34 35 l 1
 36 35 l 1
 36 37 l 1
41 43 m 1
 39 43 l 1
 39 41 l 1
 41 41 l 1
 41 43 l 1
44 43 m 1
 42 43 l 1
 42 41 l 1
 43 41 l 1
 43 42 l 1
 44 42 l 1
 44 43 l 1
31 35 m 1
 29 35 l 1
 29 33 l 1
 31 33 l 1
 31 35 l 1
36 33 m 1
 34 33 l 1
 34 31 l 1
 36 31 l 1
 36 33 l 1
31 31 m 1
 29 31 l 1
 29 29 l 1
 31 29 l 1
 31 31 l 1
41 35 m 1
 39 35 l 1
 39 33 l 1
 41 33 l 1
 41 35 l 1
43 35 m 1
 42 35 l 1
 42 33 l 1
 44 33 l 1
 44 34 l 1
 43 34 l 1
 43 35 l 1
31 27 m 1
 29 27 l 1
 29 25 l 1
 31 25 l 1
 31 27 l 1
41 27 m 1
 39 27 l 1
 39 25 l 1
 41 25 l 1
 41 27 l 1
44 27 m 1
 42 27 l 1
 42 25 l 1
 43 25 l 1
 43 26 l 1
 44 26 l 1
 44 27 l 1
45 42 m 1
 44 42 l 1
 44 41 l 1
 46 41 l 1
 46 43 l 1
 45 43 l 1
 45 42 l 1
49 43 m 1
 47 43 l 1
 47 41 l 1
 49 41 l 1
 49 43 l 1
49 39 m 1
 47 39 l 1
 47 37 l 1
 49 37 l 1
 49 39 l 1
55 43 m 1
 53 43 l 1
 53 41 l 1
 55 41 l 1
 55 43 l 1
58 43 m 1
 56 43 l 1
 56 41 l 1
 57 41 l 1
 57 42 l 1
 58 42 l 1
 58 43 l 1
59 42 m 1
 58 42 l 1
 58 41 l 1
 60 41 l 1
 60 43 l 1
 59 43 l 1
 59 42 l 1
55 39 m 1
 53 39 l 1
 53 37 l 1
 55 37 l 1
 55 39 l 1
63 43 m 1
 61 43 l 1
 61 41 l 1
 63 41 l 1
 63 43 l 1
63 39 m 1
 61 39 l 1
 61 37 l 1
 63 37 l 1
 63 39 l 1
46 35 m 1
 44 35 l 1
 44 34 l 1
 45 34 l 1
 45 33 l 1
 46 33 l 1
 46 35 l 1
49 35 m 1
 47 35 l 1
 47 33 l 1
 49 33 l 1
 49 35 l 1
49 31 m 1
 47 31 l 1
 47 29 l 1
 49 29 l 1
 49 31 l 1
55 35 m 1
 53 35 l 1
 53 33 l 1
 55 33 l 1
 55 35 l 1
57 35 m 1
 56 35 l 1
 56 33 l 1
 58 33 l 1
 58 34 l 1
 57 34 l 1
 57 35 l 1
60 35 m 1
 58 35 l 1
 58 34 l 1
 59 34 l 1
 59 33 l 1
 60 33 l 1
 60 35 l 1
45 26 m 1
 44 26 l 1
 44 25 l 1
 46 25 l 1
 46 27 l 1
 45 27 l 1
 45 26 l 1
49 27 m 1
 47 27 l 1
 47 25 l 1
 49 25 l 1
 49 27 l 1
55 27 m 1
 53 27 l 1
 53 25 l 1
 55 25 l 1
 55 27 l 1
58 27 m 1
 56 27 l 1
 56 25 l 1
 57 25 l 1
 57 26 l 1
 58 26 l 1
 58 27 l 1
59 26 m 1
 58 26 l 1
 58 25 l 1
 60 25 l 1
 60 27 l 1
 59 27 l 1
 59 26 l 1
63 35 m 1
 61 35 l 1
 61 33 l 1
 63 33 l 1
 63 35 l 1
63 31 m 1
 61 31 l 1
 61 29 l 1
 63 29 l 1
 63 31 l 1
63 27 m 1
 61 27 l 1
 61 25 l 1
 63 25 l 1
 63 27 l 1
EndSplineSet
EndChar

StartChar: custom_3_9_0_2_3
Encoding: 31691 31691 11723
Width: 70
Flags: H
LayerCount: 2
Fore
SplineSet
31 43 m 1
 29 43 l 1
 29 41 l 1
 31 41 l 1
 31 43 l 1
31 39 m 1
 29 39 l 1
 29 37 l 1
 31 37 l 1
 31 39 l 1
36 37 m 1
 34 37 l 1
 34 35 l 1
 36 35 l 1
 36 37 l 1
41 43 m 1
 39 43 l 1
 39 41 l 1
 41 41 l 1
 41 43 l 1
44 43 m 1
 42 43 l 1
 42 41 l 1
 43 41 l 1
 43 42 l 1
 44 42 l 1
 44 43 l 1
31 35 m 1
 29 35 l 1
 29 33 l 1
 31 33 l 1
 31 35 l 1
36 33 m 1
 34 33 l 1
 34 31 l 1
 36 31 l 1
 36 33 l 1
31 31 m 1
 29 31 l 1
 29 29 l 1
 31 29 l 1
 31 31 l 1
41 35 m 1
 39 35 l 1
 39 33 l 1
 41 33 l 1
 41 35 l 1
43 35 m 1
 42 35 l 1
 42 33 l 1
 44 33 l 1
 44 34 l 1
 43 34 l 1
 43 35 l 1
31 27 m 1
 29 27 l 1
 29 25 l 1
 31 25 l 1
 31 27 l 1
41 27 m 1
 39 27 l 1
 39 25 l 1
 41 25 l 1
 41 27 l 1
44 27 m 1
 42 27 l 1
 42 25 l 1
 43 25 l 1
 43 26 l 1
 44 26 l 1
 44 27 l 1
45 42 m 1
 44 42 l 1
 44 41 l 1
 46 41 l 1
 46 43 l 1
 45 43 l 1
 45 42 l 1
49 43 m 1
 47 43 l 1
 47 41 l 1
 49 41 l 1
 49 43 l 1
49 39 m 1
 47 39 l 1
 47 37 l 1
 49 37 l 1
 49 39 l 1
55 43 m 1
 53 43 l 1
 53 41 l 1
 55 41 l 1
 55 43 l 1
58 43 m 1
 56 43 l 1
 56 41 l 1
 57 41 l 1
 57 42 l 1
 58 42 l 1
 58 43 l 1
59 42 m 1
 58 42 l 1
 58 41 l 1
 60 41 l 1
 60 43 l 1
 59 43 l 1
 59 42 l 1
55 39 m 1
 53 39 l 1
 53 37 l 1
 55 37 l 1
 55 39 l 1
63 43 m 1
 61 43 l 1
 61 41 l 1
 63 41 l 1
 63 43 l 1
63 39 m 1
 61 39 l 1
 61 37 l 1
 63 37 l 1
 63 39 l 1
46 35 m 1
 44 35 l 1
 44 34 l 1
 45 34 l 1
 45 33 l 1
 46 33 l 1
 46 35 l 1
49 35 m 1
 47 35 l 1
 47 33 l 1
 49 33 l 1
 49 35 l 1
49 31 m 1
 47 31 l 1
 47 29 l 1
 49 29 l 1
 49 31 l 1
55 35 m 1
 53 35 l 1
 53 33 l 1
 55 33 l 1
 55 35 l 1
57 35 m 1
 56 35 l 1
 56 33 l 1
 58 33 l 1
 58 34 l 1
 57 34 l 1
 57 35 l 1
60 35 m 1
 58 35 l 1
 58 34 l 1
 59 34 l 1
 59 33 l 1
 60 33 l 1
 60 35 l 1
45 26 m 1
 44 26 l 1
 44 25 l 1
 46 25 l 1
 46 27 l 1
 45 27 l 1
 45 26 l 1
49 27 m 1
 47 27 l 1
 47 25 l 1
 49 25 l 1
 49 27 l 1
55 27 m 1
 53 27 l 1
 53 25 l 1
 55 25 l 1
 55 27 l 1
58 27 m 1
 56 27 l 1
 56 25 l 1
 57 25 l 1
 57 26 l 1
 58 26 l 1
 58 27 l 1
59 26 m 1
 58 26 l 1
 58 25 l 1
 60 25 l 1
 60 27 l 1
 59 27 l 1
 59 26 l 1
63 35 m 1
 61 35 l 1
 61 33 l 1
 63 33 l 1
 63 35 l 1
63 31 m 1
 61 31 l 1
 61 29 l 1
 63 29 l 1
 63 31 l 1
63 27 m 1
 61 27 l 1
 61 25 l 1
 63 25 l 1
 63 27 l 1
EndSplineSet
EndChar

StartChar: custom_3_9_0_2_4
Encoding: 31692 31692 11724
Width: 70
Flags: H
LayerCount: 2
Fore
SplineSet
31 43 m 1
 29 43 l 1
 29 41 l 1
 31 41 l 1
 31 43 l 1
31 39 m 1
 29 39 l 1
 29 37 l 1
 31 37 l 1
 31 39 l 1
36 37 m 1
 34 37 l 1
 34 35 l 1
 36 35 l 1
 36 37 l 1
41 43 m 1
 39 43 l 1
 39 41 l 1
 41 41 l 1
 41 43 l 1
44 43 m 1
 42 43 l 1
 42 41 l 1
 43 41 l 1
 43 42 l 1
 44 42 l 1
 44 43 l 1
31 35 m 1
 29 35 l 1
 29 33 l 1
 31 33 l 1
 31 35 l 1
36 33 m 1
 34 33 l 1
 34 31 l 1
 36 31 l 1
 36 33 l 1
31 31 m 1
 29 31 l 1
 29 29 l 1
 31 29 l 1
 31 31 l 1
41 35 m 1
 39 35 l 1
 39 33 l 1
 41 33 l 1
 41 35 l 1
43 35 m 1
 42 35 l 1
 42 33 l 1
 44 33 l 1
 44 34 l 1
 43 34 l 1
 43 35 l 1
31 27 m 1
 29 27 l 1
 29 25 l 1
 31 25 l 1
 31 27 l 1
41 27 m 1
 39 27 l 1
 39 25 l 1
 41 25 l 1
 41 27 l 1
44 27 m 1
 42 27 l 1
 42 25 l 1
 43 25 l 1
 43 26 l 1
 44 26 l 1
 44 27 l 1
45 42 m 1
 44 42 l 1
 44 41 l 1
 46 41 l 1
 46 43 l 1
 45 43 l 1
 45 42 l 1
49 43 m 1
 47 43 l 1
 47 41 l 1
 49 41 l 1
 49 43 l 1
49 39 m 1
 47 39 l 1
 47 37 l 1
 49 37 l 1
 49 39 l 1
55 43 m 1
 53 43 l 1
 53 41 l 1
 55 41 l 1
 55 43 l 1
58 43 m 1
 56 43 l 1
 56 41 l 1
 57 41 l 1
 57 42 l 1
 58 42 l 1
 58 43 l 1
59 42 m 1
 58 42 l 1
 58 41 l 1
 60 41 l 1
 60 43 l 1
 59 43 l 1
 59 42 l 1
55 39 m 1
 53 39 l 1
 53 37 l 1
 55 37 l 1
 55 39 l 1
63 43 m 1
 61 43 l 1
 61 41 l 1
 63 41 l 1
 63 43 l 1
63 39 m 1
 61 39 l 1
 61 37 l 1
 63 37 l 1
 63 39 l 1
46 35 m 1
 44 35 l 1
 44 34 l 1
 45 34 l 1
 45 33 l 1
 46 33 l 1
 46 35 l 1
49 35 m 1
 47 35 l 1
 47 33 l 1
 49 33 l 1
 49 35 l 1
49 31 m 1
 47 31 l 1
 47 29 l 1
 49 29 l 1
 49 31 l 1
55 35 m 1
 53 35 l 1
 53 33 l 1
 55 33 l 1
 55 35 l 1
57 35 m 1
 56 35 l 1
 56 33 l 1
 58 33 l 1
 58 34 l 1
 57 34 l 1
 57 35 l 1
60 35 m 1
 58 35 l 1
 58 34 l 1
 59 34 l 1
 59 33 l 1
 60 33 l 1
 60 35 l 1
45 26 m 1
 44 26 l 1
 44 25 l 1
 46 25 l 1
 46 27 l 1
 45 27 l 1
 45 26 l 1
49 27 m 1
 47 27 l 1
 47 25 l 1
 49 25 l 1
 49 27 l 1
55 27 m 1
 53 27 l 1
 53 25 l 1
 55 25 l 1
 55 27 l 1
58 27 m 1
 56 27 l 1
 56 25 l 1
 57 25 l 1
 57 26 l 1
 58 26 l 1
 58 27 l 1
59 26 m 1
 58 26 l 1
 58 25 l 1
 60 25 l 1
 60 27 l 1
 59 27 l 1
 59 26 l 1
63 35 m 1
 61 35 l 1
 61 33 l 1
 63 33 l 1
 63 35 l 1
63 31 m 1
 61 31 l 1
 61 29 l 1
 63 29 l 1
 63 31 l 1
63 27 m 1
 61 27 l 1
 61 25 l 1
 63 25 l 1
 63 27 l 1
EndSplineSet
EndChar

StartChar: custom_3_9_0_2_5
Encoding: 31693 31693 11725
Width: 70
Flags: H
LayerCount: 2
Fore
SplineSet
31 43 m 1
 29 43 l 1
 29 41 l 1
 31 41 l 1
 31 43 l 1
31 39 m 1
 29 39 l 1
 29 37 l 1
 31 37 l 1
 31 39 l 1
36 37 m 1
 34 37 l 1
 34 35 l 1
 36 35 l 1
 36 37 l 1
41 43 m 1
 39 43 l 1
 39 41 l 1
 41 41 l 1
 41 43 l 1
44 43 m 1
 42 43 l 1
 42 41 l 1
 43 41 l 1
 43 42 l 1
 44 42 l 1
 44 43 l 1
31 35 m 1
 29 35 l 1
 29 33 l 1
 31 33 l 1
 31 35 l 1
36 33 m 1
 34 33 l 1
 34 31 l 1
 36 31 l 1
 36 33 l 1
31 31 m 1
 29 31 l 1
 29 29 l 1
 31 29 l 1
 31 31 l 1
41 35 m 1
 39 35 l 1
 39 33 l 1
 41 33 l 1
 41 35 l 1
43 35 m 1
 42 35 l 1
 42 33 l 1
 44 33 l 1
 44 34 l 1
 43 34 l 1
 43 35 l 1
31 27 m 1
 29 27 l 1
 29 25 l 1
 31 25 l 1
 31 27 l 1
41 27 m 1
 39 27 l 1
 39 25 l 1
 41 25 l 1
 41 27 l 1
44 27 m 1
 42 27 l 1
 42 25 l 1
 43 25 l 1
 43 26 l 1
 44 26 l 1
 44 27 l 1
45 42 m 1
 44 42 l 1
 44 41 l 1
 46 41 l 1
 46 43 l 1
 45 43 l 1
 45 42 l 1
49 43 m 1
 47 43 l 1
 47 41 l 1
 49 41 l 1
 49 43 l 1
49 39 m 1
 47 39 l 1
 47 37 l 1
 49 37 l 1
 49 39 l 1
55 43 m 1
 53 43 l 1
 53 41 l 1
 55 41 l 1
 55 43 l 1
58 43 m 1
 56 43 l 1
 56 41 l 1
 57 41 l 1
 57 42 l 1
 58 42 l 1
 58 43 l 1
59 42 m 1
 58 42 l 1
 58 41 l 1
 60 41 l 1
 60 43 l 1
 59 43 l 1
 59 42 l 1
55 39 m 1
 53 39 l 1
 53 37 l 1
 55 37 l 1
 55 39 l 1
63 43 m 1
 61 43 l 1
 61 41 l 1
 63 41 l 1
 63 43 l 1
63 39 m 1
 61 39 l 1
 61 37 l 1
 63 37 l 1
 63 39 l 1
46 35 m 1
 44 35 l 1
 44 34 l 1
 45 34 l 1
 45 33 l 1
 46 33 l 1
 46 35 l 1
49 35 m 1
 47 35 l 1
 47 33 l 1
 49 33 l 1
 49 35 l 1
49 31 m 1
 47 31 l 1
 47 29 l 1
 49 29 l 1
 49 31 l 1
55 35 m 1
 53 35 l 1
 53 33 l 1
 55 33 l 1
 55 35 l 1
57 35 m 1
 56 35 l 1
 56 33 l 1
 58 33 l 1
 58 34 l 1
 57 34 l 1
 57 35 l 1
60 35 m 1
 58 35 l 1
 58 34 l 1
 59 34 l 1
 59 33 l 1
 60 33 l 1
 60 35 l 1
45 26 m 1
 44 26 l 1
 44 25 l 1
 46 25 l 1
 46 27 l 1
 45 27 l 1
 45 26 l 1
49 27 m 1
 47 27 l 1
 47 25 l 1
 49 25 l 1
 49 27 l 1
55 27 m 1
 53 27 l 1
 53 25 l 1
 55 25 l 1
 55 27 l 1
58 27 m 1
 56 27 l 1
 56 25 l 1
 57 25 l 1
 57 26 l 1
 58 26 l 1
 58 27 l 1
59 26 m 1
 58 26 l 1
 58 25 l 1
 60 25 l 1
 60 27 l 1
 59 27 l 1
 59 26 l 1
63 35 m 1
 61 35 l 1
 61 33 l 1
 63 33 l 1
 63 35 l 1
63 31 m 1
 61 31 l 1
 61 29 l 1
 63 29 l 1
 63 31 l 1
63 27 m 1
 61 27 l 1
 61 25 l 1
 63 25 l 1
 63 27 l 1
EndSplineSet
EndChar

StartChar: custom_3_9_0_2_6
Encoding: 31694 31694 11726
Width: 70
Flags: H
LayerCount: 2
Fore
SplineSet
31 43 m 1
 29 43 l 1
 29 41 l 1
 31 41 l 1
 31 43 l 1
31 39 m 1
 29 39 l 1
 29 37 l 1
 31 37 l 1
 31 39 l 1
36 37 m 1
 34 37 l 1
 34 35 l 1
 36 35 l 1
 36 37 l 1
41 43 m 1
 39 43 l 1
 39 41 l 1
 41 41 l 1
 41 43 l 1
44 43 m 1
 42 43 l 1
 42 41 l 1
 43 41 l 1
 43 42 l 1
 44 42 l 1
 44 43 l 1
31 35 m 1
 29 35 l 1
 29 33 l 1
 31 33 l 1
 31 35 l 1
36 33 m 1
 34 33 l 1
 34 31 l 1
 36 31 l 1
 36 33 l 1
31 31 m 1
 29 31 l 1
 29 29 l 1
 31 29 l 1
 31 31 l 1
41 35 m 1
 39 35 l 1
 39 33 l 1
 41 33 l 1
 41 35 l 1
43 35 m 1
 42 35 l 1
 42 33 l 1
 44 33 l 1
 44 34 l 1
 43 34 l 1
 43 35 l 1
31 27 m 1
 29 27 l 1
 29 25 l 1
 31 25 l 1
 31 27 l 1
41 27 m 1
 39 27 l 1
 39 25 l 1
 41 25 l 1
 41 27 l 1
44 27 m 1
 42 27 l 1
 42 25 l 1
 43 25 l 1
 43 26 l 1
 44 26 l 1
 44 27 l 1
45 42 m 1
 44 42 l 1
 44 41 l 1
 46 41 l 1
 46 43 l 1
 45 43 l 1
 45 42 l 1
49 43 m 1
 47 43 l 1
 47 41 l 1
 49 41 l 1
 49 43 l 1
49 39 m 1
 47 39 l 1
 47 37 l 1
 49 37 l 1
 49 39 l 1
55 43 m 1
 53 43 l 1
 53 41 l 1
 55 41 l 1
 55 43 l 1
58 43 m 1
 56 43 l 1
 56 41 l 1
 57 41 l 1
 57 42 l 1
 58 42 l 1
 58 43 l 1
59 42 m 1
 58 42 l 1
 58 41 l 1
 60 41 l 1
 60 43 l 1
 59 43 l 1
 59 42 l 1
55 39 m 1
 53 39 l 1
 53 37 l 1
 55 37 l 1
 55 39 l 1
63 43 m 1
 61 43 l 1
 61 41 l 1
 63 41 l 1
 63 43 l 1
63 39 m 1
 61 39 l 1
 61 37 l 1
 63 37 l 1
 63 39 l 1
46 35 m 1
 44 35 l 1
 44 34 l 1
 45 34 l 1
 45 33 l 1
 46 33 l 1
 46 35 l 1
49 35 m 1
 47 35 l 1
 47 33 l 1
 49 33 l 1
 49 35 l 1
49 31 m 1
 47 31 l 1
 47 29 l 1
 49 29 l 1
 49 31 l 1
55 35 m 1
 53 35 l 1
 53 33 l 1
 55 33 l 1
 55 35 l 1
57 35 m 1
 56 35 l 1
 56 33 l 1
 58 33 l 1
 58 34 l 1
 57 34 l 1
 57 35 l 1
60 35 m 1
 58 35 l 1
 58 34 l 1
 59 34 l 1
 59 33 l 1
 60 33 l 1
 60 35 l 1
45 26 m 1
 44 26 l 1
 44 25 l 1
 46 25 l 1
 46 27 l 1
 45 27 l 1
 45 26 l 1
49 27 m 1
 47 27 l 1
 47 25 l 1
 49 25 l 1
 49 27 l 1
55 27 m 1
 53 27 l 1
 53 25 l 1
 55 25 l 1
 55 27 l 1
58 27 m 1
 56 27 l 1
 56 25 l 1
 57 25 l 1
 57 26 l 1
 58 26 l 1
 58 27 l 1
59 26 m 1
 58 26 l 1
 58 25 l 1
 60 25 l 1
 60 27 l 1
 59 27 l 1
 59 26 l 1
63 35 m 1
 61 35 l 1
 61 33 l 1
 63 33 l 1
 63 35 l 1
63 31 m 1
 61 31 l 1
 61 29 l 1
 63 29 l 1
 63 31 l 1
63 27 m 1
 61 27 l 1
 61 25 l 1
 63 25 l 1
 63 27 l 1
EndSplineSet
EndChar

StartChar: custom_3_9_0_2_7
Encoding: 31695 31695 11727
Width: 70
Flags: H
LayerCount: 2
Fore
SplineSet
31 43 m 1
 29 43 l 1
 29 41 l 1
 31 41 l 1
 31 43 l 1
31 39 m 1
 29 39 l 1
 29 37 l 1
 31 37 l 1
 31 39 l 1
36 37 m 1
 34 37 l 1
 34 35 l 1
 36 35 l 1
 36 37 l 1
41 43 m 1
 39 43 l 1
 39 41 l 1
 41 41 l 1
 41 43 l 1
44 43 m 1
 42 43 l 1
 42 41 l 1
 43 41 l 1
 43 42 l 1
 44 42 l 1
 44 43 l 1
31 35 m 1
 29 35 l 1
 29 33 l 1
 31 33 l 1
 31 35 l 1
36 33 m 1
 34 33 l 1
 34 31 l 1
 36 31 l 1
 36 33 l 1
31 31 m 1
 29 31 l 1
 29 29 l 1
 31 29 l 1
 31 31 l 1
41 35 m 1
 39 35 l 1
 39 33 l 1
 41 33 l 1
 41 35 l 1
43 35 m 1
 42 35 l 1
 42 33 l 1
 44 33 l 1
 44 34 l 1
 43 34 l 1
 43 35 l 1
31 27 m 1
 29 27 l 1
 29 25 l 1
 31 25 l 1
 31 27 l 1
41 27 m 1
 39 27 l 1
 39 25 l 1
 41 25 l 1
 41 27 l 1
44 27 m 1
 42 27 l 1
 42 25 l 1
 43 25 l 1
 43 26 l 1
 44 26 l 1
 44 27 l 1
45 42 m 1
 44 42 l 1
 44 41 l 1
 46 41 l 1
 46 43 l 1
 45 43 l 1
 45 42 l 1
49 43 m 1
 47 43 l 1
 47 41 l 1
 49 41 l 1
 49 43 l 1
49 39 m 1
 47 39 l 1
 47 37 l 1
 49 37 l 1
 49 39 l 1
55 43 m 1
 53 43 l 1
 53 41 l 1
 55 41 l 1
 55 43 l 1
58 43 m 1
 56 43 l 1
 56 41 l 1
 57 41 l 1
 57 42 l 1
 58 42 l 1
 58 43 l 1
59 42 m 1
 58 42 l 1
 58 41 l 1
 60 41 l 1
 60 43 l 1
 59 43 l 1
 59 42 l 1
55 39 m 1
 53 39 l 1
 53 37 l 1
 55 37 l 1
 55 39 l 1
63 43 m 1
 61 43 l 1
 61 41 l 1
 63 41 l 1
 63 43 l 1
63 39 m 1
 61 39 l 1
 61 37 l 1
 63 37 l 1
 63 39 l 1
46 35 m 1
 44 35 l 1
 44 34 l 1
 45 34 l 1
 45 33 l 1
 46 33 l 1
 46 35 l 1
49 35 m 1
 47 35 l 1
 47 33 l 1
 49 33 l 1
 49 35 l 1
49 31 m 1
 47 31 l 1
 47 29 l 1
 49 29 l 1
 49 31 l 1
55 35 m 1
 53 35 l 1
 53 33 l 1
 55 33 l 1
 55 35 l 1
57 35 m 1
 56 35 l 1
 56 33 l 1
 58 33 l 1
 58 34 l 1
 57 34 l 1
 57 35 l 1
60 35 m 1
 58 35 l 1
 58 34 l 1
 59 34 l 1
 59 33 l 1
 60 33 l 1
 60 35 l 1
45 26 m 1
 44 26 l 1
 44 25 l 1
 46 25 l 1
 46 27 l 1
 45 27 l 1
 45 26 l 1
49 27 m 1
 47 27 l 1
 47 25 l 1
 49 25 l 1
 49 27 l 1
55 27 m 1
 53 27 l 1
 53 25 l 1
 55 25 l 1
 55 27 l 1
58 27 m 1
 56 27 l 1
 56 25 l 1
 57 25 l 1
 57 26 l 1
 58 26 l 1
 58 27 l 1
59 26 m 1
 58 26 l 1
 58 25 l 1
 60 25 l 1
 60 27 l 1
 59 27 l 1
 59 26 l 1
63 35 m 1
 61 35 l 1
 61 33 l 1
 63 33 l 1
 63 35 l 1
63 31 m 1
 61 31 l 1
 61 29 l 1
 63 29 l 1
 63 31 l 1
63 27 m 1
 61 27 l 1
 61 25 l 1
 63 25 l 1
 63 27 l 1
EndSplineSet
EndChar

StartChar: custom_3_9_0_2_8
Encoding: 31696 31696 11728
Width: 70
Flags: H
LayerCount: 2
Fore
SplineSet
31 43 m 1
 29 43 l 1
 29 41 l 1
 31 41 l 1
 31 43 l 1
31 39 m 1
 29 39 l 1
 29 37 l 1
 31 37 l 1
 31 39 l 1
36 37 m 1
 34 37 l 1
 34 35 l 1
 36 35 l 1
 36 37 l 1
41 43 m 1
 39 43 l 1
 39 41 l 1
 41 41 l 1
 41 43 l 1
44 43 m 1
 42 43 l 1
 42 41 l 1
 43 41 l 1
 43 42 l 1
 44 42 l 1
 44 43 l 1
31 35 m 1
 29 35 l 1
 29 33 l 1
 31 33 l 1
 31 35 l 1
36 33 m 1
 34 33 l 1
 34 31 l 1
 36 31 l 1
 36 33 l 1
31 31 m 1
 29 31 l 1
 29 29 l 1
 31 29 l 1
 31 31 l 1
41 35 m 1
 39 35 l 1
 39 33 l 1
 41 33 l 1
 41 35 l 1
43 35 m 1
 42 35 l 1
 42 33 l 1
 44 33 l 1
 44 34 l 1
 43 34 l 1
 43 35 l 1
31 27 m 1
 29 27 l 1
 29 25 l 1
 31 25 l 1
 31 27 l 1
41 27 m 1
 39 27 l 1
 39 25 l 1
 41 25 l 1
 41 27 l 1
44 27 m 1
 42 27 l 1
 42 25 l 1
 43 25 l 1
 43 26 l 1
 44 26 l 1
 44 27 l 1
45 42 m 1
 44 42 l 1
 44 41 l 1
 46 41 l 1
 46 43 l 1
 45 43 l 1
 45 42 l 1
49 43 m 1
 47 43 l 1
 47 41 l 1
 49 41 l 1
 49 43 l 1
49 39 m 1
 47 39 l 1
 47 37 l 1
 49 37 l 1
 49 39 l 1
55 43 m 1
 53 43 l 1
 53 41 l 1
 55 41 l 1
 55 43 l 1
58 43 m 1
 56 43 l 1
 56 41 l 1
 57 41 l 1
 57 42 l 1
 58 42 l 1
 58 43 l 1
59 42 m 1
 58 42 l 1
 58 41 l 1
 60 41 l 1
 60 43 l 1
 59 43 l 1
 59 42 l 1
55 39 m 1
 53 39 l 1
 53 37 l 1
 55 37 l 1
 55 39 l 1
63 43 m 1
 61 43 l 1
 61 41 l 1
 63 41 l 1
 63 43 l 1
63 39 m 1
 61 39 l 1
 61 37 l 1
 63 37 l 1
 63 39 l 1
46 35 m 1
 44 35 l 1
 44 34 l 1
 45 34 l 1
 45 33 l 1
 46 33 l 1
 46 35 l 1
49 35 m 1
 47 35 l 1
 47 33 l 1
 49 33 l 1
 49 35 l 1
49 31 m 1
 47 31 l 1
 47 29 l 1
 49 29 l 1
 49 31 l 1
55 35 m 1
 53 35 l 1
 53 33 l 1
 55 33 l 1
 55 35 l 1
57 35 m 1
 56 35 l 1
 56 33 l 1
 58 33 l 1
 58 34 l 1
 57 34 l 1
 57 35 l 1
60 35 m 1
 58 35 l 1
 58 34 l 1
 59 34 l 1
 59 33 l 1
 60 33 l 1
 60 35 l 1
45 26 m 1
 44 26 l 1
 44 25 l 1
 46 25 l 1
 46 27 l 1
 45 27 l 1
 45 26 l 1
49 27 m 1
 47 27 l 1
 47 25 l 1
 49 25 l 1
 49 27 l 1
55 27 m 1
 53 27 l 1
 53 25 l 1
 55 25 l 1
 55 27 l 1
58 27 m 1
 56 27 l 1
 56 25 l 1
 57 25 l 1
 57 26 l 1
 58 26 l 1
 58 27 l 1
59 26 m 1
 58 26 l 1
 58 25 l 1
 60 25 l 1
 60 27 l 1
 59 27 l 1
 59 26 l 1
63 35 m 1
 61 35 l 1
 61 33 l 1
 63 33 l 1
 63 35 l 1
63 31 m 1
 61 31 l 1
 61 29 l 1
 63 29 l 1
 63 31 l 1
63 27 m 1
 61 27 l 1
 61 25 l 1
 63 25 l 1
 63 27 l 1
EndSplineSet
EndChar

StartChar: custom_3_9_0_2_9
Encoding: 31697 31697 11729
Width: 70
Flags: H
LayerCount: 2
Fore
SplineSet
31 43 m 1
 29 43 l 1
 29 41 l 1
 31 41 l 1
 31 43 l 1
31 39 m 1
 29 39 l 1
 29 37 l 1
 31 37 l 1
 31 39 l 1
36 37 m 1
 34 37 l 1
 34 35 l 1
 36 35 l 1
 36 37 l 1
41 43 m 1
 39 43 l 1
 39 41 l 1
 41 41 l 1
 41 43 l 1
44 43 m 1
 42 43 l 1
 42 41 l 1
 43 41 l 1
 43 42 l 1
 44 42 l 1
 44 43 l 1
31 35 m 1
 29 35 l 1
 29 33 l 1
 31 33 l 1
 31 35 l 1
36 33 m 1
 34 33 l 1
 34 31 l 1
 36 31 l 1
 36 33 l 1
31 31 m 1
 29 31 l 1
 29 29 l 1
 31 29 l 1
 31 31 l 1
41 35 m 1
 39 35 l 1
 39 33 l 1
 41 33 l 1
 41 35 l 1
43 35 m 1
 42 35 l 1
 42 33 l 1
 44 33 l 1
 44 34 l 1
 43 34 l 1
 43 35 l 1
31 27 m 1
 29 27 l 1
 29 25 l 1
 31 25 l 1
 31 27 l 1
41 27 m 1
 39 27 l 1
 39 25 l 1
 41 25 l 1
 41 27 l 1
44 27 m 1
 42 27 l 1
 42 25 l 1
 43 25 l 1
 43 26 l 1
 44 26 l 1
 44 27 l 1
45 42 m 1
 44 42 l 1
 44 41 l 1
 46 41 l 1
 46 43 l 1
 45 43 l 1
 45 42 l 1
49 43 m 1
 47 43 l 1
 47 41 l 1
 49 41 l 1
 49 43 l 1
49 39 m 1
 47 39 l 1
 47 37 l 1
 49 37 l 1
 49 39 l 1
55 43 m 1
 53 43 l 1
 53 41 l 1
 55 41 l 1
 55 43 l 1
58 43 m 1
 56 43 l 1
 56 41 l 1
 57 41 l 1
 57 42 l 1
 58 42 l 1
 58 43 l 1
59 42 m 1
 58 42 l 1
 58 41 l 1
 60 41 l 1
 60 43 l 1
 59 43 l 1
 59 42 l 1
55 39 m 1
 53 39 l 1
 53 37 l 1
 55 37 l 1
 55 39 l 1
63 43 m 1
 61 43 l 1
 61 41 l 1
 63 41 l 1
 63 43 l 1
63 39 m 1
 61 39 l 1
 61 37 l 1
 63 37 l 1
 63 39 l 1
46 35 m 1
 44 35 l 1
 44 34 l 1
 45 34 l 1
 45 33 l 1
 46 33 l 1
 46 35 l 1
49 35 m 1
 47 35 l 1
 47 33 l 1
 49 33 l 1
 49 35 l 1
49 31 m 1
 47 31 l 1
 47 29 l 1
 49 29 l 1
 49 31 l 1
55 35 m 1
 53 35 l 1
 53 33 l 1
 55 33 l 1
 55 35 l 1
57 35 m 1
 56 35 l 1
 56 33 l 1
 58 33 l 1
 58 34 l 1
 57 34 l 1
 57 35 l 1
60 35 m 1
 58 35 l 1
 58 34 l 1
 59 34 l 1
 59 33 l 1
 60 33 l 1
 60 35 l 1
45 26 m 1
 44 26 l 1
 44 25 l 1
 46 25 l 1
 46 27 l 1
 45 27 l 1
 45 26 l 1
49 27 m 1
 47 27 l 1
 47 25 l 1
 49 25 l 1
 49 27 l 1
55 27 m 1
 53 27 l 1
 53 25 l 1
 55 25 l 1
 55 27 l 1
58 27 m 1
 56 27 l 1
 56 25 l 1
 57 25 l 1
 57 26 l 1
 58 26 l 1
 58 27 l 1
59 26 m 1
 58 26 l 1
 58 25 l 1
 60 25 l 1
 60 27 l 1
 59 27 l 1
 59 26 l 1
63 35 m 1
 61 35 l 1
 61 33 l 1
 63 33 l 1
 63 35 l 1
63 31 m 1
 61 31 l 1
 61 29 l 1
 63 29 l 1
 63 31 l 1
63 27 m 1
 61 27 l 1
 61 25 l 1
 63 25 l 1
 63 27 l 1
EndSplineSet
EndChar

StartChar: custom_3_9_0_3_0
Encoding: 31698 31698 11730
Width: 70
Flags: H
LayerCount: 2
Fore
SplineSet
31 43 m 1
 29 43 l 1
 29 41 l 1
 31 41 l 1
 31 43 l 1
31 39 m 1
 29 39 l 1
 29 37 l 1
 31 37 l 1
 31 39 l 1
36 37 m 1
 34 37 l 1
 34 35 l 1
 36 35 l 1
 36 37 l 1
41 43 m 1
 39 43 l 1
 39 41 l 1
 41 41 l 1
 41 43 l 1
44 43 m 1
 42 43 l 1
 42 41 l 1
 43 41 l 1
 43 42 l 1
 44 42 l 1
 44 43 l 1
31 35 m 1
 29 35 l 1
 29 33 l 1
 31 33 l 1
 31 35 l 1
36 33 m 1
 34 33 l 1
 34 31 l 1
 36 31 l 1
 36 33 l 1
31 31 m 1
 29 31 l 1
 29 29 l 1
 31 29 l 1
 31 31 l 1
41 35 m 1
 39 35 l 1
 39 33 l 1
 41 33 l 1
 41 35 l 1
43 35 m 1
 42 35 l 1
 42 33 l 1
 44 33 l 1
 44 34 l 1
 43 34 l 1
 43 35 l 1
31 27 m 1
 29 27 l 1
 29 25 l 1
 31 25 l 1
 31 27 l 1
41 27 m 1
 39 27 l 1
 39 25 l 1
 41 25 l 1
 41 27 l 1
44 27 m 1
 42 27 l 1
 42 25 l 1
 43 25 l 1
 43 26 l 1
 44 26 l 1
 44 27 l 1
45 42 m 1
 44 42 l 1
 44 41 l 1
 46 41 l 1
 46 43 l 1
 45 43 l 1
 45 42 l 1
49 43 m 1
 47 43 l 1
 47 41 l 1
 49 41 l 1
 49 43 l 1
49 39 m 1
 47 39 l 1
 47 37 l 1
 49 37 l 1
 49 39 l 1
55 43 m 1
 53 43 l 1
 53 41 l 1
 55 41 l 1
 55 43 l 1
58 43 m 1
 56 43 l 1
 56 41 l 1
 57 41 l 1
 57 42 l 1
 58 42 l 1
 58 43 l 1
59 42 m 1
 58 42 l 1
 58 41 l 1
 60 41 l 1
 60 43 l 1
 59 43 l 1
 59 42 l 1
55 39 m 1
 53 39 l 1
 53 37 l 1
 55 37 l 1
 55 39 l 1
63 43 m 1
 61 43 l 1
 61 41 l 1
 63 41 l 1
 63 43 l 1
63 39 m 1
 61 39 l 1
 61 37 l 1
 63 37 l 1
 63 39 l 1
46 35 m 1
 44 35 l 1
 44 34 l 1
 45 34 l 1
 45 33 l 1
 46 33 l 1
 46 35 l 1
49 35 m 1
 47 35 l 1
 47 33 l 1
 49 33 l 1
 49 35 l 1
49 31 m 1
 47 31 l 1
 47 29 l 1
 49 29 l 1
 49 31 l 1
55 35 m 1
 53 35 l 1
 53 33 l 1
 55 33 l 1
 55 35 l 1
57 35 m 1
 56 35 l 1
 56 33 l 1
 58 33 l 1
 58 34 l 1
 57 34 l 1
 57 35 l 1
60 35 m 1
 58 35 l 1
 58 34 l 1
 59 34 l 1
 59 33 l 1
 60 33 l 1
 60 35 l 1
45 26 m 1
 44 26 l 1
 44 25 l 1
 46 25 l 1
 46 27 l 1
 45 27 l 1
 45 26 l 1
49 27 m 1
 47 27 l 1
 47 25 l 1
 49 25 l 1
 49 27 l 1
55 27 m 1
 53 27 l 1
 53 25 l 1
 55 25 l 1
 55 27 l 1
58 27 m 1
 56 27 l 1
 56 25 l 1
 57 25 l 1
 57 26 l 1
 58 26 l 1
 58 27 l 1
59 26 m 1
 58 26 l 1
 58 25 l 1
 60 25 l 1
 60 27 l 1
 59 27 l 1
 59 26 l 1
63 35 m 1
 61 35 l 1
 61 33 l 1
 63 33 l 1
 63 35 l 1
63 31 m 1
 61 31 l 1
 61 29 l 1
 63 29 l 1
 63 31 l 1
63 27 m 1
 61 27 l 1
 61 25 l 1
 63 25 l 1
 63 27 l 1
EndSplineSet
EndChar

StartChar: custom_3_9_0_3_1
Encoding: 31699 31699 11731
Width: 70
Flags: H
LayerCount: 2
Fore
SplineSet
31 43 m 1
 29 43 l 1
 29 41 l 1
 31 41 l 1
 31 43 l 1
31 39 m 1
 29 39 l 1
 29 37 l 1
 31 37 l 1
 31 39 l 1
36 37 m 1
 34 37 l 1
 34 35 l 1
 36 35 l 1
 36 37 l 1
41 43 m 1
 39 43 l 1
 39 41 l 1
 41 41 l 1
 41 43 l 1
44 43 m 1
 42 43 l 1
 42 41 l 1
 43 41 l 1
 43 42 l 1
 44 42 l 1
 44 43 l 1
31 35 m 1
 29 35 l 1
 29 33 l 1
 31 33 l 1
 31 35 l 1
36 33 m 1
 34 33 l 1
 34 31 l 1
 36 31 l 1
 36 33 l 1
31 31 m 1
 29 31 l 1
 29 29 l 1
 31 29 l 1
 31 31 l 1
41 35 m 1
 39 35 l 1
 39 33 l 1
 41 33 l 1
 41 35 l 1
43 35 m 1
 42 35 l 1
 42 33 l 1
 44 33 l 1
 44 34 l 1
 43 34 l 1
 43 35 l 1
31 27 m 1
 29 27 l 1
 29 25 l 1
 31 25 l 1
 31 27 l 1
41 27 m 1
 39 27 l 1
 39 25 l 1
 41 25 l 1
 41 27 l 1
44 27 m 1
 42 27 l 1
 42 25 l 1
 43 25 l 1
 43 26 l 1
 44 26 l 1
 44 27 l 1
45 42 m 1
 44 42 l 1
 44 41 l 1
 46 41 l 1
 46 43 l 1
 45 43 l 1
 45 42 l 1
49 43 m 1
 47 43 l 1
 47 41 l 1
 49 41 l 1
 49 43 l 1
49 39 m 1
 47 39 l 1
 47 37 l 1
 49 37 l 1
 49 39 l 1
55 43 m 1
 53 43 l 1
 53 41 l 1
 55 41 l 1
 55 43 l 1
58 43 m 1
 56 43 l 1
 56 41 l 1
 57 41 l 1
 57 42 l 1
 58 42 l 1
 58 43 l 1
59 42 m 1
 58 42 l 1
 58 41 l 1
 60 41 l 1
 60 43 l 1
 59 43 l 1
 59 42 l 1
55 39 m 1
 53 39 l 1
 53 37 l 1
 55 37 l 1
 55 39 l 1
63 43 m 1
 61 43 l 1
 61 41 l 1
 63 41 l 1
 63 43 l 1
63 39 m 1
 61 39 l 1
 61 37 l 1
 63 37 l 1
 63 39 l 1
46 35 m 1
 44 35 l 1
 44 34 l 1
 45 34 l 1
 45 33 l 1
 46 33 l 1
 46 35 l 1
49 35 m 1
 47 35 l 1
 47 33 l 1
 49 33 l 1
 49 35 l 1
49 31 m 1
 47 31 l 1
 47 29 l 1
 49 29 l 1
 49 31 l 1
55 35 m 1
 53 35 l 1
 53 33 l 1
 55 33 l 1
 55 35 l 1
57 35 m 1
 56 35 l 1
 56 33 l 1
 58 33 l 1
 58 34 l 1
 57 34 l 1
 57 35 l 1
60 35 m 1
 58 35 l 1
 58 34 l 1
 59 34 l 1
 59 33 l 1
 60 33 l 1
 60 35 l 1
45 26 m 1
 44 26 l 1
 44 25 l 1
 46 25 l 1
 46 27 l 1
 45 27 l 1
 45 26 l 1
49 27 m 1
 47 27 l 1
 47 25 l 1
 49 25 l 1
 49 27 l 1
55 27 m 1
 53 27 l 1
 53 25 l 1
 55 25 l 1
 55 27 l 1
58 27 m 1
 56 27 l 1
 56 25 l 1
 57 25 l 1
 57 26 l 1
 58 26 l 1
 58 27 l 1
59 26 m 1
 58 26 l 1
 58 25 l 1
 60 25 l 1
 60 27 l 1
 59 27 l 1
 59 26 l 1
63 35 m 1
 61 35 l 1
 61 33 l 1
 63 33 l 1
 63 35 l 1
63 31 m 1
 61 31 l 1
 61 29 l 1
 63 29 l 1
 63 31 l 1
63 27 m 1
 61 27 l 1
 61 25 l 1
 63 25 l 1
 63 27 l 1
EndSplineSet
EndChar

StartChar: custom_3_9_0_3_2
Encoding: 31700 31700 11732
Width: 70
Flags: H
LayerCount: 2
Fore
SplineSet
31 43 m 1
 29 43 l 1
 29 41 l 1
 31 41 l 1
 31 43 l 1
31 39 m 1
 29 39 l 1
 29 37 l 1
 31 37 l 1
 31 39 l 1
36 37 m 1
 34 37 l 1
 34 35 l 1
 36 35 l 1
 36 37 l 1
41 43 m 1
 39 43 l 1
 39 41 l 1
 41 41 l 1
 41 43 l 1
44 43 m 1
 42 43 l 1
 42 41 l 1
 43 41 l 1
 43 42 l 1
 44 42 l 1
 44 43 l 1
31 35 m 1
 29 35 l 1
 29 33 l 1
 31 33 l 1
 31 35 l 1
36 33 m 1
 34 33 l 1
 34 31 l 1
 36 31 l 1
 36 33 l 1
31 31 m 1
 29 31 l 1
 29 29 l 1
 31 29 l 1
 31 31 l 1
41 35 m 1
 39 35 l 1
 39 33 l 1
 41 33 l 1
 41 35 l 1
43 35 m 1
 42 35 l 1
 42 33 l 1
 44 33 l 1
 44 34 l 1
 43 34 l 1
 43 35 l 1
31 27 m 1
 29 27 l 1
 29 25 l 1
 31 25 l 1
 31 27 l 1
41 27 m 1
 39 27 l 1
 39 25 l 1
 41 25 l 1
 41 27 l 1
44 27 m 1
 42 27 l 1
 42 25 l 1
 43 25 l 1
 43 26 l 1
 44 26 l 1
 44 27 l 1
45 42 m 1
 44 42 l 1
 44 41 l 1
 46 41 l 1
 46 43 l 1
 45 43 l 1
 45 42 l 1
49 43 m 1
 47 43 l 1
 47 41 l 1
 49 41 l 1
 49 43 l 1
49 39 m 1
 47 39 l 1
 47 37 l 1
 49 37 l 1
 49 39 l 1
55 43 m 1
 53 43 l 1
 53 41 l 1
 55 41 l 1
 55 43 l 1
58 43 m 1
 56 43 l 1
 56 41 l 1
 57 41 l 1
 57 42 l 1
 58 42 l 1
 58 43 l 1
59 42 m 1
 58 42 l 1
 58 41 l 1
 60 41 l 1
 60 43 l 1
 59 43 l 1
 59 42 l 1
55 39 m 1
 53 39 l 1
 53 37 l 1
 55 37 l 1
 55 39 l 1
63 43 m 1
 61 43 l 1
 61 41 l 1
 63 41 l 1
 63 43 l 1
63 39 m 1
 61 39 l 1
 61 37 l 1
 63 37 l 1
 63 39 l 1
46 35 m 1
 44 35 l 1
 44 34 l 1
 45 34 l 1
 45 33 l 1
 46 33 l 1
 46 35 l 1
49 35 m 1
 47 35 l 1
 47 33 l 1
 49 33 l 1
 49 35 l 1
49 31 m 1
 47 31 l 1
 47 29 l 1
 49 29 l 1
 49 31 l 1
55 35 m 1
 53 35 l 1
 53 33 l 1
 55 33 l 1
 55 35 l 1
57 35 m 1
 56 35 l 1
 56 33 l 1
 58 33 l 1
 58 34 l 1
 57 34 l 1
 57 35 l 1
60 35 m 1
 58 35 l 1
 58 34 l 1
 59 34 l 1
 59 33 l 1
 60 33 l 1
 60 35 l 1
45 26 m 1
 44 26 l 1
 44 25 l 1
 46 25 l 1
 46 27 l 1
 45 27 l 1
 45 26 l 1
49 27 m 1
 47 27 l 1
 47 25 l 1
 49 25 l 1
 49 27 l 1
55 27 m 1
 53 27 l 1
 53 25 l 1
 55 25 l 1
 55 27 l 1
58 27 m 1
 56 27 l 1
 56 25 l 1
 57 25 l 1
 57 26 l 1
 58 26 l 1
 58 27 l 1
59 26 m 1
 58 26 l 1
 58 25 l 1
 60 25 l 1
 60 27 l 1
 59 27 l 1
 59 26 l 1
63 35 m 1
 61 35 l 1
 61 33 l 1
 63 33 l 1
 63 35 l 1
63 31 m 1
 61 31 l 1
 61 29 l 1
 63 29 l 1
 63 31 l 1
63 27 m 1
 61 27 l 1
 61 25 l 1
 63 25 l 1
 63 27 l 1
EndSplineSet
EndChar

StartChar: custom_3_9_0_3_3
Encoding: 31701 31701 11733
Width: 70
Flags: H
LayerCount: 2
Fore
SplineSet
31 43 m 1
 29 43 l 1
 29 41 l 1
 31 41 l 1
 31 43 l 1
31 39 m 1
 29 39 l 1
 29 37 l 1
 31 37 l 1
 31 39 l 1
36 37 m 1
 34 37 l 1
 34 35 l 1
 36 35 l 1
 36 37 l 1
41 43 m 1
 39 43 l 1
 39 41 l 1
 41 41 l 1
 41 43 l 1
44 43 m 1
 42 43 l 1
 42 41 l 1
 43 41 l 1
 43 42 l 1
 44 42 l 1
 44 43 l 1
31 35 m 1
 29 35 l 1
 29 33 l 1
 31 33 l 1
 31 35 l 1
36 33 m 1
 34 33 l 1
 34 31 l 1
 36 31 l 1
 36 33 l 1
31 31 m 1
 29 31 l 1
 29 29 l 1
 31 29 l 1
 31 31 l 1
41 35 m 1
 39 35 l 1
 39 33 l 1
 41 33 l 1
 41 35 l 1
43 35 m 1
 42 35 l 1
 42 33 l 1
 44 33 l 1
 44 34 l 1
 43 34 l 1
 43 35 l 1
31 27 m 1
 29 27 l 1
 29 25 l 1
 31 25 l 1
 31 27 l 1
41 27 m 1
 39 27 l 1
 39 25 l 1
 41 25 l 1
 41 27 l 1
44 27 m 1
 42 27 l 1
 42 25 l 1
 43 25 l 1
 43 26 l 1
 44 26 l 1
 44 27 l 1
45 42 m 1
 44 42 l 1
 44 41 l 1
 46 41 l 1
 46 43 l 1
 45 43 l 1
 45 42 l 1
49 43 m 1
 47 43 l 1
 47 41 l 1
 49 41 l 1
 49 43 l 1
49 39 m 1
 47 39 l 1
 47 37 l 1
 49 37 l 1
 49 39 l 1
55 43 m 1
 53 43 l 1
 53 41 l 1
 55 41 l 1
 55 43 l 1
58 43 m 1
 56 43 l 1
 56 41 l 1
 57 41 l 1
 57 42 l 1
 58 42 l 1
 58 43 l 1
59 42 m 1
 58 42 l 1
 58 41 l 1
 60 41 l 1
 60 43 l 1
 59 43 l 1
 59 42 l 1
55 39 m 1
 53 39 l 1
 53 37 l 1
 55 37 l 1
 55 39 l 1
63 43 m 1
 61 43 l 1
 61 41 l 1
 63 41 l 1
 63 43 l 1
63 39 m 1
 61 39 l 1
 61 37 l 1
 63 37 l 1
 63 39 l 1
46 35 m 1
 44 35 l 1
 44 34 l 1
 45 34 l 1
 45 33 l 1
 46 33 l 1
 46 35 l 1
49 35 m 1
 47 35 l 1
 47 33 l 1
 49 33 l 1
 49 35 l 1
49 31 m 1
 47 31 l 1
 47 29 l 1
 49 29 l 1
 49 31 l 1
55 35 m 1
 53 35 l 1
 53 33 l 1
 55 33 l 1
 55 35 l 1
57 35 m 1
 56 35 l 1
 56 33 l 1
 58 33 l 1
 58 34 l 1
 57 34 l 1
 57 35 l 1
60 35 m 1
 58 35 l 1
 58 34 l 1
 59 34 l 1
 59 33 l 1
 60 33 l 1
 60 35 l 1
45 26 m 1
 44 26 l 1
 44 25 l 1
 46 25 l 1
 46 27 l 1
 45 27 l 1
 45 26 l 1
49 27 m 1
 47 27 l 1
 47 25 l 1
 49 25 l 1
 49 27 l 1
55 27 m 1
 53 27 l 1
 53 25 l 1
 55 25 l 1
 55 27 l 1
58 27 m 1
 56 27 l 1
 56 25 l 1
 57 25 l 1
 57 26 l 1
 58 26 l 1
 58 27 l 1
59 26 m 1
 58 26 l 1
 58 25 l 1
 60 25 l 1
 60 27 l 1
 59 27 l 1
 59 26 l 1
63 35 m 1
 61 35 l 1
 61 33 l 1
 63 33 l 1
 63 35 l 1
63 31 m 1
 61 31 l 1
 61 29 l 1
 63 29 l 1
 63 31 l 1
63 27 m 1
 61 27 l 1
 61 25 l 1
 63 25 l 1
 63 27 l 1
EndSplineSet
EndChar

StartChar: custom_3_9_0_3_4
Encoding: 31702 31702 11734
Width: 70
Flags: H
LayerCount: 2
Fore
SplineSet
31 43 m 1
 29 43 l 1
 29 41 l 1
 31 41 l 1
 31 43 l 1
31 39 m 1
 29 39 l 1
 29 37 l 1
 31 37 l 1
 31 39 l 1
36 37 m 1
 34 37 l 1
 34 35 l 1
 36 35 l 1
 36 37 l 1
41 43 m 1
 39 43 l 1
 39 41 l 1
 41 41 l 1
 41 43 l 1
44 43 m 1
 42 43 l 1
 42 41 l 1
 43 41 l 1
 43 42 l 1
 44 42 l 1
 44 43 l 1
31 35 m 1
 29 35 l 1
 29 33 l 1
 31 33 l 1
 31 35 l 1
36 33 m 1
 34 33 l 1
 34 31 l 1
 36 31 l 1
 36 33 l 1
31 31 m 1
 29 31 l 1
 29 29 l 1
 31 29 l 1
 31 31 l 1
41 35 m 1
 39 35 l 1
 39 33 l 1
 41 33 l 1
 41 35 l 1
43 35 m 1
 42 35 l 1
 42 33 l 1
 44 33 l 1
 44 34 l 1
 43 34 l 1
 43 35 l 1
31 27 m 1
 29 27 l 1
 29 25 l 1
 31 25 l 1
 31 27 l 1
41 27 m 1
 39 27 l 1
 39 25 l 1
 41 25 l 1
 41 27 l 1
44 27 m 1
 42 27 l 1
 42 25 l 1
 43 25 l 1
 43 26 l 1
 44 26 l 1
 44 27 l 1
45 42 m 1
 44 42 l 1
 44 41 l 1
 46 41 l 1
 46 43 l 1
 45 43 l 1
 45 42 l 1
49 43 m 1
 47 43 l 1
 47 41 l 1
 49 41 l 1
 49 43 l 1
49 39 m 1
 47 39 l 1
 47 37 l 1
 49 37 l 1
 49 39 l 1
55 43 m 1
 53 43 l 1
 53 41 l 1
 55 41 l 1
 55 43 l 1
58 43 m 1
 56 43 l 1
 56 41 l 1
 57 41 l 1
 57 42 l 1
 58 42 l 1
 58 43 l 1
59 42 m 1
 58 42 l 1
 58 41 l 1
 60 41 l 1
 60 43 l 1
 59 43 l 1
 59 42 l 1
55 39 m 1
 53 39 l 1
 53 37 l 1
 55 37 l 1
 55 39 l 1
63 43 m 1
 61 43 l 1
 61 41 l 1
 63 41 l 1
 63 43 l 1
63 39 m 1
 61 39 l 1
 61 37 l 1
 63 37 l 1
 63 39 l 1
46 35 m 1
 44 35 l 1
 44 34 l 1
 45 34 l 1
 45 33 l 1
 46 33 l 1
 46 35 l 1
49 35 m 1
 47 35 l 1
 47 33 l 1
 49 33 l 1
 49 35 l 1
49 31 m 1
 47 31 l 1
 47 29 l 1
 49 29 l 1
 49 31 l 1
55 35 m 1
 53 35 l 1
 53 33 l 1
 55 33 l 1
 55 35 l 1
57 35 m 1
 56 35 l 1
 56 33 l 1
 58 33 l 1
 58 34 l 1
 57 34 l 1
 57 35 l 1
60 35 m 1
 58 35 l 1
 58 34 l 1
 59 34 l 1
 59 33 l 1
 60 33 l 1
 60 35 l 1
45 26 m 1
 44 26 l 1
 44 25 l 1
 46 25 l 1
 46 27 l 1
 45 27 l 1
 45 26 l 1
49 27 m 1
 47 27 l 1
 47 25 l 1
 49 25 l 1
 49 27 l 1
55 27 m 1
 53 27 l 1
 53 25 l 1
 55 25 l 1
 55 27 l 1
58 27 m 1
 56 27 l 1
 56 25 l 1
 57 25 l 1
 57 26 l 1
 58 26 l 1
 58 27 l 1
59 26 m 1
 58 26 l 1
 58 25 l 1
 60 25 l 1
 60 27 l 1
 59 27 l 1
 59 26 l 1
63 35 m 1
 61 35 l 1
 61 33 l 1
 63 33 l 1
 63 35 l 1
63 31 m 1
 61 31 l 1
 61 29 l 1
 63 29 l 1
 63 31 l 1
63 27 m 1
 61 27 l 1
 61 25 l 1
 63 25 l 1
 63 27 l 1
EndSplineSet
EndChar

StartChar: custom_3_9_0_3_5
Encoding: 31703 31703 11735
Width: 70
Flags: H
LayerCount: 2
Fore
SplineSet
31 43 m 1
 29 43 l 1
 29 41 l 1
 31 41 l 1
 31 43 l 1
31 39 m 1
 29 39 l 1
 29 37 l 1
 31 37 l 1
 31 39 l 1
36 37 m 1
 34 37 l 1
 34 35 l 1
 36 35 l 1
 36 37 l 1
41 43 m 1
 39 43 l 1
 39 41 l 1
 41 41 l 1
 41 43 l 1
44 43 m 1
 42 43 l 1
 42 41 l 1
 43 41 l 1
 43 42 l 1
 44 42 l 1
 44 43 l 1
31 35 m 1
 29 35 l 1
 29 33 l 1
 31 33 l 1
 31 35 l 1
36 33 m 1
 34 33 l 1
 34 31 l 1
 36 31 l 1
 36 33 l 1
31 31 m 1
 29 31 l 1
 29 29 l 1
 31 29 l 1
 31 31 l 1
41 35 m 1
 39 35 l 1
 39 33 l 1
 41 33 l 1
 41 35 l 1
43 35 m 1
 42 35 l 1
 42 33 l 1
 44 33 l 1
 44 34 l 1
 43 34 l 1
 43 35 l 1
31 27 m 1
 29 27 l 1
 29 25 l 1
 31 25 l 1
 31 27 l 1
41 27 m 1
 39 27 l 1
 39 25 l 1
 41 25 l 1
 41 27 l 1
44 27 m 1
 42 27 l 1
 42 25 l 1
 43 25 l 1
 43 26 l 1
 44 26 l 1
 44 27 l 1
45 42 m 1
 44 42 l 1
 44 41 l 1
 46 41 l 1
 46 43 l 1
 45 43 l 1
 45 42 l 1
49 43 m 1
 47 43 l 1
 47 41 l 1
 49 41 l 1
 49 43 l 1
49 39 m 1
 47 39 l 1
 47 37 l 1
 49 37 l 1
 49 39 l 1
55 43 m 1
 53 43 l 1
 53 41 l 1
 55 41 l 1
 55 43 l 1
58 43 m 1
 56 43 l 1
 56 41 l 1
 57 41 l 1
 57 42 l 1
 58 42 l 1
 58 43 l 1
59 42 m 1
 58 42 l 1
 58 41 l 1
 60 41 l 1
 60 43 l 1
 59 43 l 1
 59 42 l 1
55 39 m 1
 53 39 l 1
 53 37 l 1
 55 37 l 1
 55 39 l 1
63 43 m 1
 61 43 l 1
 61 41 l 1
 63 41 l 1
 63 43 l 1
63 39 m 1
 61 39 l 1
 61 37 l 1
 63 37 l 1
 63 39 l 1
46 35 m 1
 44 35 l 1
 44 34 l 1
 45 34 l 1
 45 33 l 1
 46 33 l 1
 46 35 l 1
49 35 m 1
 47 35 l 1
 47 33 l 1
 49 33 l 1
 49 35 l 1
49 31 m 1
 47 31 l 1
 47 29 l 1
 49 29 l 1
 49 31 l 1
55 35 m 1
 53 35 l 1
 53 33 l 1
 55 33 l 1
 55 35 l 1
57 35 m 1
 56 35 l 1
 56 33 l 1
 58 33 l 1
 58 34 l 1
 57 34 l 1
 57 35 l 1
60 35 m 1
 58 35 l 1
 58 34 l 1
 59 34 l 1
 59 33 l 1
 60 33 l 1
 60 35 l 1
45 26 m 1
 44 26 l 1
 44 25 l 1
 46 25 l 1
 46 27 l 1
 45 27 l 1
 45 26 l 1
49 27 m 1
 47 27 l 1
 47 25 l 1
 49 25 l 1
 49 27 l 1
55 27 m 1
 53 27 l 1
 53 25 l 1
 55 25 l 1
 55 27 l 1
58 27 m 1
 56 27 l 1
 56 25 l 1
 57 25 l 1
 57 26 l 1
 58 26 l 1
 58 27 l 1
59 26 m 1
 58 26 l 1
 58 25 l 1
 60 25 l 1
 60 27 l 1
 59 27 l 1
 59 26 l 1
63 35 m 1
 61 35 l 1
 61 33 l 1
 63 33 l 1
 63 35 l 1
63 31 m 1
 61 31 l 1
 61 29 l 1
 63 29 l 1
 63 31 l 1
63 27 m 1
 61 27 l 1
 61 25 l 1
 63 25 l 1
 63 27 l 1
EndSplineSet
EndChar

StartChar: custom_3_9_0_3_6
Encoding: 31704 31704 11736
Width: 70
Flags: H
LayerCount: 2
Fore
SplineSet
31 43 m 1
 29 43 l 1
 29 41 l 1
 31 41 l 1
 31 43 l 1
31 39 m 1
 29 39 l 1
 29 37 l 1
 31 37 l 1
 31 39 l 1
36 37 m 1
 34 37 l 1
 34 35 l 1
 36 35 l 1
 36 37 l 1
41 43 m 1
 39 43 l 1
 39 41 l 1
 41 41 l 1
 41 43 l 1
44 43 m 1
 42 43 l 1
 42 41 l 1
 43 41 l 1
 43 42 l 1
 44 42 l 1
 44 43 l 1
31 35 m 1
 29 35 l 1
 29 33 l 1
 31 33 l 1
 31 35 l 1
36 33 m 1
 34 33 l 1
 34 31 l 1
 36 31 l 1
 36 33 l 1
31 31 m 1
 29 31 l 1
 29 29 l 1
 31 29 l 1
 31 31 l 1
41 35 m 1
 39 35 l 1
 39 33 l 1
 41 33 l 1
 41 35 l 1
43 35 m 1
 42 35 l 1
 42 33 l 1
 44 33 l 1
 44 34 l 1
 43 34 l 1
 43 35 l 1
31 27 m 1
 29 27 l 1
 29 25 l 1
 31 25 l 1
 31 27 l 1
41 27 m 1
 39 27 l 1
 39 25 l 1
 41 25 l 1
 41 27 l 1
44 27 m 1
 42 27 l 1
 42 25 l 1
 43 25 l 1
 43 26 l 1
 44 26 l 1
 44 27 l 1
45 42 m 1
 44 42 l 1
 44 41 l 1
 46 41 l 1
 46 43 l 1
 45 43 l 1
 45 42 l 1
49 43 m 1
 47 43 l 1
 47 41 l 1
 49 41 l 1
 49 43 l 1
49 39 m 1
 47 39 l 1
 47 37 l 1
 49 37 l 1
 49 39 l 1
55 43 m 1
 53 43 l 1
 53 41 l 1
 55 41 l 1
 55 43 l 1
58 43 m 1
 56 43 l 1
 56 41 l 1
 57 41 l 1
 57 42 l 1
 58 42 l 1
 58 43 l 1
59 42 m 1
 58 42 l 1
 58 41 l 1
 60 41 l 1
 60 43 l 1
 59 43 l 1
 59 42 l 1
55 39 m 1
 53 39 l 1
 53 37 l 1
 55 37 l 1
 55 39 l 1
63 43 m 1
 61 43 l 1
 61 41 l 1
 63 41 l 1
 63 43 l 1
63 39 m 1
 61 39 l 1
 61 37 l 1
 63 37 l 1
 63 39 l 1
46 35 m 1
 44 35 l 1
 44 34 l 1
 45 34 l 1
 45 33 l 1
 46 33 l 1
 46 35 l 1
49 35 m 1
 47 35 l 1
 47 33 l 1
 49 33 l 1
 49 35 l 1
49 31 m 1
 47 31 l 1
 47 29 l 1
 49 29 l 1
 49 31 l 1
55 35 m 1
 53 35 l 1
 53 33 l 1
 55 33 l 1
 55 35 l 1
57 35 m 1
 56 35 l 1
 56 33 l 1
 58 33 l 1
 58 34 l 1
 57 34 l 1
 57 35 l 1
60 35 m 1
 58 35 l 1
 58 34 l 1
 59 34 l 1
 59 33 l 1
 60 33 l 1
 60 35 l 1
45 26 m 1
 44 26 l 1
 44 25 l 1
 46 25 l 1
 46 27 l 1
 45 27 l 1
 45 26 l 1
49 27 m 1
 47 27 l 1
 47 25 l 1
 49 25 l 1
 49 27 l 1
55 27 m 1
 53 27 l 1
 53 25 l 1
 55 25 l 1
 55 27 l 1
58 27 m 1
 56 27 l 1
 56 25 l 1
 57 25 l 1
 57 26 l 1
 58 26 l 1
 58 27 l 1
59 26 m 1
 58 26 l 1
 58 25 l 1
 60 25 l 1
 60 27 l 1
 59 27 l 1
 59 26 l 1
63 35 m 1
 61 35 l 1
 61 33 l 1
 63 33 l 1
 63 35 l 1
63 31 m 1
 61 31 l 1
 61 29 l 1
 63 29 l 1
 63 31 l 1
63 27 m 1
 61 27 l 1
 61 25 l 1
 63 25 l 1
 63 27 l 1
EndSplineSet
EndChar

StartChar: custom_3_9_0_3_7
Encoding: 31705 31705 11737
Width: 70
Flags: H
LayerCount: 2
Fore
SplineSet
31 43 m 1
 29 43 l 1
 29 41 l 1
 31 41 l 1
 31 43 l 1
31 39 m 1
 29 39 l 1
 29 37 l 1
 31 37 l 1
 31 39 l 1
36 37 m 1
 34 37 l 1
 34 35 l 1
 36 35 l 1
 36 37 l 1
41 43 m 1
 39 43 l 1
 39 41 l 1
 41 41 l 1
 41 43 l 1
44 43 m 1
 42 43 l 1
 42 41 l 1
 43 41 l 1
 43 42 l 1
 44 42 l 1
 44 43 l 1
31 35 m 1
 29 35 l 1
 29 33 l 1
 31 33 l 1
 31 35 l 1
36 33 m 1
 34 33 l 1
 34 31 l 1
 36 31 l 1
 36 33 l 1
31 31 m 1
 29 31 l 1
 29 29 l 1
 31 29 l 1
 31 31 l 1
41 35 m 1
 39 35 l 1
 39 33 l 1
 41 33 l 1
 41 35 l 1
43 35 m 1
 42 35 l 1
 42 33 l 1
 44 33 l 1
 44 34 l 1
 43 34 l 1
 43 35 l 1
31 27 m 1
 29 27 l 1
 29 25 l 1
 31 25 l 1
 31 27 l 1
41 27 m 1
 39 27 l 1
 39 25 l 1
 41 25 l 1
 41 27 l 1
44 27 m 1
 42 27 l 1
 42 25 l 1
 43 25 l 1
 43 26 l 1
 44 26 l 1
 44 27 l 1
45 42 m 1
 44 42 l 1
 44 41 l 1
 46 41 l 1
 46 43 l 1
 45 43 l 1
 45 42 l 1
49 43 m 1
 47 43 l 1
 47 41 l 1
 49 41 l 1
 49 43 l 1
49 39 m 1
 47 39 l 1
 47 37 l 1
 49 37 l 1
 49 39 l 1
55 43 m 1
 53 43 l 1
 53 41 l 1
 55 41 l 1
 55 43 l 1
58 43 m 1
 56 43 l 1
 56 41 l 1
 57 41 l 1
 57 42 l 1
 58 42 l 1
 58 43 l 1
59 42 m 1
 58 42 l 1
 58 41 l 1
 60 41 l 1
 60 43 l 1
 59 43 l 1
 59 42 l 1
55 39 m 1
 53 39 l 1
 53 37 l 1
 55 37 l 1
 55 39 l 1
63 43 m 1
 61 43 l 1
 61 41 l 1
 63 41 l 1
 63 43 l 1
63 39 m 1
 61 39 l 1
 61 37 l 1
 63 37 l 1
 63 39 l 1
46 35 m 1
 44 35 l 1
 44 34 l 1
 45 34 l 1
 45 33 l 1
 46 33 l 1
 46 35 l 1
49 35 m 1
 47 35 l 1
 47 33 l 1
 49 33 l 1
 49 35 l 1
49 31 m 1
 47 31 l 1
 47 29 l 1
 49 29 l 1
 49 31 l 1
55 35 m 1
 53 35 l 1
 53 33 l 1
 55 33 l 1
 55 35 l 1
57 35 m 1
 56 35 l 1
 56 33 l 1
 58 33 l 1
 58 34 l 1
 57 34 l 1
 57 35 l 1
60 35 m 1
 58 35 l 1
 58 34 l 1
 59 34 l 1
 59 33 l 1
 60 33 l 1
 60 35 l 1
45 26 m 1
 44 26 l 1
 44 25 l 1
 46 25 l 1
 46 27 l 1
 45 27 l 1
 45 26 l 1
49 27 m 1
 47 27 l 1
 47 25 l 1
 49 25 l 1
 49 27 l 1
55 27 m 1
 53 27 l 1
 53 25 l 1
 55 25 l 1
 55 27 l 1
58 27 m 1
 56 27 l 1
 56 25 l 1
 57 25 l 1
 57 26 l 1
 58 26 l 1
 58 27 l 1
59 26 m 1
 58 26 l 1
 58 25 l 1
 60 25 l 1
 60 27 l 1
 59 27 l 1
 59 26 l 1
63 35 m 1
 61 35 l 1
 61 33 l 1
 63 33 l 1
 63 35 l 1
63 31 m 1
 61 31 l 1
 61 29 l 1
 63 29 l 1
 63 31 l 1
63 27 m 1
 61 27 l 1
 61 25 l 1
 63 25 l 1
 63 27 l 1
EndSplineSet
EndChar

StartChar: custom_3_9_0_3_8
Encoding: 31706 31706 11738
Width: 70
Flags: H
LayerCount: 2
Fore
SplineSet
31 43 m 1
 29 43 l 1
 29 41 l 1
 31 41 l 1
 31 43 l 1
31 39 m 1
 29 39 l 1
 29 37 l 1
 31 37 l 1
 31 39 l 1
36 37 m 1
 34 37 l 1
 34 35 l 1
 36 35 l 1
 36 37 l 1
41 43 m 1
 39 43 l 1
 39 41 l 1
 41 41 l 1
 41 43 l 1
44 43 m 1
 42 43 l 1
 42 41 l 1
 43 41 l 1
 43 42 l 1
 44 42 l 1
 44 43 l 1
31 35 m 1
 29 35 l 1
 29 33 l 1
 31 33 l 1
 31 35 l 1
36 33 m 1
 34 33 l 1
 34 31 l 1
 36 31 l 1
 36 33 l 1
31 31 m 1
 29 31 l 1
 29 29 l 1
 31 29 l 1
 31 31 l 1
41 35 m 1
 39 35 l 1
 39 33 l 1
 41 33 l 1
 41 35 l 1
43 35 m 1
 42 35 l 1
 42 33 l 1
 44 33 l 1
 44 34 l 1
 43 34 l 1
 43 35 l 1
31 27 m 1
 29 27 l 1
 29 25 l 1
 31 25 l 1
 31 27 l 1
41 27 m 1
 39 27 l 1
 39 25 l 1
 41 25 l 1
 41 27 l 1
44 27 m 1
 42 27 l 1
 42 25 l 1
 43 25 l 1
 43 26 l 1
 44 26 l 1
 44 27 l 1
45 42 m 1
 44 42 l 1
 44 41 l 1
 46 41 l 1
 46 43 l 1
 45 43 l 1
 45 42 l 1
49 43 m 1
 47 43 l 1
 47 41 l 1
 49 41 l 1
 49 43 l 1
49 39 m 1
 47 39 l 1
 47 37 l 1
 49 37 l 1
 49 39 l 1
55 43 m 1
 53 43 l 1
 53 41 l 1
 55 41 l 1
 55 43 l 1
58 43 m 1
 56 43 l 1
 56 41 l 1
 57 41 l 1
 57 42 l 1
 58 42 l 1
 58 43 l 1
59 42 m 1
 58 42 l 1
 58 41 l 1
 60 41 l 1
 60 43 l 1
 59 43 l 1
 59 42 l 1
55 39 m 1
 53 39 l 1
 53 37 l 1
 55 37 l 1
 55 39 l 1
63 43 m 1
 61 43 l 1
 61 41 l 1
 63 41 l 1
 63 43 l 1
63 39 m 1
 61 39 l 1
 61 37 l 1
 63 37 l 1
 63 39 l 1
46 35 m 1
 44 35 l 1
 44 34 l 1
 45 34 l 1
 45 33 l 1
 46 33 l 1
 46 35 l 1
49 35 m 1
 47 35 l 1
 47 33 l 1
 49 33 l 1
 49 35 l 1
49 31 m 1
 47 31 l 1
 47 29 l 1
 49 29 l 1
 49 31 l 1
55 35 m 1
 53 35 l 1
 53 33 l 1
 55 33 l 1
 55 35 l 1
57 35 m 1
 56 35 l 1
 56 33 l 1
 58 33 l 1
 58 34 l 1
 57 34 l 1
 57 35 l 1
60 35 m 1
 58 35 l 1
 58 34 l 1
 59 34 l 1
 59 33 l 1
 60 33 l 1
 60 35 l 1
45 26 m 1
 44 26 l 1
 44 25 l 1
 46 25 l 1
 46 27 l 1
 45 27 l 1
 45 26 l 1
49 27 m 1
 47 27 l 1
 47 25 l 1
 49 25 l 1
 49 27 l 1
55 27 m 1
 53 27 l 1
 53 25 l 1
 55 25 l 1
 55 27 l 1
58 27 m 1
 56 27 l 1
 56 25 l 1
 57 25 l 1
 57 26 l 1
 58 26 l 1
 58 27 l 1
59 26 m 1
 58 26 l 1
 58 25 l 1
 60 25 l 1
 60 27 l 1
 59 27 l 1
 59 26 l 1
63 35 m 1
 61 35 l 1
 61 33 l 1
 63 33 l 1
 63 35 l 1
63 31 m 1
 61 31 l 1
 61 29 l 1
 63 29 l 1
 63 31 l 1
63 27 m 1
 61 27 l 1
 61 25 l 1
 63 25 l 1
 63 27 l 1
EndSplineSet
EndChar

StartChar: custom_3_9_0_3_9
Encoding: 31707 31707 11739
Width: 70
Flags: H
LayerCount: 2
Fore
SplineSet
31 43 m 1
 29 43 l 1
 29 41 l 1
 31 41 l 1
 31 43 l 1
31 39 m 1
 29 39 l 1
 29 37 l 1
 31 37 l 1
 31 39 l 1
36 37 m 1
 34 37 l 1
 34 35 l 1
 36 35 l 1
 36 37 l 1
41 43 m 1
 39 43 l 1
 39 41 l 1
 41 41 l 1
 41 43 l 1
44 43 m 1
 42 43 l 1
 42 41 l 1
 43 41 l 1
 43 42 l 1
 44 42 l 1
 44 43 l 1
31 35 m 1
 29 35 l 1
 29 33 l 1
 31 33 l 1
 31 35 l 1
36 33 m 1
 34 33 l 1
 34 31 l 1
 36 31 l 1
 36 33 l 1
31 31 m 1
 29 31 l 1
 29 29 l 1
 31 29 l 1
 31 31 l 1
41 35 m 1
 39 35 l 1
 39 33 l 1
 41 33 l 1
 41 35 l 1
43 35 m 1
 42 35 l 1
 42 33 l 1
 44 33 l 1
 44 34 l 1
 43 34 l 1
 43 35 l 1
31 27 m 1
 29 27 l 1
 29 25 l 1
 31 25 l 1
 31 27 l 1
41 27 m 1
 39 27 l 1
 39 25 l 1
 41 25 l 1
 41 27 l 1
44 27 m 1
 42 27 l 1
 42 25 l 1
 43 25 l 1
 43 26 l 1
 44 26 l 1
 44 27 l 1
45 42 m 1
 44 42 l 1
 44 41 l 1
 46 41 l 1
 46 43 l 1
 45 43 l 1
 45 42 l 1
49 43 m 1
 47 43 l 1
 47 41 l 1
 49 41 l 1
 49 43 l 1
49 39 m 1
 47 39 l 1
 47 37 l 1
 49 37 l 1
 49 39 l 1
55 43 m 1
 53 43 l 1
 53 41 l 1
 55 41 l 1
 55 43 l 1
58 43 m 1
 56 43 l 1
 56 41 l 1
 57 41 l 1
 57 42 l 1
 58 42 l 1
 58 43 l 1
59 42 m 1
 58 42 l 1
 58 41 l 1
 60 41 l 1
 60 43 l 1
 59 43 l 1
 59 42 l 1
55 39 m 1
 53 39 l 1
 53 37 l 1
 55 37 l 1
 55 39 l 1
63 43 m 1
 61 43 l 1
 61 41 l 1
 63 41 l 1
 63 43 l 1
63 39 m 1
 61 39 l 1
 61 37 l 1
 63 37 l 1
 63 39 l 1
46 35 m 1
 44 35 l 1
 44 34 l 1
 45 34 l 1
 45 33 l 1
 46 33 l 1
 46 35 l 1
49 35 m 1
 47 35 l 1
 47 33 l 1
 49 33 l 1
 49 35 l 1
49 31 m 1
 47 31 l 1
 47 29 l 1
 49 29 l 1
 49 31 l 1
55 35 m 1
 53 35 l 1
 53 33 l 1
 55 33 l 1
 55 35 l 1
57 35 m 1
 56 35 l 1
 56 33 l 1
 58 33 l 1
 58 34 l 1
 57 34 l 1
 57 35 l 1
60 35 m 1
 58 35 l 1
 58 34 l 1
 59 34 l 1
 59 33 l 1
 60 33 l 1
 60 35 l 1
45 26 m 1
 44 26 l 1
 44 25 l 1
 46 25 l 1
 46 27 l 1
 45 27 l 1
 45 26 l 1
49 27 m 1
 47 27 l 1
 47 25 l 1
 49 25 l 1
 49 27 l 1
55 27 m 1
 53 27 l 1
 53 25 l 1
 55 25 l 1
 55 27 l 1
58 27 m 1
 56 27 l 1
 56 25 l 1
 57 25 l 1
 57 26 l 1
 58 26 l 1
 58 27 l 1
59 26 m 1
 58 26 l 1
 58 25 l 1
 60 25 l 1
 60 27 l 1
 59 27 l 1
 59 26 l 1
63 35 m 1
 61 35 l 1
 61 33 l 1
 63 33 l 1
 63 35 l 1
63 31 m 1
 61 31 l 1
 61 29 l 1
 63 29 l 1
 63 31 l 1
63 27 m 1
 61 27 l 1
 61 25 l 1
 63 25 l 1
 63 27 l 1
EndSplineSet
EndChar

StartChar: custom_3_9_0_4_0
Encoding: 31708 31708 11740
Width: 70
Flags: H
LayerCount: 2
Fore
SplineSet
31 43 m 1
 29 43 l 1
 29 41 l 1
 31 41 l 1
 31 43 l 1
31 39 m 1
 29 39 l 1
 29 37 l 1
 31 37 l 1
 31 39 l 1
36 37 m 1
 34 37 l 1
 34 35 l 1
 36 35 l 1
 36 37 l 1
41 43 m 1
 39 43 l 1
 39 41 l 1
 41 41 l 1
 41 43 l 1
44 43 m 1
 42 43 l 1
 42 41 l 1
 43 41 l 1
 43 42 l 1
 44 42 l 1
 44 43 l 1
31 35 m 1
 29 35 l 1
 29 33 l 1
 31 33 l 1
 31 35 l 1
36 33 m 1
 34 33 l 1
 34 31 l 1
 36 31 l 1
 36 33 l 1
31 31 m 1
 29 31 l 1
 29 29 l 1
 31 29 l 1
 31 31 l 1
41 35 m 1
 39 35 l 1
 39 33 l 1
 41 33 l 1
 41 35 l 1
43 35 m 1
 42 35 l 1
 42 33 l 1
 44 33 l 1
 44 34 l 1
 43 34 l 1
 43 35 l 1
31 27 m 1
 29 27 l 1
 29 25 l 1
 31 25 l 1
 31 27 l 1
41 27 m 1
 39 27 l 1
 39 25 l 1
 41 25 l 1
 41 27 l 1
44 27 m 1
 42 27 l 1
 42 25 l 1
 43 25 l 1
 43 26 l 1
 44 26 l 1
 44 27 l 1
45 42 m 1
 44 42 l 1
 44 41 l 1
 46 41 l 1
 46 43 l 1
 45 43 l 1
 45 42 l 1
49 43 m 1
 47 43 l 1
 47 41 l 1
 49 41 l 1
 49 43 l 1
49 39 m 1
 47 39 l 1
 47 37 l 1
 49 37 l 1
 49 39 l 1
55 43 m 1
 53 43 l 1
 53 41 l 1
 55 41 l 1
 55 43 l 1
58 43 m 1
 56 43 l 1
 56 41 l 1
 57 41 l 1
 57 42 l 1
 58 42 l 1
 58 43 l 1
59 42 m 1
 58 42 l 1
 58 41 l 1
 60 41 l 1
 60 43 l 1
 59 43 l 1
 59 42 l 1
55 39 m 1
 53 39 l 1
 53 37 l 1
 55 37 l 1
 55 39 l 1
63 43 m 1
 61 43 l 1
 61 41 l 1
 63 41 l 1
 63 43 l 1
63 39 m 1
 61 39 l 1
 61 37 l 1
 63 37 l 1
 63 39 l 1
46 35 m 1
 44 35 l 1
 44 34 l 1
 45 34 l 1
 45 33 l 1
 46 33 l 1
 46 35 l 1
49 35 m 1
 47 35 l 1
 47 33 l 1
 49 33 l 1
 49 35 l 1
49 31 m 1
 47 31 l 1
 47 29 l 1
 49 29 l 1
 49 31 l 1
55 35 m 1
 53 35 l 1
 53 33 l 1
 55 33 l 1
 55 35 l 1
57 35 m 1
 56 35 l 1
 56 33 l 1
 58 33 l 1
 58 34 l 1
 57 34 l 1
 57 35 l 1
60 35 m 1
 58 35 l 1
 58 34 l 1
 59 34 l 1
 59 33 l 1
 60 33 l 1
 60 35 l 1
45 26 m 1
 44 26 l 1
 44 25 l 1
 46 25 l 1
 46 27 l 1
 45 27 l 1
 45 26 l 1
49 27 m 1
 47 27 l 1
 47 25 l 1
 49 25 l 1
 49 27 l 1
55 27 m 1
 53 27 l 1
 53 25 l 1
 55 25 l 1
 55 27 l 1
58 27 m 1
 56 27 l 1
 56 25 l 1
 57 25 l 1
 57 26 l 1
 58 26 l 1
 58 27 l 1
59 26 m 1
 58 26 l 1
 58 25 l 1
 60 25 l 1
 60 27 l 1
 59 27 l 1
 59 26 l 1
63 35 m 1
 61 35 l 1
 61 33 l 1
 63 33 l 1
 63 35 l 1
63 31 m 1
 61 31 l 1
 61 29 l 1
 63 29 l 1
 63 31 l 1
63 27 m 1
 61 27 l 1
 61 25 l 1
 63 25 l 1
 63 27 l 1
EndSplineSet
EndChar

StartChar: custom_3_9_0_4_1
Encoding: 31709 31709 11741
Width: 70
Flags: H
LayerCount: 2
Fore
SplineSet
31 43 m 1
 29 43 l 1
 29 41 l 1
 31 41 l 1
 31 43 l 1
31 39 m 1
 29 39 l 1
 29 37 l 1
 31 37 l 1
 31 39 l 1
36 37 m 1
 34 37 l 1
 34 35 l 1
 36 35 l 1
 36 37 l 1
41 43 m 1
 39 43 l 1
 39 41 l 1
 41 41 l 1
 41 43 l 1
44 43 m 1
 42 43 l 1
 42 41 l 1
 43 41 l 1
 43 42 l 1
 44 42 l 1
 44 43 l 1
31 35 m 1
 29 35 l 1
 29 33 l 1
 31 33 l 1
 31 35 l 1
36 33 m 1
 34 33 l 1
 34 31 l 1
 36 31 l 1
 36 33 l 1
31 31 m 1
 29 31 l 1
 29 29 l 1
 31 29 l 1
 31 31 l 1
41 35 m 1
 39 35 l 1
 39 33 l 1
 41 33 l 1
 41 35 l 1
43 35 m 1
 42 35 l 1
 42 33 l 1
 44 33 l 1
 44 34 l 1
 43 34 l 1
 43 35 l 1
31 27 m 1
 29 27 l 1
 29 25 l 1
 31 25 l 1
 31 27 l 1
41 27 m 1
 39 27 l 1
 39 25 l 1
 41 25 l 1
 41 27 l 1
44 27 m 1
 42 27 l 1
 42 25 l 1
 43 25 l 1
 43 26 l 1
 44 26 l 1
 44 27 l 1
45 42 m 1
 44 42 l 1
 44 41 l 1
 46 41 l 1
 46 43 l 1
 45 43 l 1
 45 42 l 1
49 43 m 1
 47 43 l 1
 47 41 l 1
 49 41 l 1
 49 43 l 1
49 39 m 1
 47 39 l 1
 47 37 l 1
 49 37 l 1
 49 39 l 1
55 43 m 1
 53 43 l 1
 53 41 l 1
 55 41 l 1
 55 43 l 1
58 43 m 1
 56 43 l 1
 56 41 l 1
 57 41 l 1
 57 42 l 1
 58 42 l 1
 58 43 l 1
59 42 m 1
 58 42 l 1
 58 41 l 1
 60 41 l 1
 60 43 l 1
 59 43 l 1
 59 42 l 1
55 39 m 1
 53 39 l 1
 53 37 l 1
 55 37 l 1
 55 39 l 1
63 43 m 1
 61 43 l 1
 61 41 l 1
 63 41 l 1
 63 43 l 1
63 39 m 1
 61 39 l 1
 61 37 l 1
 63 37 l 1
 63 39 l 1
46 35 m 1
 44 35 l 1
 44 34 l 1
 45 34 l 1
 45 33 l 1
 46 33 l 1
 46 35 l 1
49 35 m 1
 47 35 l 1
 47 33 l 1
 49 33 l 1
 49 35 l 1
49 31 m 1
 47 31 l 1
 47 29 l 1
 49 29 l 1
 49 31 l 1
55 35 m 1
 53 35 l 1
 53 33 l 1
 55 33 l 1
 55 35 l 1
57 35 m 1
 56 35 l 1
 56 33 l 1
 58 33 l 1
 58 34 l 1
 57 34 l 1
 57 35 l 1
60 35 m 1
 58 35 l 1
 58 34 l 1
 59 34 l 1
 59 33 l 1
 60 33 l 1
 60 35 l 1
45 26 m 1
 44 26 l 1
 44 25 l 1
 46 25 l 1
 46 27 l 1
 45 27 l 1
 45 26 l 1
49 27 m 1
 47 27 l 1
 47 25 l 1
 49 25 l 1
 49 27 l 1
55 27 m 1
 53 27 l 1
 53 25 l 1
 55 25 l 1
 55 27 l 1
58 27 m 1
 56 27 l 1
 56 25 l 1
 57 25 l 1
 57 26 l 1
 58 26 l 1
 58 27 l 1
59 26 m 1
 58 26 l 1
 58 25 l 1
 60 25 l 1
 60 27 l 1
 59 27 l 1
 59 26 l 1
63 35 m 1
 61 35 l 1
 61 33 l 1
 63 33 l 1
 63 35 l 1
63 31 m 1
 61 31 l 1
 61 29 l 1
 63 29 l 1
 63 31 l 1
63 27 m 1
 61 27 l 1
 61 25 l 1
 63 25 l 1
 63 27 l 1
EndSplineSet
EndChar

StartChar: custom_3_9_0_4_2
Encoding: 31710 31710 11742
Width: 70
Flags: H
LayerCount: 2
Fore
SplineSet
31 43 m 1
 29 43 l 1
 29 41 l 1
 31 41 l 1
 31 43 l 1
31 39 m 1
 29 39 l 1
 29 37 l 1
 31 37 l 1
 31 39 l 1
36 37 m 1
 34 37 l 1
 34 35 l 1
 36 35 l 1
 36 37 l 1
41 43 m 1
 39 43 l 1
 39 41 l 1
 41 41 l 1
 41 43 l 1
44 43 m 1
 42 43 l 1
 42 41 l 1
 43 41 l 1
 43 42 l 1
 44 42 l 1
 44 43 l 1
31 35 m 1
 29 35 l 1
 29 33 l 1
 31 33 l 1
 31 35 l 1
36 33 m 1
 34 33 l 1
 34 31 l 1
 36 31 l 1
 36 33 l 1
31 31 m 1
 29 31 l 1
 29 29 l 1
 31 29 l 1
 31 31 l 1
41 35 m 1
 39 35 l 1
 39 33 l 1
 41 33 l 1
 41 35 l 1
43 35 m 1
 42 35 l 1
 42 33 l 1
 44 33 l 1
 44 34 l 1
 43 34 l 1
 43 35 l 1
31 27 m 1
 29 27 l 1
 29 25 l 1
 31 25 l 1
 31 27 l 1
41 27 m 1
 39 27 l 1
 39 25 l 1
 41 25 l 1
 41 27 l 1
44 27 m 1
 42 27 l 1
 42 25 l 1
 43 25 l 1
 43 26 l 1
 44 26 l 1
 44 27 l 1
45 42 m 1
 44 42 l 1
 44 41 l 1
 46 41 l 1
 46 43 l 1
 45 43 l 1
 45 42 l 1
49 43 m 1
 47 43 l 1
 47 41 l 1
 49 41 l 1
 49 43 l 1
49 39 m 1
 47 39 l 1
 47 37 l 1
 49 37 l 1
 49 39 l 1
55 43 m 1
 53 43 l 1
 53 41 l 1
 55 41 l 1
 55 43 l 1
58 43 m 1
 56 43 l 1
 56 41 l 1
 57 41 l 1
 57 42 l 1
 58 42 l 1
 58 43 l 1
59 42 m 1
 58 42 l 1
 58 41 l 1
 60 41 l 1
 60 43 l 1
 59 43 l 1
 59 42 l 1
55 39 m 1
 53 39 l 1
 53 37 l 1
 55 37 l 1
 55 39 l 1
63 43 m 1
 61 43 l 1
 61 41 l 1
 63 41 l 1
 63 43 l 1
63 39 m 1
 61 39 l 1
 61 37 l 1
 63 37 l 1
 63 39 l 1
46 35 m 1
 44 35 l 1
 44 34 l 1
 45 34 l 1
 45 33 l 1
 46 33 l 1
 46 35 l 1
49 35 m 1
 47 35 l 1
 47 33 l 1
 49 33 l 1
 49 35 l 1
49 31 m 1
 47 31 l 1
 47 29 l 1
 49 29 l 1
 49 31 l 1
55 35 m 1
 53 35 l 1
 53 33 l 1
 55 33 l 1
 55 35 l 1
57 35 m 1
 56 35 l 1
 56 33 l 1
 58 33 l 1
 58 34 l 1
 57 34 l 1
 57 35 l 1
60 35 m 1
 58 35 l 1
 58 34 l 1
 59 34 l 1
 59 33 l 1
 60 33 l 1
 60 35 l 1
45 26 m 1
 44 26 l 1
 44 25 l 1
 46 25 l 1
 46 27 l 1
 45 27 l 1
 45 26 l 1
49 27 m 1
 47 27 l 1
 47 25 l 1
 49 25 l 1
 49 27 l 1
55 27 m 1
 53 27 l 1
 53 25 l 1
 55 25 l 1
 55 27 l 1
58 27 m 1
 56 27 l 1
 56 25 l 1
 57 25 l 1
 57 26 l 1
 58 26 l 1
 58 27 l 1
59 26 m 1
 58 26 l 1
 58 25 l 1
 60 25 l 1
 60 27 l 1
 59 27 l 1
 59 26 l 1
63 35 m 1
 61 35 l 1
 61 33 l 1
 63 33 l 1
 63 35 l 1
63 31 m 1
 61 31 l 1
 61 29 l 1
 63 29 l 1
 63 31 l 1
63 27 m 1
 61 27 l 1
 61 25 l 1
 63 25 l 1
 63 27 l 1
EndSplineSet
EndChar

StartChar: custom_3_9_0_4_3
Encoding: 31711 31711 11743
Width: 70
Flags: H
LayerCount: 2
Fore
SplineSet
31 43 m 1
 29 43 l 1
 29 41 l 1
 31 41 l 1
 31 43 l 1
31 39 m 1
 29 39 l 1
 29 37 l 1
 31 37 l 1
 31 39 l 1
36 37 m 1
 34 37 l 1
 34 35 l 1
 36 35 l 1
 36 37 l 1
41 43 m 1
 39 43 l 1
 39 41 l 1
 41 41 l 1
 41 43 l 1
44 43 m 1
 42 43 l 1
 42 41 l 1
 43 41 l 1
 43 42 l 1
 44 42 l 1
 44 43 l 1
31 35 m 1
 29 35 l 1
 29 33 l 1
 31 33 l 1
 31 35 l 1
36 33 m 1
 34 33 l 1
 34 31 l 1
 36 31 l 1
 36 33 l 1
31 31 m 1
 29 31 l 1
 29 29 l 1
 31 29 l 1
 31 31 l 1
41 35 m 1
 39 35 l 1
 39 33 l 1
 41 33 l 1
 41 35 l 1
43 35 m 1
 42 35 l 1
 42 33 l 1
 44 33 l 1
 44 34 l 1
 43 34 l 1
 43 35 l 1
31 27 m 1
 29 27 l 1
 29 25 l 1
 31 25 l 1
 31 27 l 1
41 27 m 1
 39 27 l 1
 39 25 l 1
 41 25 l 1
 41 27 l 1
44 27 m 1
 42 27 l 1
 42 25 l 1
 43 25 l 1
 43 26 l 1
 44 26 l 1
 44 27 l 1
45 42 m 1
 44 42 l 1
 44 41 l 1
 46 41 l 1
 46 43 l 1
 45 43 l 1
 45 42 l 1
49 43 m 1
 47 43 l 1
 47 41 l 1
 49 41 l 1
 49 43 l 1
49 39 m 1
 47 39 l 1
 47 37 l 1
 49 37 l 1
 49 39 l 1
55 43 m 1
 53 43 l 1
 53 41 l 1
 55 41 l 1
 55 43 l 1
58 43 m 1
 56 43 l 1
 56 41 l 1
 57 41 l 1
 57 42 l 1
 58 42 l 1
 58 43 l 1
59 42 m 1
 58 42 l 1
 58 41 l 1
 60 41 l 1
 60 43 l 1
 59 43 l 1
 59 42 l 1
55 39 m 1
 53 39 l 1
 53 37 l 1
 55 37 l 1
 55 39 l 1
63 43 m 1
 61 43 l 1
 61 41 l 1
 63 41 l 1
 63 43 l 1
63 39 m 1
 61 39 l 1
 61 37 l 1
 63 37 l 1
 63 39 l 1
46 35 m 1
 44 35 l 1
 44 34 l 1
 45 34 l 1
 45 33 l 1
 46 33 l 1
 46 35 l 1
49 35 m 1
 47 35 l 1
 47 33 l 1
 49 33 l 1
 49 35 l 1
49 31 m 1
 47 31 l 1
 47 29 l 1
 49 29 l 1
 49 31 l 1
55 35 m 1
 53 35 l 1
 53 33 l 1
 55 33 l 1
 55 35 l 1
57 35 m 1
 56 35 l 1
 56 33 l 1
 58 33 l 1
 58 34 l 1
 57 34 l 1
 57 35 l 1
60 35 m 1
 58 35 l 1
 58 34 l 1
 59 34 l 1
 59 33 l 1
 60 33 l 1
 60 35 l 1
45 26 m 1
 44 26 l 1
 44 25 l 1
 46 25 l 1
 46 27 l 1
 45 27 l 1
 45 26 l 1
49 27 m 1
 47 27 l 1
 47 25 l 1
 49 25 l 1
 49 27 l 1
55 27 m 1
 53 27 l 1
 53 25 l 1
 55 25 l 1
 55 27 l 1
58 27 m 1
 56 27 l 1
 56 25 l 1
 57 25 l 1
 57 26 l 1
 58 26 l 1
 58 27 l 1
59 26 m 1
 58 26 l 1
 58 25 l 1
 60 25 l 1
 60 27 l 1
 59 27 l 1
 59 26 l 1
63 35 m 1
 61 35 l 1
 61 33 l 1
 63 33 l 1
 63 35 l 1
63 31 m 1
 61 31 l 1
 61 29 l 1
 63 29 l 1
 63 31 l 1
63 27 m 1
 61 27 l 1
 61 25 l 1
 63 25 l 1
 63 27 l 1
EndSplineSet
EndChar

StartChar: custom_3_9_0_4_4
Encoding: 31712 31712 11744
Width: 70
Flags: H
LayerCount: 2
Fore
SplineSet
31 43 m 1
 29 43 l 1
 29 41 l 1
 31 41 l 1
 31 43 l 1
31 39 m 1
 29 39 l 1
 29 37 l 1
 31 37 l 1
 31 39 l 1
36 37 m 1
 34 37 l 1
 34 35 l 1
 36 35 l 1
 36 37 l 1
41 43 m 1
 39 43 l 1
 39 41 l 1
 41 41 l 1
 41 43 l 1
44 43 m 1
 42 43 l 1
 42 41 l 1
 43 41 l 1
 43 42 l 1
 44 42 l 1
 44 43 l 1
31 35 m 1
 29 35 l 1
 29 33 l 1
 31 33 l 1
 31 35 l 1
36 33 m 1
 34 33 l 1
 34 31 l 1
 36 31 l 1
 36 33 l 1
31 31 m 1
 29 31 l 1
 29 29 l 1
 31 29 l 1
 31 31 l 1
41 35 m 1
 39 35 l 1
 39 33 l 1
 41 33 l 1
 41 35 l 1
43 35 m 1
 42 35 l 1
 42 33 l 1
 44 33 l 1
 44 34 l 1
 43 34 l 1
 43 35 l 1
31 27 m 1
 29 27 l 1
 29 25 l 1
 31 25 l 1
 31 27 l 1
41 27 m 1
 39 27 l 1
 39 25 l 1
 41 25 l 1
 41 27 l 1
44 27 m 1
 42 27 l 1
 42 25 l 1
 43 25 l 1
 43 26 l 1
 44 26 l 1
 44 27 l 1
45 42 m 1
 44 42 l 1
 44 41 l 1
 46 41 l 1
 46 43 l 1
 45 43 l 1
 45 42 l 1
49 43 m 1
 47 43 l 1
 47 41 l 1
 49 41 l 1
 49 43 l 1
49 39 m 1
 47 39 l 1
 47 37 l 1
 49 37 l 1
 49 39 l 1
55 43 m 1
 53 43 l 1
 53 41 l 1
 55 41 l 1
 55 43 l 1
58 43 m 1
 56 43 l 1
 56 41 l 1
 57 41 l 1
 57 42 l 1
 58 42 l 1
 58 43 l 1
59 42 m 1
 58 42 l 1
 58 41 l 1
 60 41 l 1
 60 43 l 1
 59 43 l 1
 59 42 l 1
55 39 m 1
 53 39 l 1
 53 37 l 1
 55 37 l 1
 55 39 l 1
63 43 m 1
 61 43 l 1
 61 41 l 1
 63 41 l 1
 63 43 l 1
63 39 m 1
 61 39 l 1
 61 37 l 1
 63 37 l 1
 63 39 l 1
46 35 m 1
 44 35 l 1
 44 34 l 1
 45 34 l 1
 45 33 l 1
 46 33 l 1
 46 35 l 1
49 35 m 1
 47 35 l 1
 47 33 l 1
 49 33 l 1
 49 35 l 1
49 31 m 1
 47 31 l 1
 47 29 l 1
 49 29 l 1
 49 31 l 1
55 35 m 1
 53 35 l 1
 53 33 l 1
 55 33 l 1
 55 35 l 1
57 35 m 1
 56 35 l 1
 56 33 l 1
 58 33 l 1
 58 34 l 1
 57 34 l 1
 57 35 l 1
60 35 m 1
 58 35 l 1
 58 34 l 1
 59 34 l 1
 59 33 l 1
 60 33 l 1
 60 35 l 1
45 26 m 1
 44 26 l 1
 44 25 l 1
 46 25 l 1
 46 27 l 1
 45 27 l 1
 45 26 l 1
49 27 m 1
 47 27 l 1
 47 25 l 1
 49 25 l 1
 49 27 l 1
55 27 m 1
 53 27 l 1
 53 25 l 1
 55 25 l 1
 55 27 l 1
58 27 m 1
 56 27 l 1
 56 25 l 1
 57 25 l 1
 57 26 l 1
 58 26 l 1
 58 27 l 1
59 26 m 1
 58 26 l 1
 58 25 l 1
 60 25 l 1
 60 27 l 1
 59 27 l 1
 59 26 l 1
63 35 m 1
 61 35 l 1
 61 33 l 1
 63 33 l 1
 63 35 l 1
63 31 m 1
 61 31 l 1
 61 29 l 1
 63 29 l 1
 63 31 l 1
63 27 m 1
 61 27 l 1
 61 25 l 1
 63 25 l 1
 63 27 l 1
EndSplineSet
EndChar

StartChar: custom_3_9_0_4_5
Encoding: 31713 31713 11745
Width: 70
Flags: H
LayerCount: 2
Fore
SplineSet
31 43 m 1
 29 43 l 1
 29 41 l 1
 31 41 l 1
 31 43 l 1
31 39 m 1
 29 39 l 1
 29 37 l 1
 31 37 l 1
 31 39 l 1
36 37 m 1
 34 37 l 1
 34 35 l 1
 36 35 l 1
 36 37 l 1
41 43 m 1
 39 43 l 1
 39 41 l 1
 41 41 l 1
 41 43 l 1
44 43 m 1
 42 43 l 1
 42 41 l 1
 43 41 l 1
 43 42 l 1
 44 42 l 1
 44 43 l 1
31 35 m 1
 29 35 l 1
 29 33 l 1
 31 33 l 1
 31 35 l 1
36 33 m 1
 34 33 l 1
 34 31 l 1
 36 31 l 1
 36 33 l 1
31 31 m 1
 29 31 l 1
 29 29 l 1
 31 29 l 1
 31 31 l 1
41 35 m 1
 39 35 l 1
 39 33 l 1
 41 33 l 1
 41 35 l 1
43 35 m 1
 42 35 l 1
 42 33 l 1
 44 33 l 1
 44 34 l 1
 43 34 l 1
 43 35 l 1
31 27 m 1
 29 27 l 1
 29 25 l 1
 31 25 l 1
 31 27 l 1
41 27 m 1
 39 27 l 1
 39 25 l 1
 41 25 l 1
 41 27 l 1
44 27 m 1
 42 27 l 1
 42 25 l 1
 43 25 l 1
 43 26 l 1
 44 26 l 1
 44 27 l 1
45 42 m 1
 44 42 l 1
 44 41 l 1
 46 41 l 1
 46 43 l 1
 45 43 l 1
 45 42 l 1
49 43 m 1
 47 43 l 1
 47 41 l 1
 49 41 l 1
 49 43 l 1
49 39 m 1
 47 39 l 1
 47 37 l 1
 49 37 l 1
 49 39 l 1
55 43 m 1
 53 43 l 1
 53 41 l 1
 55 41 l 1
 55 43 l 1
58 43 m 1
 56 43 l 1
 56 41 l 1
 57 41 l 1
 57 42 l 1
 58 42 l 1
 58 43 l 1
59 42 m 1
 58 42 l 1
 58 41 l 1
 60 41 l 1
 60 43 l 1
 59 43 l 1
 59 42 l 1
55 39 m 1
 53 39 l 1
 53 37 l 1
 55 37 l 1
 55 39 l 1
63 43 m 1
 61 43 l 1
 61 41 l 1
 63 41 l 1
 63 43 l 1
63 39 m 1
 61 39 l 1
 61 37 l 1
 63 37 l 1
 63 39 l 1
46 35 m 1
 44 35 l 1
 44 34 l 1
 45 34 l 1
 45 33 l 1
 46 33 l 1
 46 35 l 1
49 35 m 1
 47 35 l 1
 47 33 l 1
 49 33 l 1
 49 35 l 1
49 31 m 1
 47 31 l 1
 47 29 l 1
 49 29 l 1
 49 31 l 1
55 35 m 1
 53 35 l 1
 53 33 l 1
 55 33 l 1
 55 35 l 1
57 35 m 1
 56 35 l 1
 56 33 l 1
 58 33 l 1
 58 34 l 1
 57 34 l 1
 57 35 l 1
60 35 m 1
 58 35 l 1
 58 34 l 1
 59 34 l 1
 59 33 l 1
 60 33 l 1
 60 35 l 1
45 26 m 1
 44 26 l 1
 44 25 l 1
 46 25 l 1
 46 27 l 1
 45 27 l 1
 45 26 l 1
49 27 m 1
 47 27 l 1
 47 25 l 1
 49 25 l 1
 49 27 l 1
55 27 m 1
 53 27 l 1
 53 25 l 1
 55 25 l 1
 55 27 l 1
58 27 m 1
 56 27 l 1
 56 25 l 1
 57 25 l 1
 57 26 l 1
 58 26 l 1
 58 27 l 1
59 26 m 1
 58 26 l 1
 58 25 l 1
 60 25 l 1
 60 27 l 1
 59 27 l 1
 59 26 l 1
63 35 m 1
 61 35 l 1
 61 33 l 1
 63 33 l 1
 63 35 l 1
63 31 m 1
 61 31 l 1
 61 29 l 1
 63 29 l 1
 63 31 l 1
63 27 m 1
 61 27 l 1
 61 25 l 1
 63 25 l 1
 63 27 l 1
EndSplineSet
EndChar

StartChar: custom_3_9_0_4_6
Encoding: 31714 31714 11746
Width: 70
Flags: H
LayerCount: 2
Fore
SplineSet
31 43 m 1
 29 43 l 1
 29 41 l 1
 31 41 l 1
 31 43 l 1
31 39 m 1
 29 39 l 1
 29 37 l 1
 31 37 l 1
 31 39 l 1
36 37 m 1
 34 37 l 1
 34 35 l 1
 36 35 l 1
 36 37 l 1
41 43 m 1
 39 43 l 1
 39 41 l 1
 41 41 l 1
 41 43 l 1
44 43 m 1
 42 43 l 1
 42 41 l 1
 43 41 l 1
 43 42 l 1
 44 42 l 1
 44 43 l 1
31 35 m 1
 29 35 l 1
 29 33 l 1
 31 33 l 1
 31 35 l 1
36 33 m 1
 34 33 l 1
 34 31 l 1
 36 31 l 1
 36 33 l 1
31 31 m 1
 29 31 l 1
 29 29 l 1
 31 29 l 1
 31 31 l 1
41 35 m 1
 39 35 l 1
 39 33 l 1
 41 33 l 1
 41 35 l 1
43 35 m 1
 42 35 l 1
 42 33 l 1
 44 33 l 1
 44 34 l 1
 43 34 l 1
 43 35 l 1
31 27 m 1
 29 27 l 1
 29 25 l 1
 31 25 l 1
 31 27 l 1
41 27 m 1
 39 27 l 1
 39 25 l 1
 41 25 l 1
 41 27 l 1
44 27 m 1
 42 27 l 1
 42 25 l 1
 43 25 l 1
 43 26 l 1
 44 26 l 1
 44 27 l 1
45 42 m 1
 44 42 l 1
 44 41 l 1
 46 41 l 1
 46 43 l 1
 45 43 l 1
 45 42 l 1
49 43 m 1
 47 43 l 1
 47 41 l 1
 49 41 l 1
 49 43 l 1
49 39 m 1
 47 39 l 1
 47 37 l 1
 49 37 l 1
 49 39 l 1
55 43 m 1
 53 43 l 1
 53 41 l 1
 55 41 l 1
 55 43 l 1
58 43 m 1
 56 43 l 1
 56 41 l 1
 57 41 l 1
 57 42 l 1
 58 42 l 1
 58 43 l 1
59 42 m 1
 58 42 l 1
 58 41 l 1
 60 41 l 1
 60 43 l 1
 59 43 l 1
 59 42 l 1
55 39 m 1
 53 39 l 1
 53 37 l 1
 55 37 l 1
 55 39 l 1
63 43 m 1
 61 43 l 1
 61 41 l 1
 63 41 l 1
 63 43 l 1
63 39 m 1
 61 39 l 1
 61 37 l 1
 63 37 l 1
 63 39 l 1
46 35 m 1
 44 35 l 1
 44 34 l 1
 45 34 l 1
 45 33 l 1
 46 33 l 1
 46 35 l 1
49 35 m 1
 47 35 l 1
 47 33 l 1
 49 33 l 1
 49 35 l 1
49 31 m 1
 47 31 l 1
 47 29 l 1
 49 29 l 1
 49 31 l 1
55 35 m 1
 53 35 l 1
 53 33 l 1
 55 33 l 1
 55 35 l 1
57 35 m 1
 56 35 l 1
 56 33 l 1
 58 33 l 1
 58 34 l 1
 57 34 l 1
 57 35 l 1
60 35 m 1
 58 35 l 1
 58 34 l 1
 59 34 l 1
 59 33 l 1
 60 33 l 1
 60 35 l 1
45 26 m 1
 44 26 l 1
 44 25 l 1
 46 25 l 1
 46 27 l 1
 45 27 l 1
 45 26 l 1
49 27 m 1
 47 27 l 1
 47 25 l 1
 49 25 l 1
 49 27 l 1
55 27 m 1
 53 27 l 1
 53 25 l 1
 55 25 l 1
 55 27 l 1
58 27 m 1
 56 27 l 1
 56 25 l 1
 57 25 l 1
 57 26 l 1
 58 26 l 1
 58 27 l 1
59 26 m 1
 58 26 l 1
 58 25 l 1
 60 25 l 1
 60 27 l 1
 59 27 l 1
 59 26 l 1
63 35 m 1
 61 35 l 1
 61 33 l 1
 63 33 l 1
 63 35 l 1
63 31 m 1
 61 31 l 1
 61 29 l 1
 63 29 l 1
 63 31 l 1
63 27 m 1
 61 27 l 1
 61 25 l 1
 63 25 l 1
 63 27 l 1
EndSplineSet
EndChar

StartChar: custom_3_9_0_4_7
Encoding: 31715 31715 11747
Width: 70
Flags: H
LayerCount: 2
Fore
SplineSet
31 43 m 1
 29 43 l 1
 29 41 l 1
 31 41 l 1
 31 43 l 1
31 39 m 1
 29 39 l 1
 29 37 l 1
 31 37 l 1
 31 39 l 1
36 37 m 1
 34 37 l 1
 34 35 l 1
 36 35 l 1
 36 37 l 1
41 43 m 1
 39 43 l 1
 39 41 l 1
 41 41 l 1
 41 43 l 1
44 43 m 1
 42 43 l 1
 42 41 l 1
 43 41 l 1
 43 42 l 1
 44 42 l 1
 44 43 l 1
31 35 m 1
 29 35 l 1
 29 33 l 1
 31 33 l 1
 31 35 l 1
36 33 m 1
 34 33 l 1
 34 31 l 1
 36 31 l 1
 36 33 l 1
31 31 m 1
 29 31 l 1
 29 29 l 1
 31 29 l 1
 31 31 l 1
41 35 m 1
 39 35 l 1
 39 33 l 1
 41 33 l 1
 41 35 l 1
43 35 m 1
 42 35 l 1
 42 33 l 1
 44 33 l 1
 44 34 l 1
 43 34 l 1
 43 35 l 1
31 27 m 1
 29 27 l 1
 29 25 l 1
 31 25 l 1
 31 27 l 1
41 27 m 1
 39 27 l 1
 39 25 l 1
 41 25 l 1
 41 27 l 1
44 27 m 1
 42 27 l 1
 42 25 l 1
 43 25 l 1
 43 26 l 1
 44 26 l 1
 44 27 l 1
45 42 m 1
 44 42 l 1
 44 41 l 1
 46 41 l 1
 46 43 l 1
 45 43 l 1
 45 42 l 1
49 43 m 1
 47 43 l 1
 47 41 l 1
 49 41 l 1
 49 43 l 1
49 39 m 1
 47 39 l 1
 47 37 l 1
 49 37 l 1
 49 39 l 1
55 43 m 1
 53 43 l 1
 53 41 l 1
 55 41 l 1
 55 43 l 1
58 43 m 1
 56 43 l 1
 56 41 l 1
 57 41 l 1
 57 42 l 1
 58 42 l 1
 58 43 l 1
59 42 m 1
 58 42 l 1
 58 41 l 1
 60 41 l 1
 60 43 l 1
 59 43 l 1
 59 42 l 1
55 39 m 1
 53 39 l 1
 53 37 l 1
 55 37 l 1
 55 39 l 1
63 43 m 1
 61 43 l 1
 61 41 l 1
 63 41 l 1
 63 43 l 1
63 39 m 1
 61 39 l 1
 61 37 l 1
 63 37 l 1
 63 39 l 1
46 35 m 1
 44 35 l 1
 44 34 l 1
 45 34 l 1
 45 33 l 1
 46 33 l 1
 46 35 l 1
49 35 m 1
 47 35 l 1
 47 33 l 1
 49 33 l 1
 49 35 l 1
49 31 m 1
 47 31 l 1
 47 29 l 1
 49 29 l 1
 49 31 l 1
55 35 m 1
 53 35 l 1
 53 33 l 1
 55 33 l 1
 55 35 l 1
57 35 m 1
 56 35 l 1
 56 33 l 1
 58 33 l 1
 58 34 l 1
 57 34 l 1
 57 35 l 1
60 35 m 1
 58 35 l 1
 58 34 l 1
 59 34 l 1
 59 33 l 1
 60 33 l 1
 60 35 l 1
45 26 m 1
 44 26 l 1
 44 25 l 1
 46 25 l 1
 46 27 l 1
 45 27 l 1
 45 26 l 1
49 27 m 1
 47 27 l 1
 47 25 l 1
 49 25 l 1
 49 27 l 1
55 27 m 1
 53 27 l 1
 53 25 l 1
 55 25 l 1
 55 27 l 1
58 27 m 1
 56 27 l 1
 56 25 l 1
 57 25 l 1
 57 26 l 1
 58 26 l 1
 58 27 l 1
59 26 m 1
 58 26 l 1
 58 25 l 1
 60 25 l 1
 60 27 l 1
 59 27 l 1
 59 26 l 1
63 35 m 1
 61 35 l 1
 61 33 l 1
 63 33 l 1
 63 35 l 1
63 31 m 1
 61 31 l 1
 61 29 l 1
 63 29 l 1
 63 31 l 1
63 27 m 1
 61 27 l 1
 61 25 l 1
 63 25 l 1
 63 27 l 1
EndSplineSet
EndChar

StartChar: custom_3_9_0_4_8
Encoding: 31716 31716 11748
Width: 70
Flags: H
LayerCount: 2
Fore
SplineSet
31 43 m 1
 29 43 l 1
 29 41 l 1
 31 41 l 1
 31 43 l 1
31 39 m 1
 29 39 l 1
 29 37 l 1
 31 37 l 1
 31 39 l 1
36 37 m 1
 34 37 l 1
 34 35 l 1
 36 35 l 1
 36 37 l 1
41 43 m 1
 39 43 l 1
 39 41 l 1
 41 41 l 1
 41 43 l 1
44 43 m 1
 42 43 l 1
 42 41 l 1
 43 41 l 1
 43 42 l 1
 44 42 l 1
 44 43 l 1
31 35 m 1
 29 35 l 1
 29 33 l 1
 31 33 l 1
 31 35 l 1
36 33 m 1
 34 33 l 1
 34 31 l 1
 36 31 l 1
 36 33 l 1
31 31 m 1
 29 31 l 1
 29 29 l 1
 31 29 l 1
 31 31 l 1
41 35 m 1
 39 35 l 1
 39 33 l 1
 41 33 l 1
 41 35 l 1
43 35 m 1
 42 35 l 1
 42 33 l 1
 44 33 l 1
 44 34 l 1
 43 34 l 1
 43 35 l 1
31 27 m 1
 29 27 l 1
 29 25 l 1
 31 25 l 1
 31 27 l 1
41 27 m 1
 39 27 l 1
 39 25 l 1
 41 25 l 1
 41 27 l 1
44 27 m 1
 42 27 l 1
 42 25 l 1
 43 25 l 1
 43 26 l 1
 44 26 l 1
 44 27 l 1
45 42 m 1
 44 42 l 1
 44 41 l 1
 46 41 l 1
 46 43 l 1
 45 43 l 1
 45 42 l 1
49 43 m 1
 47 43 l 1
 47 41 l 1
 49 41 l 1
 49 43 l 1
49 39 m 1
 47 39 l 1
 47 37 l 1
 49 37 l 1
 49 39 l 1
55 43 m 1
 53 43 l 1
 53 41 l 1
 55 41 l 1
 55 43 l 1
58 43 m 1
 56 43 l 1
 56 41 l 1
 57 41 l 1
 57 42 l 1
 58 42 l 1
 58 43 l 1
59 42 m 1
 58 42 l 1
 58 41 l 1
 60 41 l 1
 60 43 l 1
 59 43 l 1
 59 42 l 1
55 39 m 1
 53 39 l 1
 53 37 l 1
 55 37 l 1
 55 39 l 1
63 43 m 1
 61 43 l 1
 61 41 l 1
 63 41 l 1
 63 43 l 1
63 39 m 1
 61 39 l 1
 61 37 l 1
 63 37 l 1
 63 39 l 1
46 35 m 1
 44 35 l 1
 44 34 l 1
 45 34 l 1
 45 33 l 1
 46 33 l 1
 46 35 l 1
49 35 m 1
 47 35 l 1
 47 33 l 1
 49 33 l 1
 49 35 l 1
49 31 m 1
 47 31 l 1
 47 29 l 1
 49 29 l 1
 49 31 l 1
55 35 m 1
 53 35 l 1
 53 33 l 1
 55 33 l 1
 55 35 l 1
57 35 m 1
 56 35 l 1
 56 33 l 1
 58 33 l 1
 58 34 l 1
 57 34 l 1
 57 35 l 1
60 35 m 1
 58 35 l 1
 58 34 l 1
 59 34 l 1
 59 33 l 1
 60 33 l 1
 60 35 l 1
45 26 m 1
 44 26 l 1
 44 25 l 1
 46 25 l 1
 46 27 l 1
 45 27 l 1
 45 26 l 1
49 27 m 1
 47 27 l 1
 47 25 l 1
 49 25 l 1
 49 27 l 1
55 27 m 1
 53 27 l 1
 53 25 l 1
 55 25 l 1
 55 27 l 1
58 27 m 1
 56 27 l 1
 56 25 l 1
 57 25 l 1
 57 26 l 1
 58 26 l 1
 58 27 l 1
59 26 m 1
 58 26 l 1
 58 25 l 1
 60 25 l 1
 60 27 l 1
 59 27 l 1
 59 26 l 1
63 35 m 1
 61 35 l 1
 61 33 l 1
 63 33 l 1
 63 35 l 1
63 31 m 1
 61 31 l 1
 61 29 l 1
 63 29 l 1
 63 31 l 1
63 27 m 1
 61 27 l 1
 61 25 l 1
 63 25 l 1
 63 27 l 1
EndSplineSet
EndChar

StartChar: custom_3_9_0_4_9
Encoding: 31717 31717 11749
Width: 70
Flags: H
LayerCount: 2
Fore
SplineSet
31 43 m 1
 29 43 l 1
 29 41 l 1
 31 41 l 1
 31 43 l 1
31 39 m 1
 29 39 l 1
 29 37 l 1
 31 37 l 1
 31 39 l 1
36 37 m 1
 34 37 l 1
 34 35 l 1
 36 35 l 1
 36 37 l 1
41 43 m 1
 39 43 l 1
 39 41 l 1
 41 41 l 1
 41 43 l 1
44 43 m 1
 42 43 l 1
 42 41 l 1
 43 41 l 1
 43 42 l 1
 44 42 l 1
 44 43 l 1
31 35 m 1
 29 35 l 1
 29 33 l 1
 31 33 l 1
 31 35 l 1
36 33 m 1
 34 33 l 1
 34 31 l 1
 36 31 l 1
 36 33 l 1
31 31 m 1
 29 31 l 1
 29 29 l 1
 31 29 l 1
 31 31 l 1
41 35 m 1
 39 35 l 1
 39 33 l 1
 41 33 l 1
 41 35 l 1
43 35 m 1
 42 35 l 1
 42 33 l 1
 44 33 l 1
 44 34 l 1
 43 34 l 1
 43 35 l 1
31 27 m 1
 29 27 l 1
 29 25 l 1
 31 25 l 1
 31 27 l 1
41 27 m 1
 39 27 l 1
 39 25 l 1
 41 25 l 1
 41 27 l 1
44 27 m 1
 42 27 l 1
 42 25 l 1
 43 25 l 1
 43 26 l 1
 44 26 l 1
 44 27 l 1
45 42 m 1
 44 42 l 1
 44 41 l 1
 46 41 l 1
 46 43 l 1
 45 43 l 1
 45 42 l 1
49 43 m 1
 47 43 l 1
 47 41 l 1
 49 41 l 1
 49 43 l 1
49 39 m 1
 47 39 l 1
 47 37 l 1
 49 37 l 1
 49 39 l 1
55 43 m 1
 53 43 l 1
 53 41 l 1
 55 41 l 1
 55 43 l 1
58 43 m 1
 56 43 l 1
 56 41 l 1
 57 41 l 1
 57 42 l 1
 58 42 l 1
 58 43 l 1
59 42 m 1
 58 42 l 1
 58 41 l 1
 60 41 l 1
 60 43 l 1
 59 43 l 1
 59 42 l 1
55 39 m 1
 53 39 l 1
 53 37 l 1
 55 37 l 1
 55 39 l 1
63 43 m 1
 61 43 l 1
 61 41 l 1
 63 41 l 1
 63 43 l 1
63 39 m 1
 61 39 l 1
 61 37 l 1
 63 37 l 1
 63 39 l 1
46 35 m 1
 44 35 l 1
 44 34 l 1
 45 34 l 1
 45 33 l 1
 46 33 l 1
 46 35 l 1
49 35 m 1
 47 35 l 1
 47 33 l 1
 49 33 l 1
 49 35 l 1
49 31 m 1
 47 31 l 1
 47 29 l 1
 49 29 l 1
 49 31 l 1
55 35 m 1
 53 35 l 1
 53 33 l 1
 55 33 l 1
 55 35 l 1
57 35 m 1
 56 35 l 1
 56 33 l 1
 58 33 l 1
 58 34 l 1
 57 34 l 1
 57 35 l 1
60 35 m 1
 58 35 l 1
 58 34 l 1
 59 34 l 1
 59 33 l 1
 60 33 l 1
 60 35 l 1
45 26 m 1
 44 26 l 1
 44 25 l 1
 46 25 l 1
 46 27 l 1
 45 27 l 1
 45 26 l 1
49 27 m 1
 47 27 l 1
 47 25 l 1
 49 25 l 1
 49 27 l 1
55 27 m 1
 53 27 l 1
 53 25 l 1
 55 25 l 1
 55 27 l 1
58 27 m 1
 56 27 l 1
 56 25 l 1
 57 25 l 1
 57 26 l 1
 58 26 l 1
 58 27 l 1
59 26 m 1
 58 26 l 1
 58 25 l 1
 60 25 l 1
 60 27 l 1
 59 27 l 1
 59 26 l 1
63 35 m 1
 61 35 l 1
 61 33 l 1
 63 33 l 1
 63 35 l 1
63 31 m 1
 61 31 l 1
 61 29 l 1
 63 29 l 1
 63 31 l 1
63 27 m 1
 61 27 l 1
 61 25 l 1
 63 25 l 1
 63 27 l 1
EndSplineSet
EndChar

StartChar: custom_3_9_0_5_0
Encoding: 31718 31718 11750
Width: 70
Flags: H
LayerCount: 2
Fore
SplineSet
31 43 m 1
 29 43 l 1
 29 41 l 1
 31 41 l 1
 31 43 l 1
31 39 m 1
 29 39 l 1
 29 37 l 1
 31 37 l 1
 31 39 l 1
36 37 m 1
 34 37 l 1
 34 35 l 1
 36 35 l 1
 36 37 l 1
41 43 m 1
 39 43 l 1
 39 41 l 1
 41 41 l 1
 41 43 l 1
44 43 m 1
 42 43 l 1
 42 41 l 1
 43 41 l 1
 43 42 l 1
 44 42 l 1
 44 43 l 1
31 35 m 1
 29 35 l 1
 29 33 l 1
 31 33 l 1
 31 35 l 1
36 33 m 1
 34 33 l 1
 34 31 l 1
 36 31 l 1
 36 33 l 1
31 31 m 1
 29 31 l 1
 29 29 l 1
 31 29 l 1
 31 31 l 1
41 35 m 1
 39 35 l 1
 39 33 l 1
 41 33 l 1
 41 35 l 1
43 35 m 1
 42 35 l 1
 42 33 l 1
 44 33 l 1
 44 34 l 1
 43 34 l 1
 43 35 l 1
31 27 m 1
 29 27 l 1
 29 25 l 1
 31 25 l 1
 31 27 l 1
41 27 m 1
 39 27 l 1
 39 25 l 1
 41 25 l 1
 41 27 l 1
44 27 m 1
 42 27 l 1
 42 25 l 1
 43 25 l 1
 43 26 l 1
 44 26 l 1
 44 27 l 1
45 42 m 1
 44 42 l 1
 44 41 l 1
 46 41 l 1
 46 43 l 1
 45 43 l 1
 45 42 l 1
49 43 m 1
 47 43 l 1
 47 41 l 1
 49 41 l 1
 49 43 l 1
49 39 m 1
 47 39 l 1
 47 37 l 1
 49 37 l 1
 49 39 l 1
55 43 m 1
 53 43 l 1
 53 41 l 1
 55 41 l 1
 55 43 l 1
58 43 m 1
 56 43 l 1
 56 41 l 1
 57 41 l 1
 57 42 l 1
 58 42 l 1
 58 43 l 1
59 42 m 1
 58 42 l 1
 58 41 l 1
 60 41 l 1
 60 43 l 1
 59 43 l 1
 59 42 l 1
55 39 m 1
 53 39 l 1
 53 37 l 1
 55 37 l 1
 55 39 l 1
63 43 m 1
 61 43 l 1
 61 41 l 1
 63 41 l 1
 63 43 l 1
63 39 m 1
 61 39 l 1
 61 37 l 1
 63 37 l 1
 63 39 l 1
46 35 m 1
 44 35 l 1
 44 34 l 1
 45 34 l 1
 45 33 l 1
 46 33 l 1
 46 35 l 1
49 35 m 1
 47 35 l 1
 47 33 l 1
 49 33 l 1
 49 35 l 1
49 31 m 1
 47 31 l 1
 47 29 l 1
 49 29 l 1
 49 31 l 1
55 35 m 1
 53 35 l 1
 53 33 l 1
 55 33 l 1
 55 35 l 1
57 35 m 1
 56 35 l 1
 56 33 l 1
 58 33 l 1
 58 34 l 1
 57 34 l 1
 57 35 l 1
60 35 m 1
 58 35 l 1
 58 34 l 1
 59 34 l 1
 59 33 l 1
 60 33 l 1
 60 35 l 1
45 26 m 1
 44 26 l 1
 44 25 l 1
 46 25 l 1
 46 27 l 1
 45 27 l 1
 45 26 l 1
49 27 m 1
 47 27 l 1
 47 25 l 1
 49 25 l 1
 49 27 l 1
55 27 m 1
 53 27 l 1
 53 25 l 1
 55 25 l 1
 55 27 l 1
58 27 m 1
 56 27 l 1
 56 25 l 1
 57 25 l 1
 57 26 l 1
 58 26 l 1
 58 27 l 1
59 26 m 1
 58 26 l 1
 58 25 l 1
 60 25 l 1
 60 27 l 1
 59 27 l 1
 59 26 l 1
63 35 m 1
 61 35 l 1
 61 33 l 1
 63 33 l 1
 63 35 l 1
63 31 m 1
 61 31 l 1
 61 29 l 1
 63 29 l 1
 63 31 l 1
63 27 m 1
 61 27 l 1
 61 25 l 1
 63 25 l 1
 63 27 l 1
EndSplineSet
EndChar

StartChar: custom_3_9_0_5_1
Encoding: 31719 31719 11751
Width: 70
Flags: H
LayerCount: 2
Fore
SplineSet
31 43 m 1
 29 43 l 1
 29 41 l 1
 31 41 l 1
 31 43 l 1
31 39 m 1
 29 39 l 1
 29 37 l 1
 31 37 l 1
 31 39 l 1
36 37 m 1
 34 37 l 1
 34 35 l 1
 36 35 l 1
 36 37 l 1
41 43 m 1
 39 43 l 1
 39 41 l 1
 41 41 l 1
 41 43 l 1
44 43 m 1
 42 43 l 1
 42 41 l 1
 43 41 l 1
 43 42 l 1
 44 42 l 1
 44 43 l 1
31 35 m 1
 29 35 l 1
 29 33 l 1
 31 33 l 1
 31 35 l 1
36 33 m 1
 34 33 l 1
 34 31 l 1
 36 31 l 1
 36 33 l 1
31 31 m 1
 29 31 l 1
 29 29 l 1
 31 29 l 1
 31 31 l 1
41 35 m 1
 39 35 l 1
 39 33 l 1
 41 33 l 1
 41 35 l 1
43 35 m 1
 42 35 l 1
 42 33 l 1
 44 33 l 1
 44 34 l 1
 43 34 l 1
 43 35 l 1
31 27 m 1
 29 27 l 1
 29 25 l 1
 31 25 l 1
 31 27 l 1
41 27 m 1
 39 27 l 1
 39 25 l 1
 41 25 l 1
 41 27 l 1
44 27 m 1
 42 27 l 1
 42 25 l 1
 43 25 l 1
 43 26 l 1
 44 26 l 1
 44 27 l 1
45 42 m 1
 44 42 l 1
 44 41 l 1
 46 41 l 1
 46 43 l 1
 45 43 l 1
 45 42 l 1
49 43 m 1
 47 43 l 1
 47 41 l 1
 49 41 l 1
 49 43 l 1
49 39 m 1
 47 39 l 1
 47 37 l 1
 49 37 l 1
 49 39 l 1
55 43 m 1
 53 43 l 1
 53 41 l 1
 55 41 l 1
 55 43 l 1
58 43 m 1
 56 43 l 1
 56 41 l 1
 57 41 l 1
 57 42 l 1
 58 42 l 1
 58 43 l 1
59 42 m 1
 58 42 l 1
 58 41 l 1
 60 41 l 1
 60 43 l 1
 59 43 l 1
 59 42 l 1
55 39 m 1
 53 39 l 1
 53 37 l 1
 55 37 l 1
 55 39 l 1
63 43 m 1
 61 43 l 1
 61 41 l 1
 63 41 l 1
 63 43 l 1
63 39 m 1
 61 39 l 1
 61 37 l 1
 63 37 l 1
 63 39 l 1
46 35 m 1
 44 35 l 1
 44 34 l 1
 45 34 l 1
 45 33 l 1
 46 33 l 1
 46 35 l 1
49 35 m 1
 47 35 l 1
 47 33 l 1
 49 33 l 1
 49 35 l 1
49 31 m 1
 47 31 l 1
 47 29 l 1
 49 29 l 1
 49 31 l 1
55 35 m 1
 53 35 l 1
 53 33 l 1
 55 33 l 1
 55 35 l 1
57 35 m 1
 56 35 l 1
 56 33 l 1
 58 33 l 1
 58 34 l 1
 57 34 l 1
 57 35 l 1
60 35 m 1
 58 35 l 1
 58 34 l 1
 59 34 l 1
 59 33 l 1
 60 33 l 1
 60 35 l 1
45 26 m 1
 44 26 l 1
 44 25 l 1
 46 25 l 1
 46 27 l 1
 45 27 l 1
 45 26 l 1
49 27 m 1
 47 27 l 1
 47 25 l 1
 49 25 l 1
 49 27 l 1
55 27 m 1
 53 27 l 1
 53 25 l 1
 55 25 l 1
 55 27 l 1
58 27 m 1
 56 27 l 1
 56 25 l 1
 57 25 l 1
 57 26 l 1
 58 26 l 1
 58 27 l 1
59 26 m 1
 58 26 l 1
 58 25 l 1
 60 25 l 1
 60 27 l 1
 59 27 l 1
 59 26 l 1
63 35 m 1
 61 35 l 1
 61 33 l 1
 63 33 l 1
 63 35 l 1
63 31 m 1
 61 31 l 1
 61 29 l 1
 63 29 l 1
 63 31 l 1
63 27 m 1
 61 27 l 1
 61 25 l 1
 63 25 l 1
 63 27 l 1
EndSplineSet
EndChar

StartChar: custom_3_9_0_5_2
Encoding: 31720 31720 11752
Width: 70
Flags: H
LayerCount: 2
Fore
SplineSet
31 43 m 1
 29 43 l 1
 29 41 l 1
 31 41 l 1
 31 43 l 1
31 39 m 1
 29 39 l 1
 29 37 l 1
 31 37 l 1
 31 39 l 1
36 37 m 1
 34 37 l 1
 34 35 l 1
 36 35 l 1
 36 37 l 1
41 43 m 1
 39 43 l 1
 39 41 l 1
 41 41 l 1
 41 43 l 1
44 43 m 1
 42 43 l 1
 42 41 l 1
 43 41 l 1
 43 42 l 1
 44 42 l 1
 44 43 l 1
31 35 m 1
 29 35 l 1
 29 33 l 1
 31 33 l 1
 31 35 l 1
36 33 m 1
 34 33 l 1
 34 31 l 1
 36 31 l 1
 36 33 l 1
31 31 m 1
 29 31 l 1
 29 29 l 1
 31 29 l 1
 31 31 l 1
41 35 m 1
 39 35 l 1
 39 33 l 1
 41 33 l 1
 41 35 l 1
43 35 m 1
 42 35 l 1
 42 33 l 1
 44 33 l 1
 44 34 l 1
 43 34 l 1
 43 35 l 1
31 27 m 1
 29 27 l 1
 29 25 l 1
 31 25 l 1
 31 27 l 1
41 27 m 1
 39 27 l 1
 39 25 l 1
 41 25 l 1
 41 27 l 1
44 27 m 1
 42 27 l 1
 42 25 l 1
 43 25 l 1
 43 26 l 1
 44 26 l 1
 44 27 l 1
45 42 m 1
 44 42 l 1
 44 41 l 1
 46 41 l 1
 46 43 l 1
 45 43 l 1
 45 42 l 1
49 43 m 1
 47 43 l 1
 47 41 l 1
 49 41 l 1
 49 43 l 1
49 39 m 1
 47 39 l 1
 47 37 l 1
 49 37 l 1
 49 39 l 1
55 43 m 1
 53 43 l 1
 53 41 l 1
 55 41 l 1
 55 43 l 1
58 43 m 1
 56 43 l 1
 56 41 l 1
 57 41 l 1
 57 42 l 1
 58 42 l 1
 58 43 l 1
59 42 m 1
 58 42 l 1
 58 41 l 1
 60 41 l 1
 60 43 l 1
 59 43 l 1
 59 42 l 1
55 39 m 1
 53 39 l 1
 53 37 l 1
 55 37 l 1
 55 39 l 1
63 43 m 1
 61 43 l 1
 61 41 l 1
 63 41 l 1
 63 43 l 1
63 39 m 1
 61 39 l 1
 61 37 l 1
 63 37 l 1
 63 39 l 1
46 35 m 1
 44 35 l 1
 44 34 l 1
 45 34 l 1
 45 33 l 1
 46 33 l 1
 46 35 l 1
49 35 m 1
 47 35 l 1
 47 33 l 1
 49 33 l 1
 49 35 l 1
49 31 m 1
 47 31 l 1
 47 29 l 1
 49 29 l 1
 49 31 l 1
55 35 m 1
 53 35 l 1
 53 33 l 1
 55 33 l 1
 55 35 l 1
57 35 m 1
 56 35 l 1
 56 33 l 1
 58 33 l 1
 58 34 l 1
 57 34 l 1
 57 35 l 1
60 35 m 1
 58 35 l 1
 58 34 l 1
 59 34 l 1
 59 33 l 1
 60 33 l 1
 60 35 l 1
45 26 m 1
 44 26 l 1
 44 25 l 1
 46 25 l 1
 46 27 l 1
 45 27 l 1
 45 26 l 1
49 27 m 1
 47 27 l 1
 47 25 l 1
 49 25 l 1
 49 27 l 1
55 27 m 1
 53 27 l 1
 53 25 l 1
 55 25 l 1
 55 27 l 1
58 27 m 1
 56 27 l 1
 56 25 l 1
 57 25 l 1
 57 26 l 1
 58 26 l 1
 58 27 l 1
59 26 m 1
 58 26 l 1
 58 25 l 1
 60 25 l 1
 60 27 l 1
 59 27 l 1
 59 26 l 1
63 35 m 1
 61 35 l 1
 61 33 l 1
 63 33 l 1
 63 35 l 1
63 31 m 1
 61 31 l 1
 61 29 l 1
 63 29 l 1
 63 31 l 1
63 27 m 1
 61 27 l 1
 61 25 l 1
 63 25 l 1
 63 27 l 1
EndSplineSet
EndChar

StartChar: custom_3_9_0_5_3
Encoding: 31721 31721 11753
Width: 70
Flags: H
LayerCount: 2
Fore
SplineSet
31 43 m 1
 29 43 l 1
 29 41 l 1
 31 41 l 1
 31 43 l 1
31 39 m 1
 29 39 l 1
 29 37 l 1
 31 37 l 1
 31 39 l 1
36 37 m 1
 34 37 l 1
 34 35 l 1
 36 35 l 1
 36 37 l 1
41 43 m 1
 39 43 l 1
 39 41 l 1
 41 41 l 1
 41 43 l 1
44 43 m 1
 42 43 l 1
 42 41 l 1
 43 41 l 1
 43 42 l 1
 44 42 l 1
 44 43 l 1
31 35 m 1
 29 35 l 1
 29 33 l 1
 31 33 l 1
 31 35 l 1
36 33 m 1
 34 33 l 1
 34 31 l 1
 36 31 l 1
 36 33 l 1
31 31 m 1
 29 31 l 1
 29 29 l 1
 31 29 l 1
 31 31 l 1
41 35 m 1
 39 35 l 1
 39 33 l 1
 41 33 l 1
 41 35 l 1
43 35 m 1
 42 35 l 1
 42 33 l 1
 44 33 l 1
 44 34 l 1
 43 34 l 1
 43 35 l 1
31 27 m 1
 29 27 l 1
 29 25 l 1
 31 25 l 1
 31 27 l 1
41 27 m 1
 39 27 l 1
 39 25 l 1
 41 25 l 1
 41 27 l 1
44 27 m 1
 42 27 l 1
 42 25 l 1
 43 25 l 1
 43 26 l 1
 44 26 l 1
 44 27 l 1
45 42 m 1
 44 42 l 1
 44 41 l 1
 46 41 l 1
 46 43 l 1
 45 43 l 1
 45 42 l 1
49 43 m 1
 47 43 l 1
 47 41 l 1
 49 41 l 1
 49 43 l 1
49 39 m 1
 47 39 l 1
 47 37 l 1
 49 37 l 1
 49 39 l 1
55 43 m 1
 53 43 l 1
 53 41 l 1
 55 41 l 1
 55 43 l 1
58 43 m 1
 56 43 l 1
 56 41 l 1
 57 41 l 1
 57 42 l 1
 58 42 l 1
 58 43 l 1
59 42 m 1
 58 42 l 1
 58 41 l 1
 60 41 l 1
 60 43 l 1
 59 43 l 1
 59 42 l 1
55 39 m 1
 53 39 l 1
 53 37 l 1
 55 37 l 1
 55 39 l 1
63 43 m 1
 61 43 l 1
 61 41 l 1
 63 41 l 1
 63 43 l 1
63 39 m 1
 61 39 l 1
 61 37 l 1
 63 37 l 1
 63 39 l 1
46 35 m 1
 44 35 l 1
 44 34 l 1
 45 34 l 1
 45 33 l 1
 46 33 l 1
 46 35 l 1
49 35 m 1
 47 35 l 1
 47 33 l 1
 49 33 l 1
 49 35 l 1
49 31 m 1
 47 31 l 1
 47 29 l 1
 49 29 l 1
 49 31 l 1
55 35 m 1
 53 35 l 1
 53 33 l 1
 55 33 l 1
 55 35 l 1
57 35 m 1
 56 35 l 1
 56 33 l 1
 58 33 l 1
 58 34 l 1
 57 34 l 1
 57 35 l 1
60 35 m 1
 58 35 l 1
 58 34 l 1
 59 34 l 1
 59 33 l 1
 60 33 l 1
 60 35 l 1
45 26 m 1
 44 26 l 1
 44 25 l 1
 46 25 l 1
 46 27 l 1
 45 27 l 1
 45 26 l 1
49 27 m 1
 47 27 l 1
 47 25 l 1
 49 25 l 1
 49 27 l 1
55 27 m 1
 53 27 l 1
 53 25 l 1
 55 25 l 1
 55 27 l 1
58 27 m 1
 56 27 l 1
 56 25 l 1
 57 25 l 1
 57 26 l 1
 58 26 l 1
 58 27 l 1
59 26 m 1
 58 26 l 1
 58 25 l 1
 60 25 l 1
 60 27 l 1
 59 27 l 1
 59 26 l 1
63 35 m 1
 61 35 l 1
 61 33 l 1
 63 33 l 1
 63 35 l 1
63 31 m 1
 61 31 l 1
 61 29 l 1
 63 29 l 1
 63 31 l 1
63 27 m 1
 61 27 l 1
 61 25 l 1
 63 25 l 1
 63 27 l 1
EndSplineSet
EndChar

StartChar: custom_3_9_0_5_4
Encoding: 31722 31722 11754
Width: 70
Flags: H
LayerCount: 2
Fore
SplineSet
31 43 m 1
 29 43 l 1
 29 41 l 1
 31 41 l 1
 31 43 l 1
31 39 m 1
 29 39 l 1
 29 37 l 1
 31 37 l 1
 31 39 l 1
36 37 m 1
 34 37 l 1
 34 35 l 1
 36 35 l 1
 36 37 l 1
41 43 m 1
 39 43 l 1
 39 41 l 1
 41 41 l 1
 41 43 l 1
44 43 m 1
 42 43 l 1
 42 41 l 1
 43 41 l 1
 43 42 l 1
 44 42 l 1
 44 43 l 1
31 35 m 1
 29 35 l 1
 29 33 l 1
 31 33 l 1
 31 35 l 1
36 33 m 1
 34 33 l 1
 34 31 l 1
 36 31 l 1
 36 33 l 1
31 31 m 1
 29 31 l 1
 29 29 l 1
 31 29 l 1
 31 31 l 1
41 35 m 1
 39 35 l 1
 39 33 l 1
 41 33 l 1
 41 35 l 1
43 35 m 1
 42 35 l 1
 42 33 l 1
 44 33 l 1
 44 34 l 1
 43 34 l 1
 43 35 l 1
31 27 m 1
 29 27 l 1
 29 25 l 1
 31 25 l 1
 31 27 l 1
41 27 m 1
 39 27 l 1
 39 25 l 1
 41 25 l 1
 41 27 l 1
44 27 m 1
 42 27 l 1
 42 25 l 1
 43 25 l 1
 43 26 l 1
 44 26 l 1
 44 27 l 1
45 42 m 1
 44 42 l 1
 44 41 l 1
 46 41 l 1
 46 43 l 1
 45 43 l 1
 45 42 l 1
49 43 m 1
 47 43 l 1
 47 41 l 1
 49 41 l 1
 49 43 l 1
49 39 m 1
 47 39 l 1
 47 37 l 1
 49 37 l 1
 49 39 l 1
55 43 m 1
 53 43 l 1
 53 41 l 1
 55 41 l 1
 55 43 l 1
58 43 m 1
 56 43 l 1
 56 41 l 1
 57 41 l 1
 57 42 l 1
 58 42 l 1
 58 43 l 1
59 42 m 1
 58 42 l 1
 58 41 l 1
 60 41 l 1
 60 43 l 1
 59 43 l 1
 59 42 l 1
55 39 m 1
 53 39 l 1
 53 37 l 1
 55 37 l 1
 55 39 l 1
63 43 m 1
 61 43 l 1
 61 41 l 1
 63 41 l 1
 63 43 l 1
63 39 m 1
 61 39 l 1
 61 37 l 1
 63 37 l 1
 63 39 l 1
46 35 m 1
 44 35 l 1
 44 34 l 1
 45 34 l 1
 45 33 l 1
 46 33 l 1
 46 35 l 1
49 35 m 1
 47 35 l 1
 47 33 l 1
 49 33 l 1
 49 35 l 1
49 31 m 1
 47 31 l 1
 47 29 l 1
 49 29 l 1
 49 31 l 1
55 35 m 1
 53 35 l 1
 53 33 l 1
 55 33 l 1
 55 35 l 1
57 35 m 1
 56 35 l 1
 56 33 l 1
 58 33 l 1
 58 34 l 1
 57 34 l 1
 57 35 l 1
60 35 m 1
 58 35 l 1
 58 34 l 1
 59 34 l 1
 59 33 l 1
 60 33 l 1
 60 35 l 1
45 26 m 1
 44 26 l 1
 44 25 l 1
 46 25 l 1
 46 27 l 1
 45 27 l 1
 45 26 l 1
49 27 m 1
 47 27 l 1
 47 25 l 1
 49 25 l 1
 49 27 l 1
55 27 m 1
 53 27 l 1
 53 25 l 1
 55 25 l 1
 55 27 l 1
58 27 m 1
 56 27 l 1
 56 25 l 1
 57 25 l 1
 57 26 l 1
 58 26 l 1
 58 27 l 1
59 26 m 1
 58 26 l 1
 58 25 l 1
 60 25 l 1
 60 27 l 1
 59 27 l 1
 59 26 l 1
63 35 m 1
 61 35 l 1
 61 33 l 1
 63 33 l 1
 63 35 l 1
63 31 m 1
 61 31 l 1
 61 29 l 1
 63 29 l 1
 63 31 l 1
63 27 m 1
 61 27 l 1
 61 25 l 1
 63 25 l 1
 63 27 l 1
EndSplineSet
EndChar

StartChar: custom_3_9_0_5_5
Encoding: 31723 31723 11755
Width: 70
Flags: H
LayerCount: 2
Fore
SplineSet
31 43 m 1
 29 43 l 1
 29 41 l 1
 31 41 l 1
 31 43 l 1
31 39 m 1
 29 39 l 1
 29 37 l 1
 31 37 l 1
 31 39 l 1
36 37 m 1
 34 37 l 1
 34 35 l 1
 36 35 l 1
 36 37 l 1
41 43 m 1
 39 43 l 1
 39 41 l 1
 41 41 l 1
 41 43 l 1
44 43 m 1
 42 43 l 1
 42 41 l 1
 43 41 l 1
 43 42 l 1
 44 42 l 1
 44 43 l 1
31 35 m 1
 29 35 l 1
 29 33 l 1
 31 33 l 1
 31 35 l 1
36 33 m 1
 34 33 l 1
 34 31 l 1
 36 31 l 1
 36 33 l 1
31 31 m 1
 29 31 l 1
 29 29 l 1
 31 29 l 1
 31 31 l 1
41 35 m 1
 39 35 l 1
 39 33 l 1
 41 33 l 1
 41 35 l 1
43 35 m 1
 42 35 l 1
 42 33 l 1
 44 33 l 1
 44 34 l 1
 43 34 l 1
 43 35 l 1
31 27 m 1
 29 27 l 1
 29 25 l 1
 31 25 l 1
 31 27 l 1
41 27 m 1
 39 27 l 1
 39 25 l 1
 41 25 l 1
 41 27 l 1
44 27 m 1
 42 27 l 1
 42 25 l 1
 43 25 l 1
 43 26 l 1
 44 26 l 1
 44 27 l 1
45 42 m 1
 44 42 l 1
 44 41 l 1
 46 41 l 1
 46 43 l 1
 45 43 l 1
 45 42 l 1
49 43 m 1
 47 43 l 1
 47 41 l 1
 49 41 l 1
 49 43 l 1
49 39 m 1
 47 39 l 1
 47 37 l 1
 49 37 l 1
 49 39 l 1
55 43 m 1
 53 43 l 1
 53 41 l 1
 55 41 l 1
 55 43 l 1
58 43 m 1
 56 43 l 1
 56 41 l 1
 57 41 l 1
 57 42 l 1
 58 42 l 1
 58 43 l 1
59 42 m 1
 58 42 l 1
 58 41 l 1
 60 41 l 1
 60 43 l 1
 59 43 l 1
 59 42 l 1
55 39 m 1
 53 39 l 1
 53 37 l 1
 55 37 l 1
 55 39 l 1
63 43 m 1
 61 43 l 1
 61 41 l 1
 63 41 l 1
 63 43 l 1
63 39 m 1
 61 39 l 1
 61 37 l 1
 63 37 l 1
 63 39 l 1
46 35 m 1
 44 35 l 1
 44 34 l 1
 45 34 l 1
 45 33 l 1
 46 33 l 1
 46 35 l 1
49 35 m 1
 47 35 l 1
 47 33 l 1
 49 33 l 1
 49 35 l 1
49 31 m 1
 47 31 l 1
 47 29 l 1
 49 29 l 1
 49 31 l 1
55 35 m 1
 53 35 l 1
 53 33 l 1
 55 33 l 1
 55 35 l 1
57 35 m 1
 56 35 l 1
 56 33 l 1
 58 33 l 1
 58 34 l 1
 57 34 l 1
 57 35 l 1
60 35 m 1
 58 35 l 1
 58 34 l 1
 59 34 l 1
 59 33 l 1
 60 33 l 1
 60 35 l 1
45 26 m 1
 44 26 l 1
 44 25 l 1
 46 25 l 1
 46 27 l 1
 45 27 l 1
 45 26 l 1
49 27 m 1
 47 27 l 1
 47 25 l 1
 49 25 l 1
 49 27 l 1
55 27 m 1
 53 27 l 1
 53 25 l 1
 55 25 l 1
 55 27 l 1
58 27 m 1
 56 27 l 1
 56 25 l 1
 57 25 l 1
 57 26 l 1
 58 26 l 1
 58 27 l 1
59 26 m 1
 58 26 l 1
 58 25 l 1
 60 25 l 1
 60 27 l 1
 59 27 l 1
 59 26 l 1
63 35 m 1
 61 35 l 1
 61 33 l 1
 63 33 l 1
 63 35 l 1
63 31 m 1
 61 31 l 1
 61 29 l 1
 63 29 l 1
 63 31 l 1
63 27 m 1
 61 27 l 1
 61 25 l 1
 63 25 l 1
 63 27 l 1
EndSplineSet
EndChar

StartChar: custom_3_9_0_5_6
Encoding: 31724 31724 11756
Width: 70
Flags: H
LayerCount: 2
Fore
SplineSet
31 43 m 1
 29 43 l 1
 29 41 l 1
 31 41 l 1
 31 43 l 1
31 39 m 1
 29 39 l 1
 29 37 l 1
 31 37 l 1
 31 39 l 1
36 37 m 1
 34 37 l 1
 34 35 l 1
 36 35 l 1
 36 37 l 1
41 43 m 1
 39 43 l 1
 39 41 l 1
 41 41 l 1
 41 43 l 1
44 43 m 1
 42 43 l 1
 42 41 l 1
 43 41 l 1
 43 42 l 1
 44 42 l 1
 44 43 l 1
31 35 m 1
 29 35 l 1
 29 33 l 1
 31 33 l 1
 31 35 l 1
36 33 m 1
 34 33 l 1
 34 31 l 1
 36 31 l 1
 36 33 l 1
31 31 m 1
 29 31 l 1
 29 29 l 1
 31 29 l 1
 31 31 l 1
41 35 m 1
 39 35 l 1
 39 33 l 1
 41 33 l 1
 41 35 l 1
43 35 m 1
 42 35 l 1
 42 33 l 1
 44 33 l 1
 44 34 l 1
 43 34 l 1
 43 35 l 1
31 27 m 1
 29 27 l 1
 29 25 l 1
 31 25 l 1
 31 27 l 1
41 27 m 1
 39 27 l 1
 39 25 l 1
 41 25 l 1
 41 27 l 1
44 27 m 1
 42 27 l 1
 42 25 l 1
 43 25 l 1
 43 26 l 1
 44 26 l 1
 44 27 l 1
45 42 m 1
 44 42 l 1
 44 41 l 1
 46 41 l 1
 46 43 l 1
 45 43 l 1
 45 42 l 1
49 43 m 1
 47 43 l 1
 47 41 l 1
 49 41 l 1
 49 43 l 1
49 39 m 1
 47 39 l 1
 47 37 l 1
 49 37 l 1
 49 39 l 1
55 43 m 1
 53 43 l 1
 53 41 l 1
 55 41 l 1
 55 43 l 1
58 43 m 1
 56 43 l 1
 56 41 l 1
 57 41 l 1
 57 42 l 1
 58 42 l 1
 58 43 l 1
59 42 m 1
 58 42 l 1
 58 41 l 1
 60 41 l 1
 60 43 l 1
 59 43 l 1
 59 42 l 1
55 39 m 1
 53 39 l 1
 53 37 l 1
 55 37 l 1
 55 39 l 1
63 43 m 1
 61 43 l 1
 61 41 l 1
 63 41 l 1
 63 43 l 1
63 39 m 1
 61 39 l 1
 61 37 l 1
 63 37 l 1
 63 39 l 1
46 35 m 1
 44 35 l 1
 44 34 l 1
 45 34 l 1
 45 33 l 1
 46 33 l 1
 46 35 l 1
49 35 m 1
 47 35 l 1
 47 33 l 1
 49 33 l 1
 49 35 l 1
49 31 m 1
 47 31 l 1
 47 29 l 1
 49 29 l 1
 49 31 l 1
55 35 m 1
 53 35 l 1
 53 33 l 1
 55 33 l 1
 55 35 l 1
57 35 m 1
 56 35 l 1
 56 33 l 1
 58 33 l 1
 58 34 l 1
 57 34 l 1
 57 35 l 1
60 35 m 1
 58 35 l 1
 58 34 l 1
 59 34 l 1
 59 33 l 1
 60 33 l 1
 60 35 l 1
45 26 m 1
 44 26 l 1
 44 25 l 1
 46 25 l 1
 46 27 l 1
 45 27 l 1
 45 26 l 1
49 27 m 1
 47 27 l 1
 47 25 l 1
 49 25 l 1
 49 27 l 1
55 27 m 1
 53 27 l 1
 53 25 l 1
 55 25 l 1
 55 27 l 1
58 27 m 1
 56 27 l 1
 56 25 l 1
 57 25 l 1
 57 26 l 1
 58 26 l 1
 58 27 l 1
59 26 m 1
 58 26 l 1
 58 25 l 1
 60 25 l 1
 60 27 l 1
 59 27 l 1
 59 26 l 1
63 35 m 1
 61 35 l 1
 61 33 l 1
 63 33 l 1
 63 35 l 1
63 31 m 1
 61 31 l 1
 61 29 l 1
 63 29 l 1
 63 31 l 1
63 27 m 1
 61 27 l 1
 61 25 l 1
 63 25 l 1
 63 27 l 1
EndSplineSet
EndChar

StartChar: custom_3_9_0_5_7
Encoding: 31725 31725 11757
Width: 70
Flags: H
LayerCount: 2
Fore
SplineSet
31 43 m 1
 29 43 l 1
 29 41 l 1
 31 41 l 1
 31 43 l 1
31 39 m 1
 29 39 l 1
 29 37 l 1
 31 37 l 1
 31 39 l 1
36 37 m 1
 34 37 l 1
 34 35 l 1
 36 35 l 1
 36 37 l 1
41 43 m 1
 39 43 l 1
 39 41 l 1
 41 41 l 1
 41 43 l 1
44 43 m 1
 42 43 l 1
 42 41 l 1
 43 41 l 1
 43 42 l 1
 44 42 l 1
 44 43 l 1
31 35 m 1
 29 35 l 1
 29 33 l 1
 31 33 l 1
 31 35 l 1
36 33 m 1
 34 33 l 1
 34 31 l 1
 36 31 l 1
 36 33 l 1
31 31 m 1
 29 31 l 1
 29 29 l 1
 31 29 l 1
 31 31 l 1
41 35 m 1
 39 35 l 1
 39 33 l 1
 41 33 l 1
 41 35 l 1
43 35 m 1
 42 35 l 1
 42 33 l 1
 44 33 l 1
 44 34 l 1
 43 34 l 1
 43 35 l 1
31 27 m 1
 29 27 l 1
 29 25 l 1
 31 25 l 1
 31 27 l 1
41 27 m 1
 39 27 l 1
 39 25 l 1
 41 25 l 1
 41 27 l 1
44 27 m 1
 42 27 l 1
 42 25 l 1
 43 25 l 1
 43 26 l 1
 44 26 l 1
 44 27 l 1
45 42 m 1
 44 42 l 1
 44 41 l 1
 46 41 l 1
 46 43 l 1
 45 43 l 1
 45 42 l 1
49 43 m 1
 47 43 l 1
 47 41 l 1
 49 41 l 1
 49 43 l 1
49 39 m 1
 47 39 l 1
 47 37 l 1
 49 37 l 1
 49 39 l 1
55 43 m 1
 53 43 l 1
 53 41 l 1
 55 41 l 1
 55 43 l 1
58 43 m 1
 56 43 l 1
 56 41 l 1
 57 41 l 1
 57 42 l 1
 58 42 l 1
 58 43 l 1
59 42 m 1
 58 42 l 1
 58 41 l 1
 60 41 l 1
 60 43 l 1
 59 43 l 1
 59 42 l 1
55 39 m 1
 53 39 l 1
 53 37 l 1
 55 37 l 1
 55 39 l 1
63 43 m 1
 61 43 l 1
 61 41 l 1
 63 41 l 1
 63 43 l 1
63 39 m 1
 61 39 l 1
 61 37 l 1
 63 37 l 1
 63 39 l 1
46 35 m 1
 44 35 l 1
 44 34 l 1
 45 34 l 1
 45 33 l 1
 46 33 l 1
 46 35 l 1
49 35 m 1
 47 35 l 1
 47 33 l 1
 49 33 l 1
 49 35 l 1
49 31 m 1
 47 31 l 1
 47 29 l 1
 49 29 l 1
 49 31 l 1
55 35 m 1
 53 35 l 1
 53 33 l 1
 55 33 l 1
 55 35 l 1
57 35 m 1
 56 35 l 1
 56 33 l 1
 58 33 l 1
 58 34 l 1
 57 34 l 1
 57 35 l 1
60 35 m 1
 58 35 l 1
 58 34 l 1
 59 34 l 1
 59 33 l 1
 60 33 l 1
 60 35 l 1
45 26 m 1
 44 26 l 1
 44 25 l 1
 46 25 l 1
 46 27 l 1
 45 27 l 1
 45 26 l 1
49 27 m 1
 47 27 l 1
 47 25 l 1
 49 25 l 1
 49 27 l 1
55 27 m 1
 53 27 l 1
 53 25 l 1
 55 25 l 1
 55 27 l 1
58 27 m 1
 56 27 l 1
 56 25 l 1
 57 25 l 1
 57 26 l 1
 58 26 l 1
 58 27 l 1
59 26 m 1
 58 26 l 1
 58 25 l 1
 60 25 l 1
 60 27 l 1
 59 27 l 1
 59 26 l 1
63 35 m 1
 61 35 l 1
 61 33 l 1
 63 33 l 1
 63 35 l 1
63 31 m 1
 61 31 l 1
 61 29 l 1
 63 29 l 1
 63 31 l 1
63 27 m 1
 61 27 l 1
 61 25 l 1
 63 25 l 1
 63 27 l 1
EndSplineSet
EndChar

StartChar: custom_3_9_0_5_8
Encoding: 31726 31726 11758
Width: 70
Flags: H
LayerCount: 2
Fore
SplineSet
31 43 m 1
 29 43 l 1
 29 41 l 1
 31 41 l 1
 31 43 l 1
31 39 m 1
 29 39 l 1
 29 37 l 1
 31 37 l 1
 31 39 l 1
36 37 m 1
 34 37 l 1
 34 35 l 1
 36 35 l 1
 36 37 l 1
41 43 m 1
 39 43 l 1
 39 41 l 1
 41 41 l 1
 41 43 l 1
44 43 m 1
 42 43 l 1
 42 41 l 1
 43 41 l 1
 43 42 l 1
 44 42 l 1
 44 43 l 1
31 35 m 1
 29 35 l 1
 29 33 l 1
 31 33 l 1
 31 35 l 1
36 33 m 1
 34 33 l 1
 34 31 l 1
 36 31 l 1
 36 33 l 1
31 31 m 1
 29 31 l 1
 29 29 l 1
 31 29 l 1
 31 31 l 1
41 35 m 1
 39 35 l 1
 39 33 l 1
 41 33 l 1
 41 35 l 1
43 35 m 1
 42 35 l 1
 42 33 l 1
 44 33 l 1
 44 34 l 1
 43 34 l 1
 43 35 l 1
31 27 m 1
 29 27 l 1
 29 25 l 1
 31 25 l 1
 31 27 l 1
41 27 m 1
 39 27 l 1
 39 25 l 1
 41 25 l 1
 41 27 l 1
44 27 m 1
 42 27 l 1
 42 25 l 1
 43 25 l 1
 43 26 l 1
 44 26 l 1
 44 27 l 1
45 42 m 1
 44 42 l 1
 44 41 l 1
 46 41 l 1
 46 43 l 1
 45 43 l 1
 45 42 l 1
49 43 m 1
 47 43 l 1
 47 41 l 1
 49 41 l 1
 49 43 l 1
49 39 m 1
 47 39 l 1
 47 37 l 1
 49 37 l 1
 49 39 l 1
55 43 m 1
 53 43 l 1
 53 41 l 1
 55 41 l 1
 55 43 l 1
58 43 m 1
 56 43 l 1
 56 41 l 1
 57 41 l 1
 57 42 l 1
 58 42 l 1
 58 43 l 1
59 42 m 1
 58 42 l 1
 58 41 l 1
 60 41 l 1
 60 43 l 1
 59 43 l 1
 59 42 l 1
55 39 m 1
 53 39 l 1
 53 37 l 1
 55 37 l 1
 55 39 l 1
63 43 m 1
 61 43 l 1
 61 41 l 1
 63 41 l 1
 63 43 l 1
63 39 m 1
 61 39 l 1
 61 37 l 1
 63 37 l 1
 63 39 l 1
46 35 m 1
 44 35 l 1
 44 34 l 1
 45 34 l 1
 45 33 l 1
 46 33 l 1
 46 35 l 1
49 35 m 1
 47 35 l 1
 47 33 l 1
 49 33 l 1
 49 35 l 1
49 31 m 1
 47 31 l 1
 47 29 l 1
 49 29 l 1
 49 31 l 1
55 35 m 1
 53 35 l 1
 53 33 l 1
 55 33 l 1
 55 35 l 1
57 35 m 1
 56 35 l 1
 56 33 l 1
 58 33 l 1
 58 34 l 1
 57 34 l 1
 57 35 l 1
60 35 m 1
 58 35 l 1
 58 34 l 1
 59 34 l 1
 59 33 l 1
 60 33 l 1
 60 35 l 1
45 26 m 1
 44 26 l 1
 44 25 l 1
 46 25 l 1
 46 27 l 1
 45 27 l 1
 45 26 l 1
49 27 m 1
 47 27 l 1
 47 25 l 1
 49 25 l 1
 49 27 l 1
55 27 m 1
 53 27 l 1
 53 25 l 1
 55 25 l 1
 55 27 l 1
58 27 m 1
 56 27 l 1
 56 25 l 1
 57 25 l 1
 57 26 l 1
 58 26 l 1
 58 27 l 1
59 26 m 1
 58 26 l 1
 58 25 l 1
 60 25 l 1
 60 27 l 1
 59 27 l 1
 59 26 l 1
63 35 m 1
 61 35 l 1
 61 33 l 1
 63 33 l 1
 63 35 l 1
63 31 m 1
 61 31 l 1
 61 29 l 1
 63 29 l 1
 63 31 l 1
63 27 m 1
 61 27 l 1
 61 25 l 1
 63 25 l 1
 63 27 l 1
EndSplineSet
EndChar

StartChar: custom_3_9_0_5_9
Encoding: 31727 31727 11759
Width: 70
Flags: H
LayerCount: 2
Fore
SplineSet
31 43 m 1
 29 43 l 1
 29 41 l 1
 31 41 l 1
 31 43 l 1
31 39 m 1
 29 39 l 1
 29 37 l 1
 31 37 l 1
 31 39 l 1
36 37 m 1
 34 37 l 1
 34 35 l 1
 36 35 l 1
 36 37 l 1
41 43 m 1
 39 43 l 1
 39 41 l 1
 41 41 l 1
 41 43 l 1
44 43 m 1
 42 43 l 1
 42 41 l 1
 43 41 l 1
 43 42 l 1
 44 42 l 1
 44 43 l 1
31 35 m 1
 29 35 l 1
 29 33 l 1
 31 33 l 1
 31 35 l 1
36 33 m 1
 34 33 l 1
 34 31 l 1
 36 31 l 1
 36 33 l 1
31 31 m 1
 29 31 l 1
 29 29 l 1
 31 29 l 1
 31 31 l 1
41 35 m 1
 39 35 l 1
 39 33 l 1
 41 33 l 1
 41 35 l 1
43 35 m 1
 42 35 l 1
 42 33 l 1
 44 33 l 1
 44 34 l 1
 43 34 l 1
 43 35 l 1
31 27 m 1
 29 27 l 1
 29 25 l 1
 31 25 l 1
 31 27 l 1
41 27 m 1
 39 27 l 1
 39 25 l 1
 41 25 l 1
 41 27 l 1
44 27 m 1
 42 27 l 1
 42 25 l 1
 43 25 l 1
 43 26 l 1
 44 26 l 1
 44 27 l 1
45 42 m 1
 44 42 l 1
 44 41 l 1
 46 41 l 1
 46 43 l 1
 45 43 l 1
 45 42 l 1
49 43 m 1
 47 43 l 1
 47 41 l 1
 49 41 l 1
 49 43 l 1
49 39 m 1
 47 39 l 1
 47 37 l 1
 49 37 l 1
 49 39 l 1
55 43 m 1
 53 43 l 1
 53 41 l 1
 55 41 l 1
 55 43 l 1
58 43 m 1
 56 43 l 1
 56 41 l 1
 57 41 l 1
 57 42 l 1
 58 42 l 1
 58 43 l 1
59 42 m 1
 58 42 l 1
 58 41 l 1
 60 41 l 1
 60 43 l 1
 59 43 l 1
 59 42 l 1
55 39 m 1
 53 39 l 1
 53 37 l 1
 55 37 l 1
 55 39 l 1
63 43 m 1
 61 43 l 1
 61 41 l 1
 63 41 l 1
 63 43 l 1
63 39 m 1
 61 39 l 1
 61 37 l 1
 63 37 l 1
 63 39 l 1
46 35 m 1
 44 35 l 1
 44 34 l 1
 45 34 l 1
 45 33 l 1
 46 33 l 1
 46 35 l 1
49 35 m 1
 47 35 l 1
 47 33 l 1
 49 33 l 1
 49 35 l 1
49 31 m 1
 47 31 l 1
 47 29 l 1
 49 29 l 1
 49 31 l 1
55 35 m 1
 53 35 l 1
 53 33 l 1
 55 33 l 1
 55 35 l 1
57 35 m 1
 56 35 l 1
 56 33 l 1
 58 33 l 1
 58 34 l 1
 57 34 l 1
 57 35 l 1
60 35 m 1
 58 35 l 1
 58 34 l 1
 59 34 l 1
 59 33 l 1
 60 33 l 1
 60 35 l 1
45 26 m 1
 44 26 l 1
 44 25 l 1
 46 25 l 1
 46 27 l 1
 45 27 l 1
 45 26 l 1
49 27 m 1
 47 27 l 1
 47 25 l 1
 49 25 l 1
 49 27 l 1
55 27 m 1
 53 27 l 1
 53 25 l 1
 55 25 l 1
 55 27 l 1
58 27 m 1
 56 27 l 1
 56 25 l 1
 57 25 l 1
 57 26 l 1
 58 26 l 1
 58 27 l 1
59 26 m 1
 58 26 l 1
 58 25 l 1
 60 25 l 1
 60 27 l 1
 59 27 l 1
 59 26 l 1
63 35 m 1
 61 35 l 1
 61 33 l 1
 63 33 l 1
 63 35 l 1
63 31 m 1
 61 31 l 1
 61 29 l 1
 63 29 l 1
 63 31 l 1
63 27 m 1
 61 27 l 1
 61 25 l 1
 63 25 l 1
 63 27 l 1
EndSplineSet
EndChar

StartChar: custom_3_9_0_6_0
Encoding: 31728 31728 11760
Width: 70
Flags: H
LayerCount: 2
Fore
SplineSet
31 43 m 1
 29 43 l 1
 29 41 l 1
 31 41 l 1
 31 43 l 1
31 39 m 1
 29 39 l 1
 29 37 l 1
 31 37 l 1
 31 39 l 1
36 37 m 1
 34 37 l 1
 34 35 l 1
 36 35 l 1
 36 37 l 1
41 43 m 1
 39 43 l 1
 39 41 l 1
 41 41 l 1
 41 43 l 1
44 43 m 1
 42 43 l 1
 42 41 l 1
 43 41 l 1
 43 42 l 1
 44 42 l 1
 44 43 l 1
31 35 m 1
 29 35 l 1
 29 33 l 1
 31 33 l 1
 31 35 l 1
36 33 m 1
 34 33 l 1
 34 31 l 1
 36 31 l 1
 36 33 l 1
31 31 m 1
 29 31 l 1
 29 29 l 1
 31 29 l 1
 31 31 l 1
41 35 m 1
 39 35 l 1
 39 33 l 1
 41 33 l 1
 41 35 l 1
43 35 m 1
 42 35 l 1
 42 33 l 1
 44 33 l 1
 44 34 l 1
 43 34 l 1
 43 35 l 1
31 27 m 1
 29 27 l 1
 29 25 l 1
 31 25 l 1
 31 27 l 1
41 27 m 1
 39 27 l 1
 39 25 l 1
 41 25 l 1
 41 27 l 1
44 27 m 1
 42 27 l 1
 42 25 l 1
 43 25 l 1
 43 26 l 1
 44 26 l 1
 44 27 l 1
45 42 m 1
 44 42 l 1
 44 41 l 1
 46 41 l 1
 46 43 l 1
 45 43 l 1
 45 42 l 1
49 43 m 1
 47 43 l 1
 47 41 l 1
 49 41 l 1
 49 43 l 1
49 39 m 1
 47 39 l 1
 47 37 l 1
 49 37 l 1
 49 39 l 1
55 43 m 1
 53 43 l 1
 53 41 l 1
 55 41 l 1
 55 43 l 1
58 43 m 1
 56 43 l 1
 56 41 l 1
 57 41 l 1
 57 42 l 1
 58 42 l 1
 58 43 l 1
59 42 m 1
 58 42 l 1
 58 41 l 1
 60 41 l 1
 60 43 l 1
 59 43 l 1
 59 42 l 1
55 39 m 1
 53 39 l 1
 53 37 l 1
 55 37 l 1
 55 39 l 1
63 43 m 1
 61 43 l 1
 61 41 l 1
 63 41 l 1
 63 43 l 1
63 39 m 1
 61 39 l 1
 61 37 l 1
 63 37 l 1
 63 39 l 1
46 35 m 1
 44 35 l 1
 44 34 l 1
 45 34 l 1
 45 33 l 1
 46 33 l 1
 46 35 l 1
49 35 m 1
 47 35 l 1
 47 33 l 1
 49 33 l 1
 49 35 l 1
49 31 m 1
 47 31 l 1
 47 29 l 1
 49 29 l 1
 49 31 l 1
55 35 m 1
 53 35 l 1
 53 33 l 1
 55 33 l 1
 55 35 l 1
57 35 m 1
 56 35 l 1
 56 33 l 1
 58 33 l 1
 58 34 l 1
 57 34 l 1
 57 35 l 1
60 35 m 1
 58 35 l 1
 58 34 l 1
 59 34 l 1
 59 33 l 1
 60 33 l 1
 60 35 l 1
45 26 m 1
 44 26 l 1
 44 25 l 1
 46 25 l 1
 46 27 l 1
 45 27 l 1
 45 26 l 1
49 27 m 1
 47 27 l 1
 47 25 l 1
 49 25 l 1
 49 27 l 1
55 27 m 1
 53 27 l 1
 53 25 l 1
 55 25 l 1
 55 27 l 1
58 27 m 1
 56 27 l 1
 56 25 l 1
 57 25 l 1
 57 26 l 1
 58 26 l 1
 58 27 l 1
59 26 m 1
 58 26 l 1
 58 25 l 1
 60 25 l 1
 60 27 l 1
 59 27 l 1
 59 26 l 1
63 35 m 1
 61 35 l 1
 61 33 l 1
 63 33 l 1
 63 35 l 1
63 31 m 1
 61 31 l 1
 61 29 l 1
 63 29 l 1
 63 31 l 1
63 27 m 1
 61 27 l 1
 61 25 l 1
 63 25 l 1
 63 27 l 1
EndSplineSet
EndChar

StartChar: custom_3_9_0_6_1
Encoding: 31729 31729 11761
Width: 70
Flags: H
LayerCount: 2
Fore
SplineSet
31 43 m 1
 29 43 l 1
 29 41 l 1
 31 41 l 1
 31 43 l 1
31 39 m 1
 29 39 l 1
 29 37 l 1
 31 37 l 1
 31 39 l 1
36 37 m 1
 34 37 l 1
 34 35 l 1
 36 35 l 1
 36 37 l 1
41 43 m 1
 39 43 l 1
 39 41 l 1
 41 41 l 1
 41 43 l 1
44 43 m 1
 42 43 l 1
 42 41 l 1
 43 41 l 1
 43 42 l 1
 44 42 l 1
 44 43 l 1
31 35 m 1
 29 35 l 1
 29 33 l 1
 31 33 l 1
 31 35 l 1
36 33 m 1
 34 33 l 1
 34 31 l 1
 36 31 l 1
 36 33 l 1
31 31 m 1
 29 31 l 1
 29 29 l 1
 31 29 l 1
 31 31 l 1
41 35 m 1
 39 35 l 1
 39 33 l 1
 41 33 l 1
 41 35 l 1
43 35 m 1
 42 35 l 1
 42 33 l 1
 44 33 l 1
 44 34 l 1
 43 34 l 1
 43 35 l 1
31 27 m 1
 29 27 l 1
 29 25 l 1
 31 25 l 1
 31 27 l 1
41 27 m 1
 39 27 l 1
 39 25 l 1
 41 25 l 1
 41 27 l 1
44 27 m 1
 42 27 l 1
 42 25 l 1
 43 25 l 1
 43 26 l 1
 44 26 l 1
 44 27 l 1
45 42 m 1
 44 42 l 1
 44 41 l 1
 46 41 l 1
 46 43 l 1
 45 43 l 1
 45 42 l 1
49 43 m 1
 47 43 l 1
 47 41 l 1
 49 41 l 1
 49 43 l 1
49 39 m 1
 47 39 l 1
 47 37 l 1
 49 37 l 1
 49 39 l 1
55 43 m 1
 53 43 l 1
 53 41 l 1
 55 41 l 1
 55 43 l 1
58 43 m 1
 56 43 l 1
 56 41 l 1
 57 41 l 1
 57 42 l 1
 58 42 l 1
 58 43 l 1
59 42 m 1
 58 42 l 1
 58 41 l 1
 60 41 l 1
 60 43 l 1
 59 43 l 1
 59 42 l 1
55 39 m 1
 53 39 l 1
 53 37 l 1
 55 37 l 1
 55 39 l 1
63 43 m 1
 61 43 l 1
 61 41 l 1
 63 41 l 1
 63 43 l 1
63 39 m 1
 61 39 l 1
 61 37 l 1
 63 37 l 1
 63 39 l 1
46 35 m 1
 44 35 l 1
 44 34 l 1
 45 34 l 1
 45 33 l 1
 46 33 l 1
 46 35 l 1
49 35 m 1
 47 35 l 1
 47 33 l 1
 49 33 l 1
 49 35 l 1
49 31 m 1
 47 31 l 1
 47 29 l 1
 49 29 l 1
 49 31 l 1
55 35 m 1
 53 35 l 1
 53 33 l 1
 55 33 l 1
 55 35 l 1
57 35 m 1
 56 35 l 1
 56 33 l 1
 58 33 l 1
 58 34 l 1
 57 34 l 1
 57 35 l 1
60 35 m 1
 58 35 l 1
 58 34 l 1
 59 34 l 1
 59 33 l 1
 60 33 l 1
 60 35 l 1
45 26 m 1
 44 26 l 1
 44 25 l 1
 46 25 l 1
 46 27 l 1
 45 27 l 1
 45 26 l 1
49 27 m 1
 47 27 l 1
 47 25 l 1
 49 25 l 1
 49 27 l 1
55 27 m 1
 53 27 l 1
 53 25 l 1
 55 25 l 1
 55 27 l 1
58 27 m 1
 56 27 l 1
 56 25 l 1
 57 25 l 1
 57 26 l 1
 58 26 l 1
 58 27 l 1
59 26 m 1
 58 26 l 1
 58 25 l 1
 60 25 l 1
 60 27 l 1
 59 27 l 1
 59 26 l 1
63 35 m 1
 61 35 l 1
 61 33 l 1
 63 33 l 1
 63 35 l 1
63 31 m 1
 61 31 l 1
 61 29 l 1
 63 29 l 1
 63 31 l 1
63 27 m 1
 61 27 l 1
 61 25 l 1
 63 25 l 1
 63 27 l 1
EndSplineSet
EndChar

StartChar: custom_3_9_0_6_2
Encoding: 31730 31730 11762
Width: 70
Flags: H
LayerCount: 2
Fore
SplineSet
31 43 m 1
 29 43 l 1
 29 41 l 1
 31 41 l 1
 31 43 l 1
31 39 m 1
 29 39 l 1
 29 37 l 1
 31 37 l 1
 31 39 l 1
36 37 m 1
 34 37 l 1
 34 35 l 1
 36 35 l 1
 36 37 l 1
41 43 m 1
 39 43 l 1
 39 41 l 1
 41 41 l 1
 41 43 l 1
44 43 m 1
 42 43 l 1
 42 41 l 1
 43 41 l 1
 43 42 l 1
 44 42 l 1
 44 43 l 1
31 35 m 1
 29 35 l 1
 29 33 l 1
 31 33 l 1
 31 35 l 1
36 33 m 1
 34 33 l 1
 34 31 l 1
 36 31 l 1
 36 33 l 1
31 31 m 1
 29 31 l 1
 29 29 l 1
 31 29 l 1
 31 31 l 1
41 35 m 1
 39 35 l 1
 39 33 l 1
 41 33 l 1
 41 35 l 1
43 35 m 1
 42 35 l 1
 42 33 l 1
 44 33 l 1
 44 34 l 1
 43 34 l 1
 43 35 l 1
31 27 m 1
 29 27 l 1
 29 25 l 1
 31 25 l 1
 31 27 l 1
41 27 m 1
 39 27 l 1
 39 25 l 1
 41 25 l 1
 41 27 l 1
44 27 m 1
 42 27 l 1
 42 25 l 1
 43 25 l 1
 43 26 l 1
 44 26 l 1
 44 27 l 1
45 42 m 1
 44 42 l 1
 44 41 l 1
 46 41 l 1
 46 43 l 1
 45 43 l 1
 45 42 l 1
49 43 m 1
 47 43 l 1
 47 41 l 1
 49 41 l 1
 49 43 l 1
49 39 m 1
 47 39 l 1
 47 37 l 1
 49 37 l 1
 49 39 l 1
55 43 m 1
 53 43 l 1
 53 41 l 1
 55 41 l 1
 55 43 l 1
58 43 m 1
 56 43 l 1
 56 41 l 1
 57 41 l 1
 57 42 l 1
 58 42 l 1
 58 43 l 1
59 42 m 1
 58 42 l 1
 58 41 l 1
 60 41 l 1
 60 43 l 1
 59 43 l 1
 59 42 l 1
55 39 m 1
 53 39 l 1
 53 37 l 1
 55 37 l 1
 55 39 l 1
63 43 m 1
 61 43 l 1
 61 41 l 1
 63 41 l 1
 63 43 l 1
63 39 m 1
 61 39 l 1
 61 37 l 1
 63 37 l 1
 63 39 l 1
46 35 m 1
 44 35 l 1
 44 34 l 1
 45 34 l 1
 45 33 l 1
 46 33 l 1
 46 35 l 1
49 35 m 1
 47 35 l 1
 47 33 l 1
 49 33 l 1
 49 35 l 1
49 31 m 1
 47 31 l 1
 47 29 l 1
 49 29 l 1
 49 31 l 1
55 35 m 1
 53 35 l 1
 53 33 l 1
 55 33 l 1
 55 35 l 1
57 35 m 1
 56 35 l 1
 56 33 l 1
 58 33 l 1
 58 34 l 1
 57 34 l 1
 57 35 l 1
60 35 m 1
 58 35 l 1
 58 34 l 1
 59 34 l 1
 59 33 l 1
 60 33 l 1
 60 35 l 1
45 26 m 1
 44 26 l 1
 44 25 l 1
 46 25 l 1
 46 27 l 1
 45 27 l 1
 45 26 l 1
49 27 m 1
 47 27 l 1
 47 25 l 1
 49 25 l 1
 49 27 l 1
55 27 m 1
 53 27 l 1
 53 25 l 1
 55 25 l 1
 55 27 l 1
58 27 m 1
 56 27 l 1
 56 25 l 1
 57 25 l 1
 57 26 l 1
 58 26 l 1
 58 27 l 1
59 26 m 1
 58 26 l 1
 58 25 l 1
 60 25 l 1
 60 27 l 1
 59 27 l 1
 59 26 l 1
63 35 m 1
 61 35 l 1
 61 33 l 1
 63 33 l 1
 63 35 l 1
63 31 m 1
 61 31 l 1
 61 29 l 1
 63 29 l 1
 63 31 l 1
63 27 m 1
 61 27 l 1
 61 25 l 1
 63 25 l 1
 63 27 l 1
EndSplineSet
EndChar

StartChar: custom_3_9_0_6_3
Encoding: 31731 31731 11763
Width: 70
Flags: H
LayerCount: 2
Fore
SplineSet
31 43 m 1
 29 43 l 1
 29 41 l 1
 31 41 l 1
 31 43 l 1
31 39 m 1
 29 39 l 1
 29 37 l 1
 31 37 l 1
 31 39 l 1
36 37 m 1
 34 37 l 1
 34 35 l 1
 36 35 l 1
 36 37 l 1
41 43 m 1
 39 43 l 1
 39 41 l 1
 41 41 l 1
 41 43 l 1
44 43 m 1
 42 43 l 1
 42 41 l 1
 43 41 l 1
 43 42 l 1
 44 42 l 1
 44 43 l 1
31 35 m 1
 29 35 l 1
 29 33 l 1
 31 33 l 1
 31 35 l 1
36 33 m 1
 34 33 l 1
 34 31 l 1
 36 31 l 1
 36 33 l 1
31 31 m 1
 29 31 l 1
 29 29 l 1
 31 29 l 1
 31 31 l 1
41 35 m 1
 39 35 l 1
 39 33 l 1
 41 33 l 1
 41 35 l 1
43 35 m 1
 42 35 l 1
 42 33 l 1
 44 33 l 1
 44 34 l 1
 43 34 l 1
 43 35 l 1
31 27 m 1
 29 27 l 1
 29 25 l 1
 31 25 l 1
 31 27 l 1
41 27 m 1
 39 27 l 1
 39 25 l 1
 41 25 l 1
 41 27 l 1
44 27 m 1
 42 27 l 1
 42 25 l 1
 43 25 l 1
 43 26 l 1
 44 26 l 1
 44 27 l 1
45 42 m 1
 44 42 l 1
 44 41 l 1
 46 41 l 1
 46 43 l 1
 45 43 l 1
 45 42 l 1
49 43 m 1
 47 43 l 1
 47 41 l 1
 49 41 l 1
 49 43 l 1
49 39 m 1
 47 39 l 1
 47 37 l 1
 49 37 l 1
 49 39 l 1
55 43 m 1
 53 43 l 1
 53 41 l 1
 55 41 l 1
 55 43 l 1
58 43 m 1
 56 43 l 1
 56 41 l 1
 57 41 l 1
 57 42 l 1
 58 42 l 1
 58 43 l 1
59 42 m 1
 58 42 l 1
 58 41 l 1
 60 41 l 1
 60 43 l 1
 59 43 l 1
 59 42 l 1
55 39 m 1
 53 39 l 1
 53 37 l 1
 55 37 l 1
 55 39 l 1
63 43 m 1
 61 43 l 1
 61 41 l 1
 63 41 l 1
 63 43 l 1
63 39 m 1
 61 39 l 1
 61 37 l 1
 63 37 l 1
 63 39 l 1
46 35 m 1
 44 35 l 1
 44 34 l 1
 45 34 l 1
 45 33 l 1
 46 33 l 1
 46 35 l 1
49 35 m 1
 47 35 l 1
 47 33 l 1
 49 33 l 1
 49 35 l 1
49 31 m 1
 47 31 l 1
 47 29 l 1
 49 29 l 1
 49 31 l 1
55 35 m 1
 53 35 l 1
 53 33 l 1
 55 33 l 1
 55 35 l 1
57 35 m 1
 56 35 l 1
 56 33 l 1
 58 33 l 1
 58 34 l 1
 57 34 l 1
 57 35 l 1
60 35 m 1
 58 35 l 1
 58 34 l 1
 59 34 l 1
 59 33 l 1
 60 33 l 1
 60 35 l 1
45 26 m 1
 44 26 l 1
 44 25 l 1
 46 25 l 1
 46 27 l 1
 45 27 l 1
 45 26 l 1
49 27 m 1
 47 27 l 1
 47 25 l 1
 49 25 l 1
 49 27 l 1
55 27 m 1
 53 27 l 1
 53 25 l 1
 55 25 l 1
 55 27 l 1
58 27 m 1
 56 27 l 1
 56 25 l 1
 57 25 l 1
 57 26 l 1
 58 26 l 1
 58 27 l 1
59 26 m 1
 58 26 l 1
 58 25 l 1
 60 25 l 1
 60 27 l 1
 59 27 l 1
 59 26 l 1
63 35 m 1
 61 35 l 1
 61 33 l 1
 63 33 l 1
 63 35 l 1
63 31 m 1
 61 31 l 1
 61 29 l 1
 63 29 l 1
 63 31 l 1
63 27 m 1
 61 27 l 1
 61 25 l 1
 63 25 l 1
 63 27 l 1
EndSplineSet
EndChar

StartChar: custom_3_9_0_6_4
Encoding: 31732 31732 11764
Width: 70
Flags: H
LayerCount: 2
Fore
SplineSet
31 43 m 1
 29 43 l 1
 29 41 l 1
 31 41 l 1
 31 43 l 1
31 39 m 1
 29 39 l 1
 29 37 l 1
 31 37 l 1
 31 39 l 1
36 37 m 1
 34 37 l 1
 34 35 l 1
 36 35 l 1
 36 37 l 1
41 43 m 1
 39 43 l 1
 39 41 l 1
 41 41 l 1
 41 43 l 1
44 43 m 1
 42 43 l 1
 42 41 l 1
 43 41 l 1
 43 42 l 1
 44 42 l 1
 44 43 l 1
31 35 m 1
 29 35 l 1
 29 33 l 1
 31 33 l 1
 31 35 l 1
36 33 m 1
 34 33 l 1
 34 31 l 1
 36 31 l 1
 36 33 l 1
31 31 m 1
 29 31 l 1
 29 29 l 1
 31 29 l 1
 31 31 l 1
41 35 m 1
 39 35 l 1
 39 33 l 1
 41 33 l 1
 41 35 l 1
43 35 m 1
 42 35 l 1
 42 33 l 1
 44 33 l 1
 44 34 l 1
 43 34 l 1
 43 35 l 1
31 27 m 1
 29 27 l 1
 29 25 l 1
 31 25 l 1
 31 27 l 1
41 27 m 1
 39 27 l 1
 39 25 l 1
 41 25 l 1
 41 27 l 1
44 27 m 1
 42 27 l 1
 42 25 l 1
 43 25 l 1
 43 26 l 1
 44 26 l 1
 44 27 l 1
45 42 m 1
 44 42 l 1
 44 41 l 1
 46 41 l 1
 46 43 l 1
 45 43 l 1
 45 42 l 1
49 43 m 1
 47 43 l 1
 47 41 l 1
 49 41 l 1
 49 43 l 1
49 39 m 1
 47 39 l 1
 47 37 l 1
 49 37 l 1
 49 39 l 1
55 43 m 1
 53 43 l 1
 53 41 l 1
 55 41 l 1
 55 43 l 1
58 43 m 1
 56 43 l 1
 56 41 l 1
 57 41 l 1
 57 42 l 1
 58 42 l 1
 58 43 l 1
59 42 m 1
 58 42 l 1
 58 41 l 1
 60 41 l 1
 60 43 l 1
 59 43 l 1
 59 42 l 1
55 39 m 1
 53 39 l 1
 53 37 l 1
 55 37 l 1
 55 39 l 1
63 43 m 1
 61 43 l 1
 61 41 l 1
 63 41 l 1
 63 43 l 1
63 39 m 1
 61 39 l 1
 61 37 l 1
 63 37 l 1
 63 39 l 1
46 35 m 1
 44 35 l 1
 44 34 l 1
 45 34 l 1
 45 33 l 1
 46 33 l 1
 46 35 l 1
49 35 m 1
 47 35 l 1
 47 33 l 1
 49 33 l 1
 49 35 l 1
49 31 m 1
 47 31 l 1
 47 29 l 1
 49 29 l 1
 49 31 l 1
55 35 m 1
 53 35 l 1
 53 33 l 1
 55 33 l 1
 55 35 l 1
57 35 m 1
 56 35 l 1
 56 33 l 1
 58 33 l 1
 58 34 l 1
 57 34 l 1
 57 35 l 1
60 35 m 1
 58 35 l 1
 58 34 l 1
 59 34 l 1
 59 33 l 1
 60 33 l 1
 60 35 l 1
45 26 m 1
 44 26 l 1
 44 25 l 1
 46 25 l 1
 46 27 l 1
 45 27 l 1
 45 26 l 1
49 27 m 1
 47 27 l 1
 47 25 l 1
 49 25 l 1
 49 27 l 1
55 27 m 1
 53 27 l 1
 53 25 l 1
 55 25 l 1
 55 27 l 1
58 27 m 1
 56 27 l 1
 56 25 l 1
 57 25 l 1
 57 26 l 1
 58 26 l 1
 58 27 l 1
59 26 m 1
 58 26 l 1
 58 25 l 1
 60 25 l 1
 60 27 l 1
 59 27 l 1
 59 26 l 1
63 35 m 1
 61 35 l 1
 61 33 l 1
 63 33 l 1
 63 35 l 1
63 31 m 1
 61 31 l 1
 61 29 l 1
 63 29 l 1
 63 31 l 1
63 27 m 1
 61 27 l 1
 61 25 l 1
 63 25 l 1
 63 27 l 1
EndSplineSet
EndChar

StartChar: custom_3_9_0_6_5
Encoding: 31733 31733 11765
Width: 70
Flags: H
LayerCount: 2
Fore
SplineSet
31 43 m 1
 29 43 l 1
 29 41 l 1
 31 41 l 1
 31 43 l 1
31 39 m 1
 29 39 l 1
 29 37 l 1
 31 37 l 1
 31 39 l 1
36 37 m 1
 34 37 l 1
 34 35 l 1
 36 35 l 1
 36 37 l 1
41 43 m 1
 39 43 l 1
 39 41 l 1
 41 41 l 1
 41 43 l 1
44 43 m 1
 42 43 l 1
 42 41 l 1
 43 41 l 1
 43 42 l 1
 44 42 l 1
 44 43 l 1
31 35 m 1
 29 35 l 1
 29 33 l 1
 31 33 l 1
 31 35 l 1
36 33 m 1
 34 33 l 1
 34 31 l 1
 36 31 l 1
 36 33 l 1
31 31 m 1
 29 31 l 1
 29 29 l 1
 31 29 l 1
 31 31 l 1
41 35 m 1
 39 35 l 1
 39 33 l 1
 41 33 l 1
 41 35 l 1
43 35 m 1
 42 35 l 1
 42 33 l 1
 44 33 l 1
 44 34 l 1
 43 34 l 1
 43 35 l 1
31 27 m 1
 29 27 l 1
 29 25 l 1
 31 25 l 1
 31 27 l 1
41 27 m 1
 39 27 l 1
 39 25 l 1
 41 25 l 1
 41 27 l 1
44 27 m 1
 42 27 l 1
 42 25 l 1
 43 25 l 1
 43 26 l 1
 44 26 l 1
 44 27 l 1
45 42 m 1
 44 42 l 1
 44 41 l 1
 46 41 l 1
 46 43 l 1
 45 43 l 1
 45 42 l 1
49 43 m 1
 47 43 l 1
 47 41 l 1
 49 41 l 1
 49 43 l 1
49 39 m 1
 47 39 l 1
 47 37 l 1
 49 37 l 1
 49 39 l 1
55 43 m 1
 53 43 l 1
 53 41 l 1
 55 41 l 1
 55 43 l 1
58 43 m 1
 56 43 l 1
 56 41 l 1
 57 41 l 1
 57 42 l 1
 58 42 l 1
 58 43 l 1
59 42 m 1
 58 42 l 1
 58 41 l 1
 60 41 l 1
 60 43 l 1
 59 43 l 1
 59 42 l 1
55 39 m 1
 53 39 l 1
 53 37 l 1
 55 37 l 1
 55 39 l 1
63 43 m 1
 61 43 l 1
 61 41 l 1
 63 41 l 1
 63 43 l 1
63 39 m 1
 61 39 l 1
 61 37 l 1
 63 37 l 1
 63 39 l 1
46 35 m 1
 44 35 l 1
 44 34 l 1
 45 34 l 1
 45 33 l 1
 46 33 l 1
 46 35 l 1
49 35 m 1
 47 35 l 1
 47 33 l 1
 49 33 l 1
 49 35 l 1
49 31 m 1
 47 31 l 1
 47 29 l 1
 49 29 l 1
 49 31 l 1
55 35 m 1
 53 35 l 1
 53 33 l 1
 55 33 l 1
 55 35 l 1
57 35 m 1
 56 35 l 1
 56 33 l 1
 58 33 l 1
 58 34 l 1
 57 34 l 1
 57 35 l 1
60 35 m 1
 58 35 l 1
 58 34 l 1
 59 34 l 1
 59 33 l 1
 60 33 l 1
 60 35 l 1
45 26 m 1
 44 26 l 1
 44 25 l 1
 46 25 l 1
 46 27 l 1
 45 27 l 1
 45 26 l 1
49 27 m 1
 47 27 l 1
 47 25 l 1
 49 25 l 1
 49 27 l 1
55 27 m 1
 53 27 l 1
 53 25 l 1
 55 25 l 1
 55 27 l 1
58 27 m 1
 56 27 l 1
 56 25 l 1
 57 25 l 1
 57 26 l 1
 58 26 l 1
 58 27 l 1
59 26 m 1
 58 26 l 1
 58 25 l 1
 60 25 l 1
 60 27 l 1
 59 27 l 1
 59 26 l 1
63 35 m 1
 61 35 l 1
 61 33 l 1
 63 33 l 1
 63 35 l 1
63 31 m 1
 61 31 l 1
 61 29 l 1
 63 29 l 1
 63 31 l 1
63 27 m 1
 61 27 l 1
 61 25 l 1
 63 25 l 1
 63 27 l 1
EndSplineSet
EndChar

StartChar: custom_3_9_0_6_6
Encoding: 31734 31734 11766
Width: 70
Flags: H
LayerCount: 2
Fore
SplineSet
31 43 m 1
 29 43 l 1
 29 41 l 1
 31 41 l 1
 31 43 l 1
31 39 m 1
 29 39 l 1
 29 37 l 1
 31 37 l 1
 31 39 l 1
36 37 m 1
 34 37 l 1
 34 35 l 1
 36 35 l 1
 36 37 l 1
41 43 m 1
 39 43 l 1
 39 41 l 1
 41 41 l 1
 41 43 l 1
44 43 m 1
 42 43 l 1
 42 41 l 1
 43 41 l 1
 43 42 l 1
 44 42 l 1
 44 43 l 1
31 35 m 1
 29 35 l 1
 29 33 l 1
 31 33 l 1
 31 35 l 1
36 33 m 1
 34 33 l 1
 34 31 l 1
 36 31 l 1
 36 33 l 1
31 31 m 1
 29 31 l 1
 29 29 l 1
 31 29 l 1
 31 31 l 1
41 35 m 1
 39 35 l 1
 39 33 l 1
 41 33 l 1
 41 35 l 1
43 35 m 1
 42 35 l 1
 42 33 l 1
 44 33 l 1
 44 34 l 1
 43 34 l 1
 43 35 l 1
31 27 m 1
 29 27 l 1
 29 25 l 1
 31 25 l 1
 31 27 l 1
41 27 m 1
 39 27 l 1
 39 25 l 1
 41 25 l 1
 41 27 l 1
44 27 m 1
 42 27 l 1
 42 25 l 1
 43 25 l 1
 43 26 l 1
 44 26 l 1
 44 27 l 1
45 42 m 1
 44 42 l 1
 44 41 l 1
 46 41 l 1
 46 43 l 1
 45 43 l 1
 45 42 l 1
49 43 m 1
 47 43 l 1
 47 41 l 1
 49 41 l 1
 49 43 l 1
49 39 m 1
 47 39 l 1
 47 37 l 1
 49 37 l 1
 49 39 l 1
55 43 m 1
 53 43 l 1
 53 41 l 1
 55 41 l 1
 55 43 l 1
58 43 m 1
 56 43 l 1
 56 41 l 1
 57 41 l 1
 57 42 l 1
 58 42 l 1
 58 43 l 1
59 42 m 1
 58 42 l 1
 58 41 l 1
 60 41 l 1
 60 43 l 1
 59 43 l 1
 59 42 l 1
55 39 m 1
 53 39 l 1
 53 37 l 1
 55 37 l 1
 55 39 l 1
63 43 m 1
 61 43 l 1
 61 41 l 1
 63 41 l 1
 63 43 l 1
63 39 m 1
 61 39 l 1
 61 37 l 1
 63 37 l 1
 63 39 l 1
46 35 m 1
 44 35 l 1
 44 34 l 1
 45 34 l 1
 45 33 l 1
 46 33 l 1
 46 35 l 1
49 35 m 1
 47 35 l 1
 47 33 l 1
 49 33 l 1
 49 35 l 1
49 31 m 1
 47 31 l 1
 47 29 l 1
 49 29 l 1
 49 31 l 1
55 35 m 1
 53 35 l 1
 53 33 l 1
 55 33 l 1
 55 35 l 1
57 35 m 1
 56 35 l 1
 56 33 l 1
 58 33 l 1
 58 34 l 1
 57 34 l 1
 57 35 l 1
60 35 m 1
 58 35 l 1
 58 34 l 1
 59 34 l 1
 59 33 l 1
 60 33 l 1
 60 35 l 1
45 26 m 1
 44 26 l 1
 44 25 l 1
 46 25 l 1
 46 27 l 1
 45 27 l 1
 45 26 l 1
49 27 m 1
 47 27 l 1
 47 25 l 1
 49 25 l 1
 49 27 l 1
55 27 m 1
 53 27 l 1
 53 25 l 1
 55 25 l 1
 55 27 l 1
58 27 m 1
 56 27 l 1
 56 25 l 1
 57 25 l 1
 57 26 l 1
 58 26 l 1
 58 27 l 1
59 26 m 1
 58 26 l 1
 58 25 l 1
 60 25 l 1
 60 27 l 1
 59 27 l 1
 59 26 l 1
63 35 m 1
 61 35 l 1
 61 33 l 1
 63 33 l 1
 63 35 l 1
63 31 m 1
 61 31 l 1
 61 29 l 1
 63 29 l 1
 63 31 l 1
63 27 m 1
 61 27 l 1
 61 25 l 1
 63 25 l 1
 63 27 l 1
EndSplineSet
EndChar

StartChar: custom_3_9_0_6_7
Encoding: 31735 31735 11767
Width: 70
Flags: H
LayerCount: 2
Fore
SplineSet
31 43 m 1
 29 43 l 1
 29 41 l 1
 31 41 l 1
 31 43 l 1
31 39 m 1
 29 39 l 1
 29 37 l 1
 31 37 l 1
 31 39 l 1
36 37 m 1
 34 37 l 1
 34 35 l 1
 36 35 l 1
 36 37 l 1
41 43 m 1
 39 43 l 1
 39 41 l 1
 41 41 l 1
 41 43 l 1
44 43 m 1
 42 43 l 1
 42 41 l 1
 43 41 l 1
 43 42 l 1
 44 42 l 1
 44 43 l 1
31 35 m 1
 29 35 l 1
 29 33 l 1
 31 33 l 1
 31 35 l 1
36 33 m 1
 34 33 l 1
 34 31 l 1
 36 31 l 1
 36 33 l 1
31 31 m 1
 29 31 l 1
 29 29 l 1
 31 29 l 1
 31 31 l 1
41 35 m 1
 39 35 l 1
 39 33 l 1
 41 33 l 1
 41 35 l 1
43 35 m 1
 42 35 l 1
 42 33 l 1
 44 33 l 1
 44 34 l 1
 43 34 l 1
 43 35 l 1
31 27 m 1
 29 27 l 1
 29 25 l 1
 31 25 l 1
 31 27 l 1
41 27 m 1
 39 27 l 1
 39 25 l 1
 41 25 l 1
 41 27 l 1
44 27 m 1
 42 27 l 1
 42 25 l 1
 43 25 l 1
 43 26 l 1
 44 26 l 1
 44 27 l 1
45 42 m 1
 44 42 l 1
 44 41 l 1
 46 41 l 1
 46 43 l 1
 45 43 l 1
 45 42 l 1
49 43 m 1
 47 43 l 1
 47 41 l 1
 49 41 l 1
 49 43 l 1
49 39 m 1
 47 39 l 1
 47 37 l 1
 49 37 l 1
 49 39 l 1
55 43 m 1
 53 43 l 1
 53 41 l 1
 55 41 l 1
 55 43 l 1
58 43 m 1
 56 43 l 1
 56 41 l 1
 57 41 l 1
 57 42 l 1
 58 42 l 1
 58 43 l 1
59 42 m 1
 58 42 l 1
 58 41 l 1
 60 41 l 1
 60 43 l 1
 59 43 l 1
 59 42 l 1
55 39 m 1
 53 39 l 1
 53 37 l 1
 55 37 l 1
 55 39 l 1
63 43 m 1
 61 43 l 1
 61 41 l 1
 63 41 l 1
 63 43 l 1
63 39 m 1
 61 39 l 1
 61 37 l 1
 63 37 l 1
 63 39 l 1
46 35 m 1
 44 35 l 1
 44 34 l 1
 45 34 l 1
 45 33 l 1
 46 33 l 1
 46 35 l 1
49 35 m 1
 47 35 l 1
 47 33 l 1
 49 33 l 1
 49 35 l 1
49 31 m 1
 47 31 l 1
 47 29 l 1
 49 29 l 1
 49 31 l 1
55 35 m 1
 53 35 l 1
 53 33 l 1
 55 33 l 1
 55 35 l 1
57 35 m 1
 56 35 l 1
 56 33 l 1
 58 33 l 1
 58 34 l 1
 57 34 l 1
 57 35 l 1
60 35 m 1
 58 35 l 1
 58 34 l 1
 59 34 l 1
 59 33 l 1
 60 33 l 1
 60 35 l 1
45 26 m 1
 44 26 l 1
 44 25 l 1
 46 25 l 1
 46 27 l 1
 45 27 l 1
 45 26 l 1
49 27 m 1
 47 27 l 1
 47 25 l 1
 49 25 l 1
 49 27 l 1
55 27 m 1
 53 27 l 1
 53 25 l 1
 55 25 l 1
 55 27 l 1
58 27 m 1
 56 27 l 1
 56 25 l 1
 57 25 l 1
 57 26 l 1
 58 26 l 1
 58 27 l 1
59 26 m 1
 58 26 l 1
 58 25 l 1
 60 25 l 1
 60 27 l 1
 59 27 l 1
 59 26 l 1
63 35 m 1
 61 35 l 1
 61 33 l 1
 63 33 l 1
 63 35 l 1
63 31 m 1
 61 31 l 1
 61 29 l 1
 63 29 l 1
 63 31 l 1
63 27 m 1
 61 27 l 1
 61 25 l 1
 63 25 l 1
 63 27 l 1
EndSplineSet
EndChar

StartChar: custom_3_9_0_6_8
Encoding: 31736 31736 11768
Width: 70
Flags: H
LayerCount: 2
Fore
SplineSet
31 43 m 1
 29 43 l 1
 29 41 l 1
 31 41 l 1
 31 43 l 1
31 39 m 1
 29 39 l 1
 29 37 l 1
 31 37 l 1
 31 39 l 1
36 37 m 1
 34 37 l 1
 34 35 l 1
 36 35 l 1
 36 37 l 1
41 43 m 1
 39 43 l 1
 39 41 l 1
 41 41 l 1
 41 43 l 1
44 43 m 1
 42 43 l 1
 42 41 l 1
 43 41 l 1
 43 42 l 1
 44 42 l 1
 44 43 l 1
31 35 m 1
 29 35 l 1
 29 33 l 1
 31 33 l 1
 31 35 l 1
36 33 m 1
 34 33 l 1
 34 31 l 1
 36 31 l 1
 36 33 l 1
31 31 m 1
 29 31 l 1
 29 29 l 1
 31 29 l 1
 31 31 l 1
41 35 m 1
 39 35 l 1
 39 33 l 1
 41 33 l 1
 41 35 l 1
43 35 m 1
 42 35 l 1
 42 33 l 1
 44 33 l 1
 44 34 l 1
 43 34 l 1
 43 35 l 1
31 27 m 1
 29 27 l 1
 29 25 l 1
 31 25 l 1
 31 27 l 1
41 27 m 1
 39 27 l 1
 39 25 l 1
 41 25 l 1
 41 27 l 1
44 27 m 1
 42 27 l 1
 42 25 l 1
 43 25 l 1
 43 26 l 1
 44 26 l 1
 44 27 l 1
45 42 m 1
 44 42 l 1
 44 41 l 1
 46 41 l 1
 46 43 l 1
 45 43 l 1
 45 42 l 1
49 43 m 1
 47 43 l 1
 47 41 l 1
 49 41 l 1
 49 43 l 1
49 39 m 1
 47 39 l 1
 47 37 l 1
 49 37 l 1
 49 39 l 1
55 43 m 1
 53 43 l 1
 53 41 l 1
 55 41 l 1
 55 43 l 1
58 43 m 1
 56 43 l 1
 56 41 l 1
 57 41 l 1
 57 42 l 1
 58 42 l 1
 58 43 l 1
59 42 m 1
 58 42 l 1
 58 41 l 1
 60 41 l 1
 60 43 l 1
 59 43 l 1
 59 42 l 1
55 39 m 1
 53 39 l 1
 53 37 l 1
 55 37 l 1
 55 39 l 1
63 43 m 1
 61 43 l 1
 61 41 l 1
 63 41 l 1
 63 43 l 1
63 39 m 1
 61 39 l 1
 61 37 l 1
 63 37 l 1
 63 39 l 1
46 35 m 1
 44 35 l 1
 44 34 l 1
 45 34 l 1
 45 33 l 1
 46 33 l 1
 46 35 l 1
49 35 m 1
 47 35 l 1
 47 33 l 1
 49 33 l 1
 49 35 l 1
49 31 m 1
 47 31 l 1
 47 29 l 1
 49 29 l 1
 49 31 l 1
55 35 m 1
 53 35 l 1
 53 33 l 1
 55 33 l 1
 55 35 l 1
57 35 m 1
 56 35 l 1
 56 33 l 1
 58 33 l 1
 58 34 l 1
 57 34 l 1
 57 35 l 1
60 35 m 1
 58 35 l 1
 58 34 l 1
 59 34 l 1
 59 33 l 1
 60 33 l 1
 60 35 l 1
45 26 m 1
 44 26 l 1
 44 25 l 1
 46 25 l 1
 46 27 l 1
 45 27 l 1
 45 26 l 1
49 27 m 1
 47 27 l 1
 47 25 l 1
 49 25 l 1
 49 27 l 1
55 27 m 1
 53 27 l 1
 53 25 l 1
 55 25 l 1
 55 27 l 1
58 27 m 1
 56 27 l 1
 56 25 l 1
 57 25 l 1
 57 26 l 1
 58 26 l 1
 58 27 l 1
59 26 m 1
 58 26 l 1
 58 25 l 1
 60 25 l 1
 60 27 l 1
 59 27 l 1
 59 26 l 1
63 35 m 1
 61 35 l 1
 61 33 l 1
 63 33 l 1
 63 35 l 1
63 31 m 1
 61 31 l 1
 61 29 l 1
 63 29 l 1
 63 31 l 1
63 27 m 1
 61 27 l 1
 61 25 l 1
 63 25 l 1
 63 27 l 1
EndSplineSet
EndChar

StartChar: custom_3_9_0_6_9
Encoding: 31737 31737 11769
Width: 70
Flags: H
LayerCount: 2
Fore
SplineSet
31 43 m 1
 29 43 l 1
 29 41 l 1
 31 41 l 1
 31 43 l 1
31 39 m 1
 29 39 l 1
 29 37 l 1
 31 37 l 1
 31 39 l 1
36 37 m 1
 34 37 l 1
 34 35 l 1
 36 35 l 1
 36 37 l 1
41 43 m 1
 39 43 l 1
 39 41 l 1
 41 41 l 1
 41 43 l 1
44 43 m 1
 42 43 l 1
 42 41 l 1
 43 41 l 1
 43 42 l 1
 44 42 l 1
 44 43 l 1
31 35 m 1
 29 35 l 1
 29 33 l 1
 31 33 l 1
 31 35 l 1
36 33 m 1
 34 33 l 1
 34 31 l 1
 36 31 l 1
 36 33 l 1
31 31 m 1
 29 31 l 1
 29 29 l 1
 31 29 l 1
 31 31 l 1
41 35 m 1
 39 35 l 1
 39 33 l 1
 41 33 l 1
 41 35 l 1
43 35 m 1
 42 35 l 1
 42 33 l 1
 44 33 l 1
 44 34 l 1
 43 34 l 1
 43 35 l 1
31 27 m 1
 29 27 l 1
 29 25 l 1
 31 25 l 1
 31 27 l 1
41 27 m 1
 39 27 l 1
 39 25 l 1
 41 25 l 1
 41 27 l 1
44 27 m 1
 42 27 l 1
 42 25 l 1
 43 25 l 1
 43 26 l 1
 44 26 l 1
 44 27 l 1
45 42 m 1
 44 42 l 1
 44 41 l 1
 46 41 l 1
 46 43 l 1
 45 43 l 1
 45 42 l 1
49 43 m 1
 47 43 l 1
 47 41 l 1
 49 41 l 1
 49 43 l 1
49 39 m 1
 47 39 l 1
 47 37 l 1
 49 37 l 1
 49 39 l 1
55 43 m 1
 53 43 l 1
 53 41 l 1
 55 41 l 1
 55 43 l 1
58 43 m 1
 56 43 l 1
 56 41 l 1
 57 41 l 1
 57 42 l 1
 58 42 l 1
 58 43 l 1
59 42 m 1
 58 42 l 1
 58 41 l 1
 60 41 l 1
 60 43 l 1
 59 43 l 1
 59 42 l 1
55 39 m 1
 53 39 l 1
 53 37 l 1
 55 37 l 1
 55 39 l 1
63 43 m 1
 61 43 l 1
 61 41 l 1
 63 41 l 1
 63 43 l 1
63 39 m 1
 61 39 l 1
 61 37 l 1
 63 37 l 1
 63 39 l 1
46 35 m 1
 44 35 l 1
 44 34 l 1
 45 34 l 1
 45 33 l 1
 46 33 l 1
 46 35 l 1
49 35 m 1
 47 35 l 1
 47 33 l 1
 49 33 l 1
 49 35 l 1
49 31 m 1
 47 31 l 1
 47 29 l 1
 49 29 l 1
 49 31 l 1
55 35 m 1
 53 35 l 1
 53 33 l 1
 55 33 l 1
 55 35 l 1
57 35 m 1
 56 35 l 1
 56 33 l 1
 58 33 l 1
 58 34 l 1
 57 34 l 1
 57 35 l 1
60 35 m 1
 58 35 l 1
 58 34 l 1
 59 34 l 1
 59 33 l 1
 60 33 l 1
 60 35 l 1
45 26 m 1
 44 26 l 1
 44 25 l 1
 46 25 l 1
 46 27 l 1
 45 27 l 1
 45 26 l 1
49 27 m 1
 47 27 l 1
 47 25 l 1
 49 25 l 1
 49 27 l 1
55 27 m 1
 53 27 l 1
 53 25 l 1
 55 25 l 1
 55 27 l 1
58 27 m 1
 56 27 l 1
 56 25 l 1
 57 25 l 1
 57 26 l 1
 58 26 l 1
 58 27 l 1
59 26 m 1
 58 26 l 1
 58 25 l 1
 60 25 l 1
 60 27 l 1
 59 27 l 1
 59 26 l 1
63 35 m 1
 61 35 l 1
 61 33 l 1
 63 33 l 1
 63 35 l 1
63 31 m 1
 61 31 l 1
 61 29 l 1
 63 29 l 1
 63 31 l 1
63 27 m 1
 61 27 l 1
 61 25 l 1
 63 25 l 1
 63 27 l 1
EndSplineSet
EndChar

StartChar: custom_3_9_0_7_0
Encoding: 31738 31738 11770
Width: 70
Flags: H
LayerCount: 2
Fore
SplineSet
31 43 m 1
 29 43 l 1
 29 41 l 1
 31 41 l 1
 31 43 l 1
31 39 m 1
 29 39 l 1
 29 37 l 1
 31 37 l 1
 31 39 l 1
36 37 m 1
 34 37 l 1
 34 35 l 1
 36 35 l 1
 36 37 l 1
41 43 m 1
 39 43 l 1
 39 41 l 1
 41 41 l 1
 41 43 l 1
44 43 m 1
 42 43 l 1
 42 41 l 1
 43 41 l 1
 43 42 l 1
 44 42 l 1
 44 43 l 1
31 35 m 1
 29 35 l 1
 29 33 l 1
 31 33 l 1
 31 35 l 1
36 33 m 1
 34 33 l 1
 34 31 l 1
 36 31 l 1
 36 33 l 1
31 31 m 1
 29 31 l 1
 29 29 l 1
 31 29 l 1
 31 31 l 1
41 35 m 1
 39 35 l 1
 39 33 l 1
 41 33 l 1
 41 35 l 1
43 35 m 1
 42 35 l 1
 42 33 l 1
 44 33 l 1
 44 34 l 1
 43 34 l 1
 43 35 l 1
31 27 m 1
 29 27 l 1
 29 25 l 1
 31 25 l 1
 31 27 l 1
41 27 m 1
 39 27 l 1
 39 25 l 1
 41 25 l 1
 41 27 l 1
44 27 m 1
 42 27 l 1
 42 25 l 1
 43 25 l 1
 43 26 l 1
 44 26 l 1
 44 27 l 1
45 42 m 1
 44 42 l 1
 44 41 l 1
 46 41 l 1
 46 43 l 1
 45 43 l 1
 45 42 l 1
49 43 m 1
 47 43 l 1
 47 41 l 1
 49 41 l 1
 49 43 l 1
49 39 m 1
 47 39 l 1
 47 37 l 1
 49 37 l 1
 49 39 l 1
55 43 m 1
 53 43 l 1
 53 41 l 1
 55 41 l 1
 55 43 l 1
58 43 m 1
 56 43 l 1
 56 41 l 1
 57 41 l 1
 57 42 l 1
 58 42 l 1
 58 43 l 1
59 42 m 1
 58 42 l 1
 58 41 l 1
 60 41 l 1
 60 43 l 1
 59 43 l 1
 59 42 l 1
55 39 m 1
 53 39 l 1
 53 37 l 1
 55 37 l 1
 55 39 l 1
63 43 m 1
 61 43 l 1
 61 41 l 1
 63 41 l 1
 63 43 l 1
63 39 m 1
 61 39 l 1
 61 37 l 1
 63 37 l 1
 63 39 l 1
46 35 m 1
 44 35 l 1
 44 34 l 1
 45 34 l 1
 45 33 l 1
 46 33 l 1
 46 35 l 1
49 35 m 1
 47 35 l 1
 47 33 l 1
 49 33 l 1
 49 35 l 1
49 31 m 1
 47 31 l 1
 47 29 l 1
 49 29 l 1
 49 31 l 1
55 35 m 1
 53 35 l 1
 53 33 l 1
 55 33 l 1
 55 35 l 1
57 35 m 1
 56 35 l 1
 56 33 l 1
 58 33 l 1
 58 34 l 1
 57 34 l 1
 57 35 l 1
60 35 m 1
 58 35 l 1
 58 34 l 1
 59 34 l 1
 59 33 l 1
 60 33 l 1
 60 35 l 1
45 26 m 1
 44 26 l 1
 44 25 l 1
 46 25 l 1
 46 27 l 1
 45 27 l 1
 45 26 l 1
49 27 m 1
 47 27 l 1
 47 25 l 1
 49 25 l 1
 49 27 l 1
55 27 m 1
 53 27 l 1
 53 25 l 1
 55 25 l 1
 55 27 l 1
58 27 m 1
 56 27 l 1
 56 25 l 1
 57 25 l 1
 57 26 l 1
 58 26 l 1
 58 27 l 1
59 26 m 1
 58 26 l 1
 58 25 l 1
 60 25 l 1
 60 27 l 1
 59 27 l 1
 59 26 l 1
63 35 m 1
 61 35 l 1
 61 33 l 1
 63 33 l 1
 63 35 l 1
63 31 m 1
 61 31 l 1
 61 29 l 1
 63 29 l 1
 63 31 l 1
63 27 m 1
 61 27 l 1
 61 25 l 1
 63 25 l 1
 63 27 l 1
EndSplineSet
EndChar

StartChar: custom_3_9_0_7_1
Encoding: 31739 31739 11771
Width: 70
Flags: H
LayerCount: 2
Fore
SplineSet
31 43 m 1
 29 43 l 1
 29 41 l 1
 31 41 l 1
 31 43 l 1
31 39 m 1
 29 39 l 1
 29 37 l 1
 31 37 l 1
 31 39 l 1
36 37 m 1
 34 37 l 1
 34 35 l 1
 36 35 l 1
 36 37 l 1
41 43 m 1
 39 43 l 1
 39 41 l 1
 41 41 l 1
 41 43 l 1
44 43 m 1
 42 43 l 1
 42 41 l 1
 43 41 l 1
 43 42 l 1
 44 42 l 1
 44 43 l 1
31 35 m 1
 29 35 l 1
 29 33 l 1
 31 33 l 1
 31 35 l 1
36 33 m 1
 34 33 l 1
 34 31 l 1
 36 31 l 1
 36 33 l 1
31 31 m 1
 29 31 l 1
 29 29 l 1
 31 29 l 1
 31 31 l 1
41 35 m 1
 39 35 l 1
 39 33 l 1
 41 33 l 1
 41 35 l 1
43 35 m 1
 42 35 l 1
 42 33 l 1
 44 33 l 1
 44 34 l 1
 43 34 l 1
 43 35 l 1
31 27 m 1
 29 27 l 1
 29 25 l 1
 31 25 l 1
 31 27 l 1
41 27 m 1
 39 27 l 1
 39 25 l 1
 41 25 l 1
 41 27 l 1
44 27 m 1
 42 27 l 1
 42 25 l 1
 43 25 l 1
 43 26 l 1
 44 26 l 1
 44 27 l 1
45 42 m 1
 44 42 l 1
 44 41 l 1
 46 41 l 1
 46 43 l 1
 45 43 l 1
 45 42 l 1
49 43 m 1
 47 43 l 1
 47 41 l 1
 49 41 l 1
 49 43 l 1
49 39 m 1
 47 39 l 1
 47 37 l 1
 49 37 l 1
 49 39 l 1
55 43 m 1
 53 43 l 1
 53 41 l 1
 55 41 l 1
 55 43 l 1
58 43 m 1
 56 43 l 1
 56 41 l 1
 57 41 l 1
 57 42 l 1
 58 42 l 1
 58 43 l 1
59 42 m 1
 58 42 l 1
 58 41 l 1
 60 41 l 1
 60 43 l 1
 59 43 l 1
 59 42 l 1
55 39 m 1
 53 39 l 1
 53 37 l 1
 55 37 l 1
 55 39 l 1
63 43 m 1
 61 43 l 1
 61 41 l 1
 63 41 l 1
 63 43 l 1
63 39 m 1
 61 39 l 1
 61 37 l 1
 63 37 l 1
 63 39 l 1
46 35 m 1
 44 35 l 1
 44 34 l 1
 45 34 l 1
 45 33 l 1
 46 33 l 1
 46 35 l 1
49 35 m 1
 47 35 l 1
 47 33 l 1
 49 33 l 1
 49 35 l 1
49 31 m 1
 47 31 l 1
 47 29 l 1
 49 29 l 1
 49 31 l 1
55 35 m 1
 53 35 l 1
 53 33 l 1
 55 33 l 1
 55 35 l 1
57 35 m 1
 56 35 l 1
 56 33 l 1
 58 33 l 1
 58 34 l 1
 57 34 l 1
 57 35 l 1
60 35 m 1
 58 35 l 1
 58 34 l 1
 59 34 l 1
 59 33 l 1
 60 33 l 1
 60 35 l 1
45 26 m 1
 44 26 l 1
 44 25 l 1
 46 25 l 1
 46 27 l 1
 45 27 l 1
 45 26 l 1
49 27 m 1
 47 27 l 1
 47 25 l 1
 49 25 l 1
 49 27 l 1
55 27 m 1
 53 27 l 1
 53 25 l 1
 55 25 l 1
 55 27 l 1
58 27 m 1
 56 27 l 1
 56 25 l 1
 57 25 l 1
 57 26 l 1
 58 26 l 1
 58 27 l 1
59 26 m 1
 58 26 l 1
 58 25 l 1
 60 25 l 1
 60 27 l 1
 59 27 l 1
 59 26 l 1
63 35 m 1
 61 35 l 1
 61 33 l 1
 63 33 l 1
 63 35 l 1
63 31 m 1
 61 31 l 1
 61 29 l 1
 63 29 l 1
 63 31 l 1
63 27 m 1
 61 27 l 1
 61 25 l 1
 63 25 l 1
 63 27 l 1
EndSplineSet
EndChar

StartChar: custom_3_9_0_7_2
Encoding: 31740 31740 11772
Width: 70
Flags: H
LayerCount: 2
Fore
SplineSet
31 43 m 1
 29 43 l 1
 29 41 l 1
 31 41 l 1
 31 43 l 1
31 39 m 1
 29 39 l 1
 29 37 l 1
 31 37 l 1
 31 39 l 1
36 37 m 1
 34 37 l 1
 34 35 l 1
 36 35 l 1
 36 37 l 1
41 43 m 1
 39 43 l 1
 39 41 l 1
 41 41 l 1
 41 43 l 1
44 43 m 1
 42 43 l 1
 42 41 l 1
 43 41 l 1
 43 42 l 1
 44 42 l 1
 44 43 l 1
31 35 m 1
 29 35 l 1
 29 33 l 1
 31 33 l 1
 31 35 l 1
36 33 m 1
 34 33 l 1
 34 31 l 1
 36 31 l 1
 36 33 l 1
31 31 m 1
 29 31 l 1
 29 29 l 1
 31 29 l 1
 31 31 l 1
41 35 m 1
 39 35 l 1
 39 33 l 1
 41 33 l 1
 41 35 l 1
43 35 m 1
 42 35 l 1
 42 33 l 1
 44 33 l 1
 44 34 l 1
 43 34 l 1
 43 35 l 1
31 27 m 1
 29 27 l 1
 29 25 l 1
 31 25 l 1
 31 27 l 1
41 27 m 1
 39 27 l 1
 39 25 l 1
 41 25 l 1
 41 27 l 1
44 27 m 1
 42 27 l 1
 42 25 l 1
 43 25 l 1
 43 26 l 1
 44 26 l 1
 44 27 l 1
45 42 m 1
 44 42 l 1
 44 41 l 1
 46 41 l 1
 46 43 l 1
 45 43 l 1
 45 42 l 1
49 43 m 1
 47 43 l 1
 47 41 l 1
 49 41 l 1
 49 43 l 1
49 39 m 1
 47 39 l 1
 47 37 l 1
 49 37 l 1
 49 39 l 1
55 43 m 1
 53 43 l 1
 53 41 l 1
 55 41 l 1
 55 43 l 1
58 43 m 1
 56 43 l 1
 56 41 l 1
 57 41 l 1
 57 42 l 1
 58 42 l 1
 58 43 l 1
59 42 m 1
 58 42 l 1
 58 41 l 1
 60 41 l 1
 60 43 l 1
 59 43 l 1
 59 42 l 1
55 39 m 1
 53 39 l 1
 53 37 l 1
 55 37 l 1
 55 39 l 1
63 43 m 1
 61 43 l 1
 61 41 l 1
 63 41 l 1
 63 43 l 1
63 39 m 1
 61 39 l 1
 61 37 l 1
 63 37 l 1
 63 39 l 1
46 35 m 1
 44 35 l 1
 44 34 l 1
 45 34 l 1
 45 33 l 1
 46 33 l 1
 46 35 l 1
49 35 m 1
 47 35 l 1
 47 33 l 1
 49 33 l 1
 49 35 l 1
49 31 m 1
 47 31 l 1
 47 29 l 1
 49 29 l 1
 49 31 l 1
55 35 m 1
 53 35 l 1
 53 33 l 1
 55 33 l 1
 55 35 l 1
57 35 m 1
 56 35 l 1
 56 33 l 1
 58 33 l 1
 58 34 l 1
 57 34 l 1
 57 35 l 1
60 35 m 1
 58 35 l 1
 58 34 l 1
 59 34 l 1
 59 33 l 1
 60 33 l 1
 60 35 l 1
45 26 m 1
 44 26 l 1
 44 25 l 1
 46 25 l 1
 46 27 l 1
 45 27 l 1
 45 26 l 1
49 27 m 1
 47 27 l 1
 47 25 l 1
 49 25 l 1
 49 27 l 1
55 27 m 1
 53 27 l 1
 53 25 l 1
 55 25 l 1
 55 27 l 1
58 27 m 1
 56 27 l 1
 56 25 l 1
 57 25 l 1
 57 26 l 1
 58 26 l 1
 58 27 l 1
59 26 m 1
 58 26 l 1
 58 25 l 1
 60 25 l 1
 60 27 l 1
 59 27 l 1
 59 26 l 1
63 35 m 1
 61 35 l 1
 61 33 l 1
 63 33 l 1
 63 35 l 1
63 31 m 1
 61 31 l 1
 61 29 l 1
 63 29 l 1
 63 31 l 1
63 27 m 1
 61 27 l 1
 61 25 l 1
 63 25 l 1
 63 27 l 1
EndSplineSet
EndChar

StartChar: custom_3_9_0_7_3
Encoding: 31741 31741 11773
Width: 70
Flags: H
LayerCount: 2
Fore
SplineSet
31 43 m 1
 29 43 l 1
 29 41 l 1
 31 41 l 1
 31 43 l 1
31 39 m 1
 29 39 l 1
 29 37 l 1
 31 37 l 1
 31 39 l 1
36 37 m 1
 34 37 l 1
 34 35 l 1
 36 35 l 1
 36 37 l 1
41 43 m 1
 39 43 l 1
 39 41 l 1
 41 41 l 1
 41 43 l 1
44 43 m 1
 42 43 l 1
 42 41 l 1
 43 41 l 1
 43 42 l 1
 44 42 l 1
 44 43 l 1
31 35 m 1
 29 35 l 1
 29 33 l 1
 31 33 l 1
 31 35 l 1
36 33 m 1
 34 33 l 1
 34 31 l 1
 36 31 l 1
 36 33 l 1
31 31 m 1
 29 31 l 1
 29 29 l 1
 31 29 l 1
 31 31 l 1
41 35 m 1
 39 35 l 1
 39 33 l 1
 41 33 l 1
 41 35 l 1
43 35 m 1
 42 35 l 1
 42 33 l 1
 44 33 l 1
 44 34 l 1
 43 34 l 1
 43 35 l 1
31 27 m 1
 29 27 l 1
 29 25 l 1
 31 25 l 1
 31 27 l 1
41 27 m 1
 39 27 l 1
 39 25 l 1
 41 25 l 1
 41 27 l 1
44 27 m 1
 42 27 l 1
 42 25 l 1
 43 25 l 1
 43 26 l 1
 44 26 l 1
 44 27 l 1
45 42 m 1
 44 42 l 1
 44 41 l 1
 46 41 l 1
 46 43 l 1
 45 43 l 1
 45 42 l 1
49 43 m 1
 47 43 l 1
 47 41 l 1
 49 41 l 1
 49 43 l 1
49 39 m 1
 47 39 l 1
 47 37 l 1
 49 37 l 1
 49 39 l 1
55 43 m 1
 53 43 l 1
 53 41 l 1
 55 41 l 1
 55 43 l 1
58 43 m 1
 56 43 l 1
 56 41 l 1
 57 41 l 1
 57 42 l 1
 58 42 l 1
 58 43 l 1
59 42 m 1
 58 42 l 1
 58 41 l 1
 60 41 l 1
 60 43 l 1
 59 43 l 1
 59 42 l 1
55 39 m 1
 53 39 l 1
 53 37 l 1
 55 37 l 1
 55 39 l 1
63 43 m 1
 61 43 l 1
 61 41 l 1
 63 41 l 1
 63 43 l 1
63 39 m 1
 61 39 l 1
 61 37 l 1
 63 37 l 1
 63 39 l 1
46 35 m 1
 44 35 l 1
 44 34 l 1
 45 34 l 1
 45 33 l 1
 46 33 l 1
 46 35 l 1
49 35 m 1
 47 35 l 1
 47 33 l 1
 49 33 l 1
 49 35 l 1
49 31 m 1
 47 31 l 1
 47 29 l 1
 49 29 l 1
 49 31 l 1
55 35 m 1
 53 35 l 1
 53 33 l 1
 55 33 l 1
 55 35 l 1
57 35 m 1
 56 35 l 1
 56 33 l 1
 58 33 l 1
 58 34 l 1
 57 34 l 1
 57 35 l 1
60 35 m 1
 58 35 l 1
 58 34 l 1
 59 34 l 1
 59 33 l 1
 60 33 l 1
 60 35 l 1
45 26 m 1
 44 26 l 1
 44 25 l 1
 46 25 l 1
 46 27 l 1
 45 27 l 1
 45 26 l 1
49 27 m 1
 47 27 l 1
 47 25 l 1
 49 25 l 1
 49 27 l 1
55 27 m 1
 53 27 l 1
 53 25 l 1
 55 25 l 1
 55 27 l 1
58 27 m 1
 56 27 l 1
 56 25 l 1
 57 25 l 1
 57 26 l 1
 58 26 l 1
 58 27 l 1
59 26 m 1
 58 26 l 1
 58 25 l 1
 60 25 l 1
 60 27 l 1
 59 27 l 1
 59 26 l 1
63 35 m 1
 61 35 l 1
 61 33 l 1
 63 33 l 1
 63 35 l 1
63 31 m 1
 61 31 l 1
 61 29 l 1
 63 29 l 1
 63 31 l 1
63 27 m 1
 61 27 l 1
 61 25 l 1
 63 25 l 1
 63 27 l 1
EndSplineSet
EndChar

StartChar: custom_3_9_0_7_4
Encoding: 31742 31742 11774
Width: 70
Flags: H
LayerCount: 2
Fore
SplineSet
31 43 m 1
 29 43 l 1
 29 41 l 1
 31 41 l 1
 31 43 l 1
31 39 m 1
 29 39 l 1
 29 37 l 1
 31 37 l 1
 31 39 l 1
36 37 m 1
 34 37 l 1
 34 35 l 1
 36 35 l 1
 36 37 l 1
41 43 m 1
 39 43 l 1
 39 41 l 1
 41 41 l 1
 41 43 l 1
44 43 m 1
 42 43 l 1
 42 41 l 1
 43 41 l 1
 43 42 l 1
 44 42 l 1
 44 43 l 1
31 35 m 1
 29 35 l 1
 29 33 l 1
 31 33 l 1
 31 35 l 1
36 33 m 1
 34 33 l 1
 34 31 l 1
 36 31 l 1
 36 33 l 1
31 31 m 1
 29 31 l 1
 29 29 l 1
 31 29 l 1
 31 31 l 1
41 35 m 1
 39 35 l 1
 39 33 l 1
 41 33 l 1
 41 35 l 1
43 35 m 1
 42 35 l 1
 42 33 l 1
 44 33 l 1
 44 34 l 1
 43 34 l 1
 43 35 l 1
31 27 m 1
 29 27 l 1
 29 25 l 1
 31 25 l 1
 31 27 l 1
41 27 m 1
 39 27 l 1
 39 25 l 1
 41 25 l 1
 41 27 l 1
44 27 m 1
 42 27 l 1
 42 25 l 1
 43 25 l 1
 43 26 l 1
 44 26 l 1
 44 27 l 1
45 42 m 1
 44 42 l 1
 44 41 l 1
 46 41 l 1
 46 43 l 1
 45 43 l 1
 45 42 l 1
49 43 m 1
 47 43 l 1
 47 41 l 1
 49 41 l 1
 49 43 l 1
49 39 m 1
 47 39 l 1
 47 37 l 1
 49 37 l 1
 49 39 l 1
55 43 m 1
 53 43 l 1
 53 41 l 1
 55 41 l 1
 55 43 l 1
58 43 m 1
 56 43 l 1
 56 41 l 1
 57 41 l 1
 57 42 l 1
 58 42 l 1
 58 43 l 1
59 42 m 1
 58 42 l 1
 58 41 l 1
 60 41 l 1
 60 43 l 1
 59 43 l 1
 59 42 l 1
55 39 m 1
 53 39 l 1
 53 37 l 1
 55 37 l 1
 55 39 l 1
63 43 m 1
 61 43 l 1
 61 41 l 1
 63 41 l 1
 63 43 l 1
63 39 m 1
 61 39 l 1
 61 37 l 1
 63 37 l 1
 63 39 l 1
46 35 m 1
 44 35 l 1
 44 34 l 1
 45 34 l 1
 45 33 l 1
 46 33 l 1
 46 35 l 1
49 35 m 1
 47 35 l 1
 47 33 l 1
 49 33 l 1
 49 35 l 1
49 31 m 1
 47 31 l 1
 47 29 l 1
 49 29 l 1
 49 31 l 1
55 35 m 1
 53 35 l 1
 53 33 l 1
 55 33 l 1
 55 35 l 1
57 35 m 1
 56 35 l 1
 56 33 l 1
 58 33 l 1
 58 34 l 1
 57 34 l 1
 57 35 l 1
60 35 m 1
 58 35 l 1
 58 34 l 1
 59 34 l 1
 59 33 l 1
 60 33 l 1
 60 35 l 1
45 26 m 1
 44 26 l 1
 44 25 l 1
 46 25 l 1
 46 27 l 1
 45 27 l 1
 45 26 l 1
49 27 m 1
 47 27 l 1
 47 25 l 1
 49 25 l 1
 49 27 l 1
55 27 m 1
 53 27 l 1
 53 25 l 1
 55 25 l 1
 55 27 l 1
58 27 m 1
 56 27 l 1
 56 25 l 1
 57 25 l 1
 57 26 l 1
 58 26 l 1
 58 27 l 1
59 26 m 1
 58 26 l 1
 58 25 l 1
 60 25 l 1
 60 27 l 1
 59 27 l 1
 59 26 l 1
63 35 m 1
 61 35 l 1
 61 33 l 1
 63 33 l 1
 63 35 l 1
63 31 m 1
 61 31 l 1
 61 29 l 1
 63 29 l 1
 63 31 l 1
63 27 m 1
 61 27 l 1
 61 25 l 1
 63 25 l 1
 63 27 l 1
EndSplineSet
EndChar

StartChar: custom_3_9_0_7_5
Encoding: 31743 31743 11775
Width: 70
Flags: H
LayerCount: 2
Fore
SplineSet
31 43 m 1
 29 43 l 1
 29 41 l 1
 31 41 l 1
 31 43 l 1
31 39 m 1
 29 39 l 1
 29 37 l 1
 31 37 l 1
 31 39 l 1
36 37 m 1
 34 37 l 1
 34 35 l 1
 36 35 l 1
 36 37 l 1
41 43 m 1
 39 43 l 1
 39 41 l 1
 41 41 l 1
 41 43 l 1
44 43 m 1
 42 43 l 1
 42 41 l 1
 43 41 l 1
 43 42 l 1
 44 42 l 1
 44 43 l 1
31 35 m 1
 29 35 l 1
 29 33 l 1
 31 33 l 1
 31 35 l 1
36 33 m 1
 34 33 l 1
 34 31 l 1
 36 31 l 1
 36 33 l 1
31 31 m 1
 29 31 l 1
 29 29 l 1
 31 29 l 1
 31 31 l 1
41 35 m 1
 39 35 l 1
 39 33 l 1
 41 33 l 1
 41 35 l 1
43 35 m 1
 42 35 l 1
 42 33 l 1
 44 33 l 1
 44 34 l 1
 43 34 l 1
 43 35 l 1
31 27 m 1
 29 27 l 1
 29 25 l 1
 31 25 l 1
 31 27 l 1
41 27 m 1
 39 27 l 1
 39 25 l 1
 41 25 l 1
 41 27 l 1
44 27 m 1
 42 27 l 1
 42 25 l 1
 43 25 l 1
 43 26 l 1
 44 26 l 1
 44 27 l 1
45 42 m 1
 44 42 l 1
 44 41 l 1
 46 41 l 1
 46 43 l 1
 45 43 l 1
 45 42 l 1
49 43 m 1
 47 43 l 1
 47 41 l 1
 49 41 l 1
 49 43 l 1
49 39 m 1
 47 39 l 1
 47 37 l 1
 49 37 l 1
 49 39 l 1
55 43 m 1
 53 43 l 1
 53 41 l 1
 55 41 l 1
 55 43 l 1
58 43 m 1
 56 43 l 1
 56 41 l 1
 57 41 l 1
 57 42 l 1
 58 42 l 1
 58 43 l 1
59 42 m 1
 58 42 l 1
 58 41 l 1
 60 41 l 1
 60 43 l 1
 59 43 l 1
 59 42 l 1
55 39 m 1
 53 39 l 1
 53 37 l 1
 55 37 l 1
 55 39 l 1
63 43 m 1
 61 43 l 1
 61 41 l 1
 63 41 l 1
 63 43 l 1
63 39 m 1
 61 39 l 1
 61 37 l 1
 63 37 l 1
 63 39 l 1
46 35 m 1
 44 35 l 1
 44 34 l 1
 45 34 l 1
 45 33 l 1
 46 33 l 1
 46 35 l 1
49 35 m 1
 47 35 l 1
 47 33 l 1
 49 33 l 1
 49 35 l 1
49 31 m 1
 47 31 l 1
 47 29 l 1
 49 29 l 1
 49 31 l 1
55 35 m 1
 53 35 l 1
 53 33 l 1
 55 33 l 1
 55 35 l 1
57 35 m 1
 56 35 l 1
 56 33 l 1
 58 33 l 1
 58 34 l 1
 57 34 l 1
 57 35 l 1
60 35 m 1
 58 35 l 1
 58 34 l 1
 59 34 l 1
 59 33 l 1
 60 33 l 1
 60 35 l 1
45 26 m 1
 44 26 l 1
 44 25 l 1
 46 25 l 1
 46 27 l 1
 45 27 l 1
 45 26 l 1
49 27 m 1
 47 27 l 1
 47 25 l 1
 49 25 l 1
 49 27 l 1
55 27 m 1
 53 27 l 1
 53 25 l 1
 55 25 l 1
 55 27 l 1
58 27 m 1
 56 27 l 1
 56 25 l 1
 57 25 l 1
 57 26 l 1
 58 26 l 1
 58 27 l 1
59 26 m 1
 58 26 l 1
 58 25 l 1
 60 25 l 1
 60 27 l 1
 59 27 l 1
 59 26 l 1
63 35 m 1
 61 35 l 1
 61 33 l 1
 63 33 l 1
 63 35 l 1
63 31 m 1
 61 31 l 1
 61 29 l 1
 63 29 l 1
 63 31 l 1
63 27 m 1
 61 27 l 1
 61 25 l 1
 63 25 l 1
 63 27 l 1
EndSplineSet
EndChar

StartChar: custom_3_9_0_7_6
Encoding: 31744 31744 11776
Width: 70
Flags: H
LayerCount: 2
Fore
SplineSet
31 43 m 1
 29 43 l 1
 29 41 l 1
 31 41 l 1
 31 43 l 1
31 39 m 1
 29 39 l 1
 29 37 l 1
 31 37 l 1
 31 39 l 1
36 37 m 1
 34 37 l 1
 34 35 l 1
 36 35 l 1
 36 37 l 1
41 43 m 1
 39 43 l 1
 39 41 l 1
 41 41 l 1
 41 43 l 1
44 43 m 1
 42 43 l 1
 42 41 l 1
 43 41 l 1
 43 42 l 1
 44 42 l 1
 44 43 l 1
31 35 m 1
 29 35 l 1
 29 33 l 1
 31 33 l 1
 31 35 l 1
36 33 m 1
 34 33 l 1
 34 31 l 1
 36 31 l 1
 36 33 l 1
31 31 m 1
 29 31 l 1
 29 29 l 1
 31 29 l 1
 31 31 l 1
41 35 m 1
 39 35 l 1
 39 33 l 1
 41 33 l 1
 41 35 l 1
43 35 m 1
 42 35 l 1
 42 33 l 1
 44 33 l 1
 44 34 l 1
 43 34 l 1
 43 35 l 1
31 27 m 1
 29 27 l 1
 29 25 l 1
 31 25 l 1
 31 27 l 1
41 27 m 1
 39 27 l 1
 39 25 l 1
 41 25 l 1
 41 27 l 1
44 27 m 1
 42 27 l 1
 42 25 l 1
 43 25 l 1
 43 26 l 1
 44 26 l 1
 44 27 l 1
45 42 m 1
 44 42 l 1
 44 41 l 1
 46 41 l 1
 46 43 l 1
 45 43 l 1
 45 42 l 1
49 43 m 1
 47 43 l 1
 47 41 l 1
 49 41 l 1
 49 43 l 1
49 39 m 1
 47 39 l 1
 47 37 l 1
 49 37 l 1
 49 39 l 1
55 43 m 1
 53 43 l 1
 53 41 l 1
 55 41 l 1
 55 43 l 1
58 43 m 1
 56 43 l 1
 56 41 l 1
 57 41 l 1
 57 42 l 1
 58 42 l 1
 58 43 l 1
59 42 m 1
 58 42 l 1
 58 41 l 1
 60 41 l 1
 60 43 l 1
 59 43 l 1
 59 42 l 1
55 39 m 1
 53 39 l 1
 53 37 l 1
 55 37 l 1
 55 39 l 1
63 43 m 1
 61 43 l 1
 61 41 l 1
 63 41 l 1
 63 43 l 1
63 39 m 1
 61 39 l 1
 61 37 l 1
 63 37 l 1
 63 39 l 1
46 35 m 1
 44 35 l 1
 44 34 l 1
 45 34 l 1
 45 33 l 1
 46 33 l 1
 46 35 l 1
49 35 m 1
 47 35 l 1
 47 33 l 1
 49 33 l 1
 49 35 l 1
49 31 m 1
 47 31 l 1
 47 29 l 1
 49 29 l 1
 49 31 l 1
55 35 m 1
 53 35 l 1
 53 33 l 1
 55 33 l 1
 55 35 l 1
57 35 m 1
 56 35 l 1
 56 33 l 1
 58 33 l 1
 58 34 l 1
 57 34 l 1
 57 35 l 1
60 35 m 1
 58 35 l 1
 58 34 l 1
 59 34 l 1
 59 33 l 1
 60 33 l 1
 60 35 l 1
45 26 m 1
 44 26 l 1
 44 25 l 1
 46 25 l 1
 46 27 l 1
 45 27 l 1
 45 26 l 1
49 27 m 1
 47 27 l 1
 47 25 l 1
 49 25 l 1
 49 27 l 1
55 27 m 1
 53 27 l 1
 53 25 l 1
 55 25 l 1
 55 27 l 1
58 27 m 1
 56 27 l 1
 56 25 l 1
 57 25 l 1
 57 26 l 1
 58 26 l 1
 58 27 l 1
59 26 m 1
 58 26 l 1
 58 25 l 1
 60 25 l 1
 60 27 l 1
 59 27 l 1
 59 26 l 1
63 35 m 1
 61 35 l 1
 61 33 l 1
 63 33 l 1
 63 35 l 1
63 31 m 1
 61 31 l 1
 61 29 l 1
 63 29 l 1
 63 31 l 1
63 27 m 1
 61 27 l 1
 61 25 l 1
 63 25 l 1
 63 27 l 1
EndSplineSet
EndChar

StartChar: custom_3_9_0_7_7
Encoding: 31745 31745 11777
Width: 70
Flags: H
LayerCount: 2
Fore
SplineSet
31 43 m 1
 29 43 l 1
 29 41 l 1
 31 41 l 1
 31 43 l 1
31 39 m 1
 29 39 l 1
 29 37 l 1
 31 37 l 1
 31 39 l 1
36 37 m 1
 34 37 l 1
 34 35 l 1
 36 35 l 1
 36 37 l 1
41 43 m 1
 39 43 l 1
 39 41 l 1
 41 41 l 1
 41 43 l 1
44 43 m 1
 42 43 l 1
 42 41 l 1
 43 41 l 1
 43 42 l 1
 44 42 l 1
 44 43 l 1
31 35 m 1
 29 35 l 1
 29 33 l 1
 31 33 l 1
 31 35 l 1
36 33 m 1
 34 33 l 1
 34 31 l 1
 36 31 l 1
 36 33 l 1
31 31 m 1
 29 31 l 1
 29 29 l 1
 31 29 l 1
 31 31 l 1
41 35 m 1
 39 35 l 1
 39 33 l 1
 41 33 l 1
 41 35 l 1
43 35 m 1
 42 35 l 1
 42 33 l 1
 44 33 l 1
 44 34 l 1
 43 34 l 1
 43 35 l 1
31 27 m 1
 29 27 l 1
 29 25 l 1
 31 25 l 1
 31 27 l 1
41 27 m 1
 39 27 l 1
 39 25 l 1
 41 25 l 1
 41 27 l 1
44 27 m 1
 42 27 l 1
 42 25 l 1
 43 25 l 1
 43 26 l 1
 44 26 l 1
 44 27 l 1
45 42 m 1
 44 42 l 1
 44 41 l 1
 46 41 l 1
 46 43 l 1
 45 43 l 1
 45 42 l 1
49 43 m 1
 47 43 l 1
 47 41 l 1
 49 41 l 1
 49 43 l 1
49 39 m 1
 47 39 l 1
 47 37 l 1
 49 37 l 1
 49 39 l 1
55 43 m 1
 53 43 l 1
 53 41 l 1
 55 41 l 1
 55 43 l 1
58 43 m 1
 56 43 l 1
 56 41 l 1
 57 41 l 1
 57 42 l 1
 58 42 l 1
 58 43 l 1
59 42 m 1
 58 42 l 1
 58 41 l 1
 60 41 l 1
 60 43 l 1
 59 43 l 1
 59 42 l 1
55 39 m 1
 53 39 l 1
 53 37 l 1
 55 37 l 1
 55 39 l 1
63 43 m 1
 61 43 l 1
 61 41 l 1
 63 41 l 1
 63 43 l 1
63 39 m 1
 61 39 l 1
 61 37 l 1
 63 37 l 1
 63 39 l 1
46 35 m 1
 44 35 l 1
 44 34 l 1
 45 34 l 1
 45 33 l 1
 46 33 l 1
 46 35 l 1
49 35 m 1
 47 35 l 1
 47 33 l 1
 49 33 l 1
 49 35 l 1
49 31 m 1
 47 31 l 1
 47 29 l 1
 49 29 l 1
 49 31 l 1
55 35 m 1
 53 35 l 1
 53 33 l 1
 55 33 l 1
 55 35 l 1
57 35 m 1
 56 35 l 1
 56 33 l 1
 58 33 l 1
 58 34 l 1
 57 34 l 1
 57 35 l 1
60 35 m 1
 58 35 l 1
 58 34 l 1
 59 34 l 1
 59 33 l 1
 60 33 l 1
 60 35 l 1
45 26 m 1
 44 26 l 1
 44 25 l 1
 46 25 l 1
 46 27 l 1
 45 27 l 1
 45 26 l 1
49 27 m 1
 47 27 l 1
 47 25 l 1
 49 25 l 1
 49 27 l 1
55 27 m 1
 53 27 l 1
 53 25 l 1
 55 25 l 1
 55 27 l 1
58 27 m 1
 56 27 l 1
 56 25 l 1
 57 25 l 1
 57 26 l 1
 58 26 l 1
 58 27 l 1
59 26 m 1
 58 26 l 1
 58 25 l 1
 60 25 l 1
 60 27 l 1
 59 27 l 1
 59 26 l 1
63 35 m 1
 61 35 l 1
 61 33 l 1
 63 33 l 1
 63 35 l 1
63 31 m 1
 61 31 l 1
 61 29 l 1
 63 29 l 1
 63 31 l 1
63 27 m 1
 61 27 l 1
 61 25 l 1
 63 25 l 1
 63 27 l 1
EndSplineSet
EndChar

StartChar: custom_3_9_0_7_8
Encoding: 31746 31746 11778
Width: 70
Flags: H
LayerCount: 2
Fore
SplineSet
31 43 m 1
 29 43 l 1
 29 41 l 1
 31 41 l 1
 31 43 l 1
31 39 m 1
 29 39 l 1
 29 37 l 1
 31 37 l 1
 31 39 l 1
36 37 m 1
 34 37 l 1
 34 35 l 1
 36 35 l 1
 36 37 l 1
41 43 m 1
 39 43 l 1
 39 41 l 1
 41 41 l 1
 41 43 l 1
44 43 m 1
 42 43 l 1
 42 41 l 1
 43 41 l 1
 43 42 l 1
 44 42 l 1
 44 43 l 1
31 35 m 1
 29 35 l 1
 29 33 l 1
 31 33 l 1
 31 35 l 1
36 33 m 1
 34 33 l 1
 34 31 l 1
 36 31 l 1
 36 33 l 1
31 31 m 1
 29 31 l 1
 29 29 l 1
 31 29 l 1
 31 31 l 1
41 35 m 1
 39 35 l 1
 39 33 l 1
 41 33 l 1
 41 35 l 1
43 35 m 1
 42 35 l 1
 42 33 l 1
 44 33 l 1
 44 34 l 1
 43 34 l 1
 43 35 l 1
31 27 m 1
 29 27 l 1
 29 25 l 1
 31 25 l 1
 31 27 l 1
41 27 m 1
 39 27 l 1
 39 25 l 1
 41 25 l 1
 41 27 l 1
44 27 m 1
 42 27 l 1
 42 25 l 1
 43 25 l 1
 43 26 l 1
 44 26 l 1
 44 27 l 1
45 42 m 1
 44 42 l 1
 44 41 l 1
 46 41 l 1
 46 43 l 1
 45 43 l 1
 45 42 l 1
49 43 m 1
 47 43 l 1
 47 41 l 1
 49 41 l 1
 49 43 l 1
49 39 m 1
 47 39 l 1
 47 37 l 1
 49 37 l 1
 49 39 l 1
55 43 m 1
 53 43 l 1
 53 41 l 1
 55 41 l 1
 55 43 l 1
58 43 m 1
 56 43 l 1
 56 41 l 1
 57 41 l 1
 57 42 l 1
 58 42 l 1
 58 43 l 1
59 42 m 1
 58 42 l 1
 58 41 l 1
 60 41 l 1
 60 43 l 1
 59 43 l 1
 59 42 l 1
55 39 m 1
 53 39 l 1
 53 37 l 1
 55 37 l 1
 55 39 l 1
63 43 m 1
 61 43 l 1
 61 41 l 1
 63 41 l 1
 63 43 l 1
63 39 m 1
 61 39 l 1
 61 37 l 1
 63 37 l 1
 63 39 l 1
46 35 m 1
 44 35 l 1
 44 34 l 1
 45 34 l 1
 45 33 l 1
 46 33 l 1
 46 35 l 1
49 35 m 1
 47 35 l 1
 47 33 l 1
 49 33 l 1
 49 35 l 1
49 31 m 1
 47 31 l 1
 47 29 l 1
 49 29 l 1
 49 31 l 1
55 35 m 1
 53 35 l 1
 53 33 l 1
 55 33 l 1
 55 35 l 1
57 35 m 1
 56 35 l 1
 56 33 l 1
 58 33 l 1
 58 34 l 1
 57 34 l 1
 57 35 l 1
60 35 m 1
 58 35 l 1
 58 34 l 1
 59 34 l 1
 59 33 l 1
 60 33 l 1
 60 35 l 1
45 26 m 1
 44 26 l 1
 44 25 l 1
 46 25 l 1
 46 27 l 1
 45 27 l 1
 45 26 l 1
49 27 m 1
 47 27 l 1
 47 25 l 1
 49 25 l 1
 49 27 l 1
55 27 m 1
 53 27 l 1
 53 25 l 1
 55 25 l 1
 55 27 l 1
58 27 m 1
 56 27 l 1
 56 25 l 1
 57 25 l 1
 57 26 l 1
 58 26 l 1
 58 27 l 1
59 26 m 1
 58 26 l 1
 58 25 l 1
 60 25 l 1
 60 27 l 1
 59 27 l 1
 59 26 l 1
63 35 m 1
 61 35 l 1
 61 33 l 1
 63 33 l 1
 63 35 l 1
63 31 m 1
 61 31 l 1
 61 29 l 1
 63 29 l 1
 63 31 l 1
63 27 m 1
 61 27 l 1
 61 25 l 1
 63 25 l 1
 63 27 l 1
EndSplineSet
EndChar

StartChar: custom_3_9_0_7_9
Encoding: 31747 31747 11779
Width: 70
Flags: H
LayerCount: 2
Fore
SplineSet
31 43 m 1
 29 43 l 1
 29 41 l 1
 31 41 l 1
 31 43 l 1
31 39 m 1
 29 39 l 1
 29 37 l 1
 31 37 l 1
 31 39 l 1
36 37 m 1
 34 37 l 1
 34 35 l 1
 36 35 l 1
 36 37 l 1
41 43 m 1
 39 43 l 1
 39 41 l 1
 41 41 l 1
 41 43 l 1
44 43 m 1
 42 43 l 1
 42 41 l 1
 43 41 l 1
 43 42 l 1
 44 42 l 1
 44 43 l 1
31 35 m 1
 29 35 l 1
 29 33 l 1
 31 33 l 1
 31 35 l 1
36 33 m 1
 34 33 l 1
 34 31 l 1
 36 31 l 1
 36 33 l 1
31 31 m 1
 29 31 l 1
 29 29 l 1
 31 29 l 1
 31 31 l 1
41 35 m 1
 39 35 l 1
 39 33 l 1
 41 33 l 1
 41 35 l 1
43 35 m 1
 42 35 l 1
 42 33 l 1
 44 33 l 1
 44 34 l 1
 43 34 l 1
 43 35 l 1
31 27 m 1
 29 27 l 1
 29 25 l 1
 31 25 l 1
 31 27 l 1
41 27 m 1
 39 27 l 1
 39 25 l 1
 41 25 l 1
 41 27 l 1
44 27 m 1
 42 27 l 1
 42 25 l 1
 43 25 l 1
 43 26 l 1
 44 26 l 1
 44 27 l 1
45 42 m 1
 44 42 l 1
 44 41 l 1
 46 41 l 1
 46 43 l 1
 45 43 l 1
 45 42 l 1
49 43 m 1
 47 43 l 1
 47 41 l 1
 49 41 l 1
 49 43 l 1
49 39 m 1
 47 39 l 1
 47 37 l 1
 49 37 l 1
 49 39 l 1
55 43 m 1
 53 43 l 1
 53 41 l 1
 55 41 l 1
 55 43 l 1
58 43 m 1
 56 43 l 1
 56 41 l 1
 57 41 l 1
 57 42 l 1
 58 42 l 1
 58 43 l 1
59 42 m 1
 58 42 l 1
 58 41 l 1
 60 41 l 1
 60 43 l 1
 59 43 l 1
 59 42 l 1
55 39 m 1
 53 39 l 1
 53 37 l 1
 55 37 l 1
 55 39 l 1
63 43 m 1
 61 43 l 1
 61 41 l 1
 63 41 l 1
 63 43 l 1
63 39 m 1
 61 39 l 1
 61 37 l 1
 63 37 l 1
 63 39 l 1
46 35 m 1
 44 35 l 1
 44 34 l 1
 45 34 l 1
 45 33 l 1
 46 33 l 1
 46 35 l 1
49 35 m 1
 47 35 l 1
 47 33 l 1
 49 33 l 1
 49 35 l 1
49 31 m 1
 47 31 l 1
 47 29 l 1
 49 29 l 1
 49 31 l 1
55 35 m 1
 53 35 l 1
 53 33 l 1
 55 33 l 1
 55 35 l 1
57 35 m 1
 56 35 l 1
 56 33 l 1
 58 33 l 1
 58 34 l 1
 57 34 l 1
 57 35 l 1
60 35 m 1
 58 35 l 1
 58 34 l 1
 59 34 l 1
 59 33 l 1
 60 33 l 1
 60 35 l 1
45 26 m 1
 44 26 l 1
 44 25 l 1
 46 25 l 1
 46 27 l 1
 45 27 l 1
 45 26 l 1
49 27 m 1
 47 27 l 1
 47 25 l 1
 49 25 l 1
 49 27 l 1
55 27 m 1
 53 27 l 1
 53 25 l 1
 55 25 l 1
 55 27 l 1
58 27 m 1
 56 27 l 1
 56 25 l 1
 57 25 l 1
 57 26 l 1
 58 26 l 1
 58 27 l 1
59 26 m 1
 58 26 l 1
 58 25 l 1
 60 25 l 1
 60 27 l 1
 59 27 l 1
 59 26 l 1
63 35 m 1
 61 35 l 1
 61 33 l 1
 63 33 l 1
 63 35 l 1
63 31 m 1
 61 31 l 1
 61 29 l 1
 63 29 l 1
 63 31 l 1
63 27 m 1
 61 27 l 1
 61 25 l 1
 63 25 l 1
 63 27 l 1
EndSplineSet
EndChar

StartChar: custom_3_9_0_8_0
Encoding: 31748 31748 11780
Width: 70
Flags: H
LayerCount: 2
Fore
SplineSet
31 43 m 1
 29 43 l 1
 29 41 l 1
 31 41 l 1
 31 43 l 1
31 39 m 1
 29 39 l 1
 29 37 l 1
 31 37 l 1
 31 39 l 1
36 37 m 1
 34 37 l 1
 34 35 l 1
 36 35 l 1
 36 37 l 1
41 43 m 1
 39 43 l 1
 39 41 l 1
 41 41 l 1
 41 43 l 1
44 43 m 1
 42 43 l 1
 42 41 l 1
 43 41 l 1
 43 42 l 1
 44 42 l 1
 44 43 l 1
31 35 m 1
 29 35 l 1
 29 33 l 1
 31 33 l 1
 31 35 l 1
36 33 m 1
 34 33 l 1
 34 31 l 1
 36 31 l 1
 36 33 l 1
31 31 m 1
 29 31 l 1
 29 29 l 1
 31 29 l 1
 31 31 l 1
41 35 m 1
 39 35 l 1
 39 33 l 1
 41 33 l 1
 41 35 l 1
43 35 m 1
 42 35 l 1
 42 33 l 1
 44 33 l 1
 44 34 l 1
 43 34 l 1
 43 35 l 1
31 27 m 1
 29 27 l 1
 29 25 l 1
 31 25 l 1
 31 27 l 1
41 27 m 1
 39 27 l 1
 39 25 l 1
 41 25 l 1
 41 27 l 1
44 27 m 1
 42 27 l 1
 42 25 l 1
 43 25 l 1
 43 26 l 1
 44 26 l 1
 44 27 l 1
45 42 m 1
 44 42 l 1
 44 41 l 1
 46 41 l 1
 46 43 l 1
 45 43 l 1
 45 42 l 1
49 43 m 1
 47 43 l 1
 47 41 l 1
 49 41 l 1
 49 43 l 1
49 39 m 1
 47 39 l 1
 47 37 l 1
 49 37 l 1
 49 39 l 1
55 43 m 1
 53 43 l 1
 53 41 l 1
 55 41 l 1
 55 43 l 1
58 43 m 1
 56 43 l 1
 56 41 l 1
 57 41 l 1
 57 42 l 1
 58 42 l 1
 58 43 l 1
59 42 m 1
 58 42 l 1
 58 41 l 1
 60 41 l 1
 60 43 l 1
 59 43 l 1
 59 42 l 1
55 39 m 1
 53 39 l 1
 53 37 l 1
 55 37 l 1
 55 39 l 1
63 43 m 1
 61 43 l 1
 61 41 l 1
 63 41 l 1
 63 43 l 1
63 39 m 1
 61 39 l 1
 61 37 l 1
 63 37 l 1
 63 39 l 1
46 35 m 1
 44 35 l 1
 44 34 l 1
 45 34 l 1
 45 33 l 1
 46 33 l 1
 46 35 l 1
49 35 m 1
 47 35 l 1
 47 33 l 1
 49 33 l 1
 49 35 l 1
49 31 m 1
 47 31 l 1
 47 29 l 1
 49 29 l 1
 49 31 l 1
55 35 m 1
 53 35 l 1
 53 33 l 1
 55 33 l 1
 55 35 l 1
57 35 m 1
 56 35 l 1
 56 33 l 1
 58 33 l 1
 58 34 l 1
 57 34 l 1
 57 35 l 1
60 35 m 1
 58 35 l 1
 58 34 l 1
 59 34 l 1
 59 33 l 1
 60 33 l 1
 60 35 l 1
45 26 m 1
 44 26 l 1
 44 25 l 1
 46 25 l 1
 46 27 l 1
 45 27 l 1
 45 26 l 1
49 27 m 1
 47 27 l 1
 47 25 l 1
 49 25 l 1
 49 27 l 1
55 27 m 1
 53 27 l 1
 53 25 l 1
 55 25 l 1
 55 27 l 1
58 27 m 1
 56 27 l 1
 56 25 l 1
 57 25 l 1
 57 26 l 1
 58 26 l 1
 58 27 l 1
59 26 m 1
 58 26 l 1
 58 25 l 1
 60 25 l 1
 60 27 l 1
 59 27 l 1
 59 26 l 1
63 35 m 1
 61 35 l 1
 61 33 l 1
 63 33 l 1
 63 35 l 1
63 31 m 1
 61 31 l 1
 61 29 l 1
 63 29 l 1
 63 31 l 1
63 27 m 1
 61 27 l 1
 61 25 l 1
 63 25 l 1
 63 27 l 1
EndSplineSet
EndChar

StartChar: custom_3_9_0_8_1
Encoding: 31749 31749 11781
Width: 70
Flags: H
LayerCount: 2
Fore
SplineSet
31 43 m 1
 29 43 l 1
 29 41 l 1
 31 41 l 1
 31 43 l 1
31 39 m 1
 29 39 l 1
 29 37 l 1
 31 37 l 1
 31 39 l 1
36 37 m 1
 34 37 l 1
 34 35 l 1
 36 35 l 1
 36 37 l 1
41 43 m 1
 39 43 l 1
 39 41 l 1
 41 41 l 1
 41 43 l 1
44 43 m 1
 42 43 l 1
 42 41 l 1
 43 41 l 1
 43 42 l 1
 44 42 l 1
 44 43 l 1
31 35 m 1
 29 35 l 1
 29 33 l 1
 31 33 l 1
 31 35 l 1
36 33 m 1
 34 33 l 1
 34 31 l 1
 36 31 l 1
 36 33 l 1
31 31 m 1
 29 31 l 1
 29 29 l 1
 31 29 l 1
 31 31 l 1
41 35 m 1
 39 35 l 1
 39 33 l 1
 41 33 l 1
 41 35 l 1
43 35 m 1
 42 35 l 1
 42 33 l 1
 44 33 l 1
 44 34 l 1
 43 34 l 1
 43 35 l 1
31 27 m 1
 29 27 l 1
 29 25 l 1
 31 25 l 1
 31 27 l 1
41 27 m 1
 39 27 l 1
 39 25 l 1
 41 25 l 1
 41 27 l 1
44 27 m 1
 42 27 l 1
 42 25 l 1
 43 25 l 1
 43 26 l 1
 44 26 l 1
 44 27 l 1
45 42 m 1
 44 42 l 1
 44 41 l 1
 46 41 l 1
 46 43 l 1
 45 43 l 1
 45 42 l 1
49 43 m 1
 47 43 l 1
 47 41 l 1
 49 41 l 1
 49 43 l 1
49 39 m 1
 47 39 l 1
 47 37 l 1
 49 37 l 1
 49 39 l 1
55 43 m 1
 53 43 l 1
 53 41 l 1
 55 41 l 1
 55 43 l 1
58 43 m 1
 56 43 l 1
 56 41 l 1
 57 41 l 1
 57 42 l 1
 58 42 l 1
 58 43 l 1
59 42 m 1
 58 42 l 1
 58 41 l 1
 60 41 l 1
 60 43 l 1
 59 43 l 1
 59 42 l 1
55 39 m 1
 53 39 l 1
 53 37 l 1
 55 37 l 1
 55 39 l 1
63 43 m 1
 61 43 l 1
 61 41 l 1
 63 41 l 1
 63 43 l 1
63 39 m 1
 61 39 l 1
 61 37 l 1
 63 37 l 1
 63 39 l 1
46 35 m 1
 44 35 l 1
 44 34 l 1
 45 34 l 1
 45 33 l 1
 46 33 l 1
 46 35 l 1
49 35 m 1
 47 35 l 1
 47 33 l 1
 49 33 l 1
 49 35 l 1
49 31 m 1
 47 31 l 1
 47 29 l 1
 49 29 l 1
 49 31 l 1
55 35 m 1
 53 35 l 1
 53 33 l 1
 55 33 l 1
 55 35 l 1
57 35 m 1
 56 35 l 1
 56 33 l 1
 58 33 l 1
 58 34 l 1
 57 34 l 1
 57 35 l 1
60 35 m 1
 58 35 l 1
 58 34 l 1
 59 34 l 1
 59 33 l 1
 60 33 l 1
 60 35 l 1
45 26 m 1
 44 26 l 1
 44 25 l 1
 46 25 l 1
 46 27 l 1
 45 27 l 1
 45 26 l 1
49 27 m 1
 47 27 l 1
 47 25 l 1
 49 25 l 1
 49 27 l 1
55 27 m 1
 53 27 l 1
 53 25 l 1
 55 25 l 1
 55 27 l 1
58 27 m 1
 56 27 l 1
 56 25 l 1
 57 25 l 1
 57 26 l 1
 58 26 l 1
 58 27 l 1
59 26 m 1
 58 26 l 1
 58 25 l 1
 60 25 l 1
 60 27 l 1
 59 27 l 1
 59 26 l 1
63 35 m 1
 61 35 l 1
 61 33 l 1
 63 33 l 1
 63 35 l 1
63 31 m 1
 61 31 l 1
 61 29 l 1
 63 29 l 1
 63 31 l 1
63 27 m 1
 61 27 l 1
 61 25 l 1
 63 25 l 1
 63 27 l 1
EndSplineSet
EndChar

StartChar: custom_3_9_0_8_2
Encoding: 31750 31750 11782
Width: 70
Flags: H
LayerCount: 2
Fore
SplineSet
31 43 m 1
 29 43 l 1
 29 41 l 1
 31 41 l 1
 31 43 l 1
31 39 m 1
 29 39 l 1
 29 37 l 1
 31 37 l 1
 31 39 l 1
36 37 m 1
 34 37 l 1
 34 35 l 1
 36 35 l 1
 36 37 l 1
41 43 m 1
 39 43 l 1
 39 41 l 1
 41 41 l 1
 41 43 l 1
44 43 m 1
 42 43 l 1
 42 41 l 1
 43 41 l 1
 43 42 l 1
 44 42 l 1
 44 43 l 1
31 35 m 1
 29 35 l 1
 29 33 l 1
 31 33 l 1
 31 35 l 1
36 33 m 1
 34 33 l 1
 34 31 l 1
 36 31 l 1
 36 33 l 1
31 31 m 1
 29 31 l 1
 29 29 l 1
 31 29 l 1
 31 31 l 1
41 35 m 1
 39 35 l 1
 39 33 l 1
 41 33 l 1
 41 35 l 1
43 35 m 1
 42 35 l 1
 42 33 l 1
 44 33 l 1
 44 34 l 1
 43 34 l 1
 43 35 l 1
31 27 m 1
 29 27 l 1
 29 25 l 1
 31 25 l 1
 31 27 l 1
41 27 m 1
 39 27 l 1
 39 25 l 1
 41 25 l 1
 41 27 l 1
44 27 m 1
 42 27 l 1
 42 25 l 1
 43 25 l 1
 43 26 l 1
 44 26 l 1
 44 27 l 1
45 42 m 1
 44 42 l 1
 44 41 l 1
 46 41 l 1
 46 43 l 1
 45 43 l 1
 45 42 l 1
49 43 m 1
 47 43 l 1
 47 41 l 1
 49 41 l 1
 49 43 l 1
49 39 m 1
 47 39 l 1
 47 37 l 1
 49 37 l 1
 49 39 l 1
55 43 m 1
 53 43 l 1
 53 41 l 1
 55 41 l 1
 55 43 l 1
58 43 m 1
 56 43 l 1
 56 41 l 1
 57 41 l 1
 57 42 l 1
 58 42 l 1
 58 43 l 1
59 42 m 1
 58 42 l 1
 58 41 l 1
 60 41 l 1
 60 43 l 1
 59 43 l 1
 59 42 l 1
55 39 m 1
 53 39 l 1
 53 37 l 1
 55 37 l 1
 55 39 l 1
63 43 m 1
 61 43 l 1
 61 41 l 1
 63 41 l 1
 63 43 l 1
63 39 m 1
 61 39 l 1
 61 37 l 1
 63 37 l 1
 63 39 l 1
46 35 m 1
 44 35 l 1
 44 34 l 1
 45 34 l 1
 45 33 l 1
 46 33 l 1
 46 35 l 1
49 35 m 1
 47 35 l 1
 47 33 l 1
 49 33 l 1
 49 35 l 1
49 31 m 1
 47 31 l 1
 47 29 l 1
 49 29 l 1
 49 31 l 1
55 35 m 1
 53 35 l 1
 53 33 l 1
 55 33 l 1
 55 35 l 1
57 35 m 1
 56 35 l 1
 56 33 l 1
 58 33 l 1
 58 34 l 1
 57 34 l 1
 57 35 l 1
60 35 m 1
 58 35 l 1
 58 34 l 1
 59 34 l 1
 59 33 l 1
 60 33 l 1
 60 35 l 1
45 26 m 1
 44 26 l 1
 44 25 l 1
 46 25 l 1
 46 27 l 1
 45 27 l 1
 45 26 l 1
49 27 m 1
 47 27 l 1
 47 25 l 1
 49 25 l 1
 49 27 l 1
55 27 m 1
 53 27 l 1
 53 25 l 1
 55 25 l 1
 55 27 l 1
58 27 m 1
 56 27 l 1
 56 25 l 1
 57 25 l 1
 57 26 l 1
 58 26 l 1
 58 27 l 1
59 26 m 1
 58 26 l 1
 58 25 l 1
 60 25 l 1
 60 27 l 1
 59 27 l 1
 59 26 l 1
63 35 m 1
 61 35 l 1
 61 33 l 1
 63 33 l 1
 63 35 l 1
63 31 m 1
 61 31 l 1
 61 29 l 1
 63 29 l 1
 63 31 l 1
63 27 m 1
 61 27 l 1
 61 25 l 1
 63 25 l 1
 63 27 l 1
EndSplineSet
EndChar

StartChar: custom_3_9_0_8_3
Encoding: 31751 31751 11783
Width: 70
Flags: H
LayerCount: 2
Fore
SplineSet
31 43 m 1
 29 43 l 1
 29 41 l 1
 31 41 l 1
 31 43 l 1
31 39 m 1
 29 39 l 1
 29 37 l 1
 31 37 l 1
 31 39 l 1
36 37 m 1
 34 37 l 1
 34 35 l 1
 36 35 l 1
 36 37 l 1
41 43 m 1
 39 43 l 1
 39 41 l 1
 41 41 l 1
 41 43 l 1
44 43 m 1
 42 43 l 1
 42 41 l 1
 43 41 l 1
 43 42 l 1
 44 42 l 1
 44 43 l 1
31 35 m 1
 29 35 l 1
 29 33 l 1
 31 33 l 1
 31 35 l 1
36 33 m 1
 34 33 l 1
 34 31 l 1
 36 31 l 1
 36 33 l 1
31 31 m 1
 29 31 l 1
 29 29 l 1
 31 29 l 1
 31 31 l 1
41 35 m 1
 39 35 l 1
 39 33 l 1
 41 33 l 1
 41 35 l 1
43 35 m 1
 42 35 l 1
 42 33 l 1
 44 33 l 1
 44 34 l 1
 43 34 l 1
 43 35 l 1
31 27 m 1
 29 27 l 1
 29 25 l 1
 31 25 l 1
 31 27 l 1
41 27 m 1
 39 27 l 1
 39 25 l 1
 41 25 l 1
 41 27 l 1
44 27 m 1
 42 27 l 1
 42 25 l 1
 43 25 l 1
 43 26 l 1
 44 26 l 1
 44 27 l 1
45 42 m 1
 44 42 l 1
 44 41 l 1
 46 41 l 1
 46 43 l 1
 45 43 l 1
 45 42 l 1
49 43 m 1
 47 43 l 1
 47 41 l 1
 49 41 l 1
 49 43 l 1
49 39 m 1
 47 39 l 1
 47 37 l 1
 49 37 l 1
 49 39 l 1
55 43 m 1
 53 43 l 1
 53 41 l 1
 55 41 l 1
 55 43 l 1
58 43 m 1
 56 43 l 1
 56 41 l 1
 57 41 l 1
 57 42 l 1
 58 42 l 1
 58 43 l 1
59 42 m 1
 58 42 l 1
 58 41 l 1
 60 41 l 1
 60 43 l 1
 59 43 l 1
 59 42 l 1
55 39 m 1
 53 39 l 1
 53 37 l 1
 55 37 l 1
 55 39 l 1
63 43 m 1
 61 43 l 1
 61 41 l 1
 63 41 l 1
 63 43 l 1
63 39 m 1
 61 39 l 1
 61 37 l 1
 63 37 l 1
 63 39 l 1
46 35 m 1
 44 35 l 1
 44 34 l 1
 45 34 l 1
 45 33 l 1
 46 33 l 1
 46 35 l 1
49 35 m 1
 47 35 l 1
 47 33 l 1
 49 33 l 1
 49 35 l 1
49 31 m 1
 47 31 l 1
 47 29 l 1
 49 29 l 1
 49 31 l 1
55 35 m 1
 53 35 l 1
 53 33 l 1
 55 33 l 1
 55 35 l 1
57 35 m 1
 56 35 l 1
 56 33 l 1
 58 33 l 1
 58 34 l 1
 57 34 l 1
 57 35 l 1
60 35 m 1
 58 35 l 1
 58 34 l 1
 59 34 l 1
 59 33 l 1
 60 33 l 1
 60 35 l 1
45 26 m 1
 44 26 l 1
 44 25 l 1
 46 25 l 1
 46 27 l 1
 45 27 l 1
 45 26 l 1
49 27 m 1
 47 27 l 1
 47 25 l 1
 49 25 l 1
 49 27 l 1
55 27 m 1
 53 27 l 1
 53 25 l 1
 55 25 l 1
 55 27 l 1
58 27 m 1
 56 27 l 1
 56 25 l 1
 57 25 l 1
 57 26 l 1
 58 26 l 1
 58 27 l 1
59 26 m 1
 58 26 l 1
 58 25 l 1
 60 25 l 1
 60 27 l 1
 59 27 l 1
 59 26 l 1
63 35 m 1
 61 35 l 1
 61 33 l 1
 63 33 l 1
 63 35 l 1
63 31 m 1
 61 31 l 1
 61 29 l 1
 63 29 l 1
 63 31 l 1
63 27 m 1
 61 27 l 1
 61 25 l 1
 63 25 l 1
 63 27 l 1
EndSplineSet
EndChar

StartChar: custom_3_9_0_8_4
Encoding: 31752 31752 11784
Width: 70
Flags: H
LayerCount: 2
Fore
SplineSet
31 43 m 1
 29 43 l 1
 29 41 l 1
 31 41 l 1
 31 43 l 1
31 39 m 1
 29 39 l 1
 29 37 l 1
 31 37 l 1
 31 39 l 1
36 37 m 1
 34 37 l 1
 34 35 l 1
 36 35 l 1
 36 37 l 1
41 43 m 1
 39 43 l 1
 39 41 l 1
 41 41 l 1
 41 43 l 1
44 43 m 1
 42 43 l 1
 42 41 l 1
 43 41 l 1
 43 42 l 1
 44 42 l 1
 44 43 l 1
31 35 m 1
 29 35 l 1
 29 33 l 1
 31 33 l 1
 31 35 l 1
36 33 m 1
 34 33 l 1
 34 31 l 1
 36 31 l 1
 36 33 l 1
31 31 m 1
 29 31 l 1
 29 29 l 1
 31 29 l 1
 31 31 l 1
41 35 m 1
 39 35 l 1
 39 33 l 1
 41 33 l 1
 41 35 l 1
43 35 m 1
 42 35 l 1
 42 33 l 1
 44 33 l 1
 44 34 l 1
 43 34 l 1
 43 35 l 1
31 27 m 1
 29 27 l 1
 29 25 l 1
 31 25 l 1
 31 27 l 1
41 27 m 1
 39 27 l 1
 39 25 l 1
 41 25 l 1
 41 27 l 1
44 27 m 1
 42 27 l 1
 42 25 l 1
 43 25 l 1
 43 26 l 1
 44 26 l 1
 44 27 l 1
45 42 m 1
 44 42 l 1
 44 41 l 1
 46 41 l 1
 46 43 l 1
 45 43 l 1
 45 42 l 1
49 43 m 1
 47 43 l 1
 47 41 l 1
 49 41 l 1
 49 43 l 1
49 39 m 1
 47 39 l 1
 47 37 l 1
 49 37 l 1
 49 39 l 1
55 43 m 1
 53 43 l 1
 53 41 l 1
 55 41 l 1
 55 43 l 1
58 43 m 1
 56 43 l 1
 56 41 l 1
 57 41 l 1
 57 42 l 1
 58 42 l 1
 58 43 l 1
59 42 m 1
 58 42 l 1
 58 41 l 1
 60 41 l 1
 60 43 l 1
 59 43 l 1
 59 42 l 1
55 39 m 1
 53 39 l 1
 53 37 l 1
 55 37 l 1
 55 39 l 1
63 43 m 1
 61 43 l 1
 61 41 l 1
 63 41 l 1
 63 43 l 1
63 39 m 1
 61 39 l 1
 61 37 l 1
 63 37 l 1
 63 39 l 1
46 35 m 1
 44 35 l 1
 44 34 l 1
 45 34 l 1
 45 33 l 1
 46 33 l 1
 46 35 l 1
49 35 m 1
 47 35 l 1
 47 33 l 1
 49 33 l 1
 49 35 l 1
49 31 m 1
 47 31 l 1
 47 29 l 1
 49 29 l 1
 49 31 l 1
55 35 m 1
 53 35 l 1
 53 33 l 1
 55 33 l 1
 55 35 l 1
57 35 m 1
 56 35 l 1
 56 33 l 1
 58 33 l 1
 58 34 l 1
 57 34 l 1
 57 35 l 1
60 35 m 1
 58 35 l 1
 58 34 l 1
 59 34 l 1
 59 33 l 1
 60 33 l 1
 60 35 l 1
45 26 m 1
 44 26 l 1
 44 25 l 1
 46 25 l 1
 46 27 l 1
 45 27 l 1
 45 26 l 1
49 27 m 1
 47 27 l 1
 47 25 l 1
 49 25 l 1
 49 27 l 1
55 27 m 1
 53 27 l 1
 53 25 l 1
 55 25 l 1
 55 27 l 1
58 27 m 1
 56 27 l 1
 56 25 l 1
 57 25 l 1
 57 26 l 1
 58 26 l 1
 58 27 l 1
59 26 m 1
 58 26 l 1
 58 25 l 1
 60 25 l 1
 60 27 l 1
 59 27 l 1
 59 26 l 1
63 35 m 1
 61 35 l 1
 61 33 l 1
 63 33 l 1
 63 35 l 1
63 31 m 1
 61 31 l 1
 61 29 l 1
 63 29 l 1
 63 31 l 1
63 27 m 1
 61 27 l 1
 61 25 l 1
 63 25 l 1
 63 27 l 1
EndSplineSet
EndChar

